<?xml version="1.0" encoding="UTF-8"?>
<svg width="57px" height="55px" viewBox="0 0 57 55" version="1.1" xmlns="http://www.w3.org/2000/svg" xmlns:xlink="http://www.w3.org/1999/xlink">
    <!-- Generator: Sketch 52.6 (67491) - http://www.bohemiancoding.com/sketch -->
    <title>Icon</title>
    <desc>Created with Sketch.</desc>
    <g id="Page-1" stroke="none" stroke-width="1" fill="none" fill-rule="evenodd">
        <g id="DAP---Healthcare-marketing-page" transform="translate(-1274.000000, -9882.000000)" fill="#FFFFFF">
            <g id="Our-Customers" transform="translate(0.000000, 9327.000000)">
                <g id="Row-2" transform="translate(200.000000, 506.000000)">
                    <g id="4" transform="translate(965.000000, 0.000000)">
                        <g id="Icon" transform="translate(109.000000, 49.000000)">
                            <path d="M46.3125,33.4782609 C44.348375,33.4782609 42.75,35.0804348 42.75,37.0652174 C42.75,39.05 44.348375,40.6521739 46.3125,40.6521739 C48.276625,40.6521739 49.875,39.05 49.875,37.0652174 C49.875,35.0804348 48.276625,33.4782609 46.3125,33.4782609 L46.3125,33.4782609 Z M46.3125,43.0434783 C43.03975,43.0434783 40.375,40.3652174 40.375,37.0652174 C40.375,33.7652174 43.03975,31.0869565 46.3125,31.0869565 C49.58525,31.0869565 52.25,33.7652174 52.25,37.0652174 C52.25,40.3652174 49.58525,43.0434783 46.3125,43.0434783 L46.3125,43.0434783 Z" id="Fill-2931"></path>
                            <path d="M38.0855,50.2173913 L54.5395,50.2173913 C53.962375,46.176087 50.4925,43.0434783 46.3125,43.0434783 C42.1325,43.0434783 38.662625,46.176087 38.0855,50.2173913 L38.0855,50.2173913 Z M55.8125,52.6086957 L36.8125,52.6086957 C36.157,52.6086957 35.625,52.0826087 35.625,51.4130435 C35.625,45.4826087 40.420125,40.6521739 46.3125,40.6521739 C52.204875,40.6521739 57,45.4826087 57,51.4130435 C57,52.0826087 56.468,52.6086957 55.8125,52.6086957 L55.8125,52.6086957 Z" id="Fill-2932"></path>
                            <path d="M41.5625,38.2608696 C38.28975,38.2608696 35.625,35.5826087 35.625,32.2826087 C35.625,28.9826087 38.28975,26.3043478 41.5625,26.3043478 C44.83525,26.3043478 47.5,28.9826087 47.5,32.2826087 C47.5,32.9521739 46.968,33.4782609 46.3125,33.4782609 C45.657,33.4782609 45.125,32.9521739 45.125,32.2826087 C45.125,30.2978261 43.526625,28.6956522 41.5625,28.6956522 C39.598375,28.6956522 38,30.2978261 38,32.2826087 C38,34.2673913 39.598375,35.8695652 41.5625,35.8695652 C42.218,35.8695652 42.75,36.3956522 42.75,37.0652174 C42.75,37.7347826 42.218,38.2608696 41.5625,38.2608696" id="Fill-2933"></path>
                            <path d="M38,47.826087 L32.0625,47.826087 C31.407,47.826087 30.875,47.3 30.875,46.6304348 C30.875,40.7 35.670125,35.8695652 41.5625,35.8695652 C42.218,35.8695652 42.75,36.3956522 42.75,37.0652174 C42.75,37.7347826 42.218,38.2608696 41.5625,38.2608696 C37.3825,38.2608696 33.912625,41.3934783 33.3355,45.4347826 L38,45.4347826 C38.6555,45.4347826 39.1875,45.9608696 39.1875,46.6304348 C39.1875,47.3 38.6555,47.826087 38,47.826087" id="Fill-2934"></path>
                            <path d="M8.3125,55 C8.056,55 7.797125,54.9282609 7.581,54.7608696 C7.136875,54.4021739 6.99675,53.7804348 7.250875,53.2782609 L13.516125,40.6521739 L8.3125,40.6521739 C3.72875,40.6521739 0,36.8978261 0,32.2826087 L0,8.36956522 C0,3.75434783 3.72875,0 8.3125,0 L43.9375,0 C48.52125,0 52.25,3.75434783 52.25,8.36956522 L52.25,28.6956522 C52.25,29.3652174 51.718,29.8913043 51.0625,29.8913043 C50.407,29.8913043 49.875,29.3652174 49.875,28.6956522 L49.875,8.36956522 C49.875,5.06956522 47.21025,2.39130435 43.9375,2.39130435 L8.3125,2.39130435 C5.03975,2.39130435 2.375,5.06956522 2.375,8.36956522 L2.375,32.2826087 C2.375,35.5826087 5.03975,38.2608696 8.3125,38.2608696 L15.4375,38.2608696 C15.848375,38.2608696 16.23075,38.476087 16.446875,38.8347826 C16.665375,39.1934783 16.684375,39.623913 16.499125,39.9826087 L12.005625,49.0456522 L24.165625,38.5478261 C24.379375,38.3565217 24.654875,38.2608696 24.9375,38.2608696 L29.6875,38.2608696 C30.343,38.2608696 30.875,38.7869565 30.875,39.4565217 C30.875,40.126087 30.343,40.6521739 29.6875,40.6521739 L25.376875,40.6521739 L9.084375,54.7130435 C8.8635,54.9043478 8.588,55 8.3125,55" id="Fill-2935"></path>
                            <path d="M24.8571429,26.7142857 L27.1428571,26.7142857 L27.1428571,23.2857143 C27.1428571,22.6457143 27.6548571,22.1428571 28.2857143,22.1428571 L31.7142857,22.1428571 L31.7142857,19.8571429 L28.2857143,19.8571429 C27.6548571,19.8571429 27.1428571,19.3542857 27.1428571,18.7142857 L27.1428571,15.2857143 L24.8571429,15.2857143 L24.8571429,18.7142857 C24.8571429,19.3542857 24.3451429,19.8571429 23.7142857,19.8571429 L20.2857143,19.8571429 L20.2857143,22.1428571 L23.7142857,22.1428571 C24.3451429,22.1428571 24.8571429,22.6457143 24.8571429,23.2857143 L24.8571429,26.7142857 L24.8571429,26.7142857 Z M28.2857143,29 L23.7142857,29 C23.0834286,29 22.5714286,28.4971429 22.5714286,27.8571429 L22.5714286,24.4285714 L19.1428571,24.4285714 C18.512,24.4285714 18,23.9257143 18,23.2857143 L18,18.7142857 C18,18.0742857 18.512,17.5714286 19.1428571,17.5714286 L22.5714286,17.5714286 L22.5714286,14.1428571 C22.5714286,13.5028571 23.0834286,13 23.7142857,13 L28.2857143,13 C28.9165714,13 29.4285714,13.5028571 29.4285714,14.1428571 L29.4285714,17.5714286 L32.8571429,17.5714286 C33.488,17.5714286 34,18.0742857 34,18.7142857 L34,23.2857143 C34,23.9257143 33.488,24.4285714 32.8571429,24.4285714 L29.4285714,24.4285714 L29.4285714,27.8571429 C29.4285714,28.4971429 28.9165714,29 28.2857143,29 L28.2857143,29 Z" id="Fill-3983"></path>
                        </g>
                    </g>
                </g>
            </g>
        </g>
    </g>
</svg>