<?xml version="1.0" encoding="UTF-8"?>
<svg width="58px" height="59px" viewBox="0 0 58 59" version="1.1" xmlns="http://www.w3.org/2000/svg" xmlns:xlink="http://www.w3.org/1999/xlink">
    <!-- Generator: Sketch 52.6 (67491) - http://www.bohemiancoding.com/sketch -->
    <title>Icon</title>
    <desc>Created with Sketch.</desc>
    <g id="Page-1" stroke="none" stroke-width="1" fill="none" fill-rule="evenodd">
        <g id="DAP---Healthcare-marketing-page" transform="translate(-308.000000, -9439.000000)" fill="#FFFFFF">
            <g id="Section-6" transform="translate(0.000000, 9091.000000)">
                <g id="Row-1" transform="translate(200.000000, 300.000000)">
                    <g id="1">
                        <g id="Icon" transform="translate(108.000000, 48.000000)">
                            <path d="M21.3972367,59 L21.3525659,59 C20.6700952,58.9754167 20.1315638,58.41 20.1538992,57.7216667 C20.2705397,54.28 21.8960607,52.6083333 23.2386667,51.7970833 C23.8243506,51.4529167 24.5887177,51.6495833 24.9411208,52.215 C25.2935238,52.805 25.102432,53.5670833 24.5142664,53.91125 C23.33049,54.5995833 22.6976536,55.9270833 22.6331291,57.82 C22.6132754,58.48375 22.0623354,59 21.3972367,59" id="Fill-3996"></path>
                            <path d="M28.8398896,19.6666667 C13.6890407,19.6666667 1.41449551,17.2083333 1.29040994,17.18375 C0.667500345,17.0608333 0.243127674,16.4954167 0.305170462,15.85625 C0.369694962,15.2170833 0.905744651,14.75 1.5410628,14.75 C3.69022498,14.75 6.22653416,12.90625 8.67846515,11.13625 C11.3537502,9.19416667 13.8801325,7.375 16.431332,7.375 C21.1515473,7.375 29.1550669,12.2670833 29.4950614,12.4883333 C30.0782636,12.8325 30.2544651,13.5945833 29.894617,14.16 C29.5322871,14.75 28.7679199,14.9220833 28.1847177,14.5533333 C26.0454824,13.2504167 19.7617888,9.83333333 16.431332,9.83333333 C14.6891705,9.83333333 12.378697,11.505 10.1426749,13.1275 C8.95889855,13.9879167 7.75775017,14.8483333 6.54171153,15.56125 C11.4133112,16.2741667 19.5781422,17.2083333 28.8398896,17.2083333 C29.524842,17.2083333 30.0807453,17.7491667 30.0807453,18.4375 C30.0807453,19.1258333 29.524842,19.6666667 28.8398896,19.6666667" id="Fill-3997"></path>
                            <path d="M28.8398896,19.6666667 C28.1549372,19.6666667 27.5990338,19.1258333 27.5990338,18.4375 C27.5990338,17.7491667 28.1549372,17.2083333 28.8398896,17.2083333 C38.1115638,17.2083333 46.2689496,16.2741667 51.1405493,15.56125 C49.922029,14.8483333 48.7208806,13.9879167 47.5371042,13.1275 C45.3010821,11.505 42.9906087,9.83333333 41.2484472,9.83333333 C37.9130269,9.83333333 31.6342968,13.2504167 29.4950614,14.5533333 C28.9118592,14.9220833 28.1474921,14.75 27.7851622,14.16 C27.425314,13.5945833 27.6015155,12.8325 28.1847177,12.4883333 C28.5247122,12.2670833 36.5282319,7.375 41.2484472,7.375 C43.7996467,7.375 46.326029,9.19416667 49.001314,11.13625 C51.453245,12.90625 53.9895542,14.75 56.1387164,14.75 C56.7740345,14.75 57.3100842,15.2170833 57.3746087,15.85625 C57.4366515,16.4954167 57.0122788,17.0608333 56.3893692,17.18375 C56.2652836,17.2083333 43.9907384,19.6666667 28.8398896,19.6666667" id="Fill-3998"></path>
                            <path d="M28.8398896,2.45833333 C26.7875141,2.45833333 25.1173223,4.10541667 25.1173223,6.14583333 C25.1173223,8.18625 26.7875141,9.83333333 28.8398896,9.83333333 C30.892265,9.83333333 32.5624569,8.18625 32.5624569,6.14583333 C32.5624569,4.10541667 30.892265,2.45833333 28.8398896,2.45833333 L28.8398896,2.45833333 Z M28.8398896,12.2916667 C25.4200911,12.2916667 22.6356108,9.53833333 22.6356108,6.14583333 C22.6356108,2.75333333 25.4200911,0 28.8398896,0 C32.2596881,0 35.0441684,2.75333333 35.0441684,6.14583333 C35.0441684,9.53833333 32.2596881,12.2916667 28.8398896,12.2916667 L28.8398896,12.2916667 Z" id="Fill-3999"></path>
                            <path d="M28.8398896,59 C28.1549372,59 27.5990338,58.4591667 27.5990338,57.7708333 L27.5990338,18.4375 C27.5990338,17.7491667 28.1549372,17.2083333 28.8398896,17.2083333 C29.524842,17.2083333 30.0807453,17.7491667 30.0807453,18.4375 L30.0807453,57.7708333 C30.0807453,58.4591667 29.524842,59 28.8398896,59" id="Fill-4000"></path>
                            <path d="M20.7445466,24.6816667 C19.8933195,24.6816667 19.071873,24.9766667 18.5184513,25.4929167 C17.6275169,26.3041667 17.6448889,26.91875 17.7342305,27.3120833 C17.9699931,28.3445833 19.1636963,29.5 20.861187,30.6308333 C20.5931622,30.1145833 20.3995887,29.5983333 20.3003202,29.0329167 C20.1117101,27.9758333 20.2134603,26.4025 21.7769386,24.9275 C21.7967923,24.9029167 21.8141643,24.9029167 21.8290545,24.8783333 C21.6454079,24.78 21.3376756,24.70625 20.9182664,24.6816667 L20.7445466,24.6816667 L20.7445466,24.6816667 Z M33.8033126,49.1666667 C33.4062388,49.1666667 33.0166101,48.97 32.7758841,48.6258333 C32.3912188,48.0604167 32.5401215,47.2983333 33.1084334,46.9295833 C36.0343713,44.9629167 37.550697,43.1683333 37.3794589,41.89 C37.1064707,39.825 32.6120911,38.27625 30.1998675,37.4404167 C29.4752077,37.1945833 28.8498164,36.9979167 28.4031084,36.80125 C26.9215266,36.3341667 16.4487039,32.8433333 15.3120801,27.8529167 C15.0763175,26.8204167 15.1433237,25.2470833 16.8234424,23.67375 C18.925452,21.7316667 22.4246653,21.8545833 23.8144237,23.305 C24.5887177,24.11625 24.7872547,25.4683333 23.494283,26.6975 C22.6579462,27.4841667 22.6653913,28.1725 22.7448061,28.615 C23.107136,30.6554167 26.4425562,33.26125 29.326305,34.515 L29.3511222,34.515 C29.7556411,34.7116667 30.3363616,34.9083333 31.0113872,35.1295833 C34.3393623,36.2604167 39.3648282,37.98125 39.8413168,41.5704167 C40.1540124,43.9058333 38.4068875,46.3395833 34.4981919,48.9454167 C34.2847647,49.0929167 34.0440386,49.1666667 33.8033126,49.1666667 L33.8033126,49.1666667 Z" id="Fill-4001"></path>
                            <path d="M35.8581698,24.85375 C35.8805052,24.8783333 35.9102857,24.9029167 35.942548,24.9520833 C37.8807647,26.8695833 37.9651429,28.7379167 37.3794589,30.3358333 C38.8808944,29.4508333 39.8586888,28.5166667 40.0745977,27.6316667 C40.1366404,27.36125 40.3227688,26.62375 39.151401,25.44375 C38.5930159,24.9029167 37.7293803,24.6079167 36.8185921,24.6325 C36.3594755,24.6570833 36.0343713,24.7554167 35.8581698,24.85375 L35.8581698,24.85375 Z M33.8033126,34.4166667 C33.37894,34.4166667 32.9719393,34.1954167 32.7436218,33.8266667 C32.4458164,33.335 32.5202678,32.7204167 32.9247867,32.3270833 C35.555401,29.72125 35.8656149,28.3445833 34.1879779,26.6729167 C32.9024513,25.4191667 33.1531042,24.0179167 33.972069,23.2066667 C35.4164251,21.7808333 38.9007481,21.7316667 40.905971,23.7229167 C42.6903216,25.4929167 42.7498827,27.14 42.4868213,28.1970833 C41.6331125,31.6633333 36.3917378,33.6545833 34.1780511,34.3675 C34.0539655,34.3920833 33.9273982,34.4166667 33.8033126,34.4166667 L33.8033126,34.4166667 Z" id="Fill-4002"></path>
                            <path d="M36.2875059,59 C36.2105728,59 36.1336398,59 36.0567067,58.9754167 C35.3816812,58.8525 34.9374548,58.2133333 35.0665038,57.5495833 C35.0863575,57.4020833 35.5752547,53.6654167 28.4874865,51.5758333 C21.4940235,49.5108333 17.9327674,47.0770833 17.5952547,44.1025 C17.3197847,41.6441667 19.2307026,39.2595833 23.2709289,37.0225 C23.8690214,36.7029167 24.6234617,36.8995833 24.9584928,37.5141667 C25.2935238,38.1041667 25.0800966,38.8416667 24.4820041,39.1858333 C21.5262857,40.8083333 19.9156549,42.5045833 20.0620759,43.8320833 C20.156381,44.6679167 21.2359255,46.8804167 29.1922926,49.2158333 C38.5334548,51.9691667 37.550697,57.74625 37.5035445,57.9920833 C37.3918675,58.5820833 36.8707081,59 36.2875059,59" id="Fill-4003"></path>
                        </g>
                    </g>
                </g>
            </g>
        </g>
    </g>
</svg>