<?xml version="1.0" encoding="UTF-8"?>
<svg width="50px" height="57px" viewBox="0 0 50 57" version="1.1" xmlns="http://www.w3.org/2000/svg" xmlns:xlink="http://www.w3.org/1999/xlink">
    <!-- Generator: Sketch 52.6 (67491) - http://www.bohemiancoding.com/sketch -->
    <title>Icon</title>
    <desc>Created with Sketch.</desc>
    <g id="Page-1" stroke="none" stroke-width="1" fill="none" fill-rule="evenodd">
        <g id="DAP---Healthcare-marketing-page" transform="translate(-634.000000, -10098.000000)" fill="#FFFFFF">
            <g id="Our-Customers" transform="translate(0.000000, 9327.000000)">
                <g id="Row-3" transform="translate(200.000000, 721.000000)">
                    <g id="2" transform="translate(321.000000, 0.000000)">
                        <g id="Icon" transform="translate(113.000000, 50.000000)">
                            <path d="M30.952619,54.6247625 L42.857381,54.6247625 L42.857381,5.9372625 C42.857381,5.2841375 42.3240476,4.7497625 41.6669048,4.7497625 L36.905,4.7497625 C36.2478571,4.7497625 35.7145238,4.2177625 35.7145238,3.5622625 L35.7145238,2.3747625 L14.2859524,2.3747625 L14.2859524,3.5622625 C14.2859524,4.2177625 13.752619,4.7497625 13.0954762,4.7497625 L8.33357143,4.7497625 C7.67642857,4.7497625 7.14309524,5.2841375 7.14309524,5.9372625 L7.14309524,54.6247625 L19.0478571,54.6247625 L19.0478571,39.1872625 C19.0478571,38.5317625 19.5811905,37.9997625 20.2383333,37.9997625 L29.7621429,37.9997625 C30.4192857,37.9997625 30.952619,38.5317625 30.952619,39.1872625 L30.952619,54.6247625 L30.952619,54.6247625 Z M44.0478571,56.9997625 L29.7621429,56.9997625 C29.105,56.9997625 28.5716667,56.4677625 28.5716667,55.8122625 L28.5716667,40.3747625 L21.4288095,40.3747625 L21.4288095,55.8122625 C21.4288095,56.4677625 20.8954762,56.9997625 20.2383333,56.9997625 L5.95261905,56.9997625 C5.29547619,56.9997625 4.76214286,56.4677625 4.76214286,55.8122625 L4.76214286,5.9372625 C4.76214286,3.9731375 6.36452381,2.3747625 8.33357143,2.3747625 L11.905,2.3747625 L11.905,1.1872625 C11.905,0.5317625 12.4383333,-0.0002375 13.0954762,-0.0002375 L36.905,-0.0002375 C37.5621429,-0.0002375 38.0954762,0.5317625 38.0954762,1.1872625 L38.0954762,2.3747625 L41.6669048,2.3747625 C43.6359524,2.3747625 45.2383333,3.9731375 45.2383333,5.9372625 L45.2383333,55.8122625 C45.2383333,56.4677625 44.705,56.9997625 44.0478571,56.9997625 L44.0478571,56.9997625 Z" id="Fill-397"></path>
                            <path d="M11.9047619,45.125 L14.2857143,45.125 L14.2857143,40.375 L11.9047619,40.375 L11.9047619,45.125 Z M15.4761905,47.5 L10.7142857,47.5 C10.0571429,47.5 9.52380952,46.968 9.52380952,46.3125 L9.52380952,39.1875 C9.52380952,38.529625 10.0571429,38 10.7142857,38 L15.4761905,38 C16.1333333,38 16.6666667,38.529625 16.6666667,39.1875 L16.6666667,46.3125 C16.6666667,46.968 16.1333333,47.5 15.4761905,47.5 L15.4761905,47.5 Z" id="Fill-399"></path>
                            <path d="M35.7142857,45.125 L38.0952381,45.125 L38.0952381,40.375 L35.7142857,40.375 L35.7142857,45.125 Z M39.2857143,47.5 L34.5238095,47.5 C33.8666667,47.5 33.3333333,46.968 33.3333333,46.3125 L33.3333333,39.1875 C33.3333333,38.529625 33.8666667,38 34.5238095,38 L39.2857143,38 C39.9428571,38 40.4761905,38.529625 40.4761905,39.1875 L40.4761905,46.3125 C40.4761905,46.968 39.9428571,47.5 39.2857143,47.5 L39.2857143,47.5 Z" id="Fill-401"></path>
                            <path d="M11.9047619,30.875 L14.2857143,30.875 L14.2857143,26.125 L11.9047619,26.125 L11.9047619,30.875 Z M15.4761905,33.25 L10.7142857,33.25 C10.0571429,33.25 9.52380952,32.718 9.52380952,32.0625 L9.52380952,24.9375 C9.52380952,24.279625 10.0571429,23.75 10.7142857,23.75 L15.4761905,23.75 C16.1333333,23.75 16.6666667,24.279625 16.6666667,24.9375 L16.6666667,32.0625 C16.6666667,32.718 16.1333333,33.25 15.4761905,33.25 L15.4761905,33.25 Z" id="Fill-402"></path>
                            <path d="M35.7142857,30.875 L38.0952381,30.875 L38.0952381,26.125 L35.7142857,26.125 L35.7142857,30.875 Z M39.2857143,33.25 L34.5238095,33.25 C33.8666667,33.25 33.3333333,32.718 33.3333333,32.0625 L33.3333333,24.9375 C33.3333333,24.279625 33.8666667,23.75 34.5238095,23.75 L39.2857143,23.75 C39.9428571,23.75 40.4761905,24.279625 40.4761905,24.9375 L40.4761905,32.0625 C40.4761905,32.718 39.9428571,33.25 39.2857143,33.25 L39.2857143,33.25 Z" id="Fill-403"></path>
                            <path d="M11.9047619,16.625 L14.2857143,16.625 L14.2857143,11.875 L11.9047619,11.875 L11.9047619,16.625 Z M15.4761905,19 L10.7142857,19 C10.0571429,19 9.52380952,18.468 9.52380952,17.8125 L9.52380952,10.6875 C9.52380952,10.029625 10.0571429,9.5 10.7142857,9.5 L15.4761905,9.5 C16.1333333,9.5 16.6666667,10.029625 16.6666667,10.6875 L16.6666667,17.8125 C16.6666667,18.468 16.1333333,19 15.4761905,19 L15.4761905,19 Z" id="Fill-404"></path>
                            <path d="M35.7142857,16.625 L38.0952381,16.625 L38.0952381,11.875 L35.7142857,11.875 L35.7142857,16.625 Z M39.2857143,19 L34.5238095,19 C33.8666667,19 33.3333333,18.468 33.3333333,17.8125 L33.3333333,10.6875 C33.3333333,10.029625 33.8666667,9.5 34.5238095,9.5 L39.2857143,9.5 C39.9428571,9.5 40.4761905,10.029625 40.4761905,10.6875 L40.4761905,17.8125 C40.4761905,18.468 39.9428571,19 39.2857143,19 L39.2857143,19 Z" id="Fill-405"></path>
                            <path d="M23.8095238,30.875 L26.1904762,30.875 L26.1904762,26.125 L23.8095238,26.125 L23.8095238,30.875 Z M27.3809524,33.25 L22.6190476,33.25 C21.9619048,33.25 21.4285714,32.718 21.4285714,32.0625 L21.4285714,24.9375 C21.4285714,24.279625 21.9619048,23.75 22.6190476,23.75 L27.3809524,23.75 C28.0380952,23.75 28.5714286,24.279625 28.5714286,24.9375 L28.5714286,32.0625 C28.5714286,32.718 28.0380952,33.25 27.3809524,33.25 L27.3809524,33.25 Z" id="Fill-406"></path>
                            <path d="M23.8095238,16.625 L26.1904762,16.625 L26.1904762,11.875 L23.8095238,11.875 L23.8095238,16.625 Z M27.3809524,19 L22.6190476,19 C21.9619048,19 21.4285714,18.468 21.4285714,17.8125 L21.4285714,10.6875 C21.4285714,10.029625 21.9619048,9.5 22.6190476,9.5 L27.3809524,9.5 C28.0380952,9.5 28.5714286,10.029625 28.5714286,10.6875 L28.5714286,17.8125 C28.5714286,18.468 28.0380952,19 27.3809524,19 L27.3809524,19 Z" id="Fill-407"></path>
                            <path d="M5.95261905,56.9997625 L1.19071429,56.9997625 C0.533571429,56.9997625 0.000238095239,56.4677625 0.000238095239,55.8122625 C0.000238095239,55.1567625 0.533571429,54.6247625 1.19071429,54.6247625 L5.95261905,54.6247625 C6.6097619,54.6247625 7.14309524,55.1567625 7.14309524,55.8122625 C7.14309524,56.4677625 6.6097619,56.9997625 5.95261905,56.9997625" id="Fill-408"></path>
                            <path d="M48.8097619,56.9997625 L44.0478571,56.9997625 C43.3907143,56.9997625 42.857381,56.4677625 42.857381,55.8122625 C42.857381,55.1567625 43.3907143,54.6247625 44.0478571,54.6247625 L48.8097619,54.6247625 C49.4669048,54.6247625 50.0002381,55.1567625 50.0002381,55.8122625 C50.0002381,56.4677625 49.4669048,56.9997625 48.8097619,56.9997625" id="Fill-409"></path>
                        </g>
                    </g>
                </g>
            </g>
        </g>
    </g>
</svg>