<?xml version="1.0" encoding="UTF-8"?>
<svg width="57px" height="57px" viewBox="0 0 57 57" version="1.1" xmlns="http://www.w3.org/2000/svg" xmlns:xlink="http://www.w3.org/1999/xlink">
    <!-- Generator: Sketch 52.6 (67491) - http://www.bohemiancoding.com/sketch -->
    <title>Group 1492</title>
    <desc>Created with Sketch.</desc>
    <g id="Page-1" stroke="none" stroke-width="1" fill="none" fill-rule="evenodd">
        <g id="DAP---Healthcare-marketing-page" transform="translate(-631.000000, -9676.000000)" fill="#FFFFFF">
            <g id="Our-Customers" transform="translate(0.000000, 9327.000000)">
                <g id="Row-1" transform="translate(200.000000, 300.000000)">
                    <g id="2" transform="translate(322.000000, 0.000000)">
                        <g id="Group-1492" transform="translate(109.000000, 49.000000)">
                            <path d="M2.375,49.875 L7.445625,49.875 C8.329125,47.08675 11.17675,37.845625 11.8085,32.644375 C10.31225,31.917625 6.191625,31.2645 2.375,30.9605 L2.375,49.875 Z M8.3125,52.25 L1.1875,52.25 C0.532,52.25 0,51.718 0,51.0625 L0,29.6875 C0,29.35975 0.135375,29.04625 0.372875,28.823 C0.610375,28.59975 0.928625,28.49525 1.25875,28.502375 C3.705,28.64725 11.844125,29.271875 13.8795,31.200375 C14.143125,31.44975 14.276125,31.806 14.24525,32.164625 C13.706125,38.339625 9.614,50.901 9.440625,51.430625 C9.2815,51.919875 8.8255,52.25 8.3125,52.25 L8.3125,52.25 Z" id="Fill-1476"></path>
                            <path d="M31.8155,56.9256625 C30.267,56.9256625 28.8895,56.4886625 26.892125,55.7357875 L9.12475,49.8125375 C8.5025,49.6059125 8.16525,48.9337875 8.37425,48.3115375 C8.580875,47.6892875 9.24825,47.3520375 9.87525,47.5610375 L27.68775,53.4985375 C31.969875,55.1135375 32.31425,55.2441625 42.29875,51.1520375 L54.071625,45.7987875 C52.763,44.2099125 50.651625,43.4879125 48.5735,44.0032875 L39.474875,46.2761625 C38.84075,46.4329125 38.19475,46.0481625 38.035625,45.4116625 C37.8765,44.7775375 38.263625,44.1315375 38.900125,43.9724125 L47.996375,41.6995375 C51.5755,40.7994125 55.225875,42.4832875 56.874125,45.7821625 C57.019,46.0695375 57.040375,46.4044125 56.931125,46.7084125 C56.82425,47.0124125 56.598625,47.2594125 56.304125,47.3924125 L43.241625,53.3299125 C37.04525,55.8735375 34.22375,56.9256625 31.8155,56.9256625" id="Fill-1478"></path>
                            <path d="M34.26365,47.3225875 C33.7174,47.3225875 33.168775,47.2703375 32.6344,47.1634625 L22.329275,45.1019625 C21.688025,44.9737125 21.270025,44.3490875 21.398275,43.7054625 C21.526525,43.0618375 22.1464,42.6390875 22.794775,42.7720875 L33.0999,44.8335875 C33.95965,45.0069625 34.8574,44.9855875 35.7029,44.7718375 L37.9829,44.2018375 C37.838025,42.0334625 36.78115,40.9979625 34.14965,40.3400875 L12.805525,35.5972125 C12.164275,35.4547125 11.760525,34.8205875 11.903025,34.1793375 C12.045525,33.5404625 12.686775,33.1414625 13.3209,33.2768375 L34.6959,38.0268375 C38.63365,39.0124625 40.374525,41.0834625 40.374525,44.7504625 L40.374525,45.1257125 C40.374525,45.6695875 40.004025,46.1445875 39.4744,46.2775875 L36.280025,47.0755875 C35.624525,47.2394625 34.9429,47.3225875 34.26365,47.3225875" id="Fill-1480"></path>
                            <path d="M22.5625,2.375 C20.598375,2.375 19,3.973375 19,5.9375 L19,27.3125 C19,29.276625 20.598375,30.875 22.5625,30.875 L51.0625,30.875 C53.026625,30.875 54.625,29.276625 54.625,27.3125 L54.625,5.9375 C54.625,3.973375 53.026625,2.375 51.0625,2.375 L22.5625,2.375 Z M51.0625,33.25 L22.5625,33.25 C19.28975,33.25 16.625,30.58525 16.625,27.3125 L16.625,5.9375 C16.625,2.66475 19.28975,0 22.5625,0 L51.0625,0 C54.33525,0 57,2.66475 57,5.9375 L57,27.3125 C57,30.58525 54.33525,33.25 51.0625,33.25 L51.0625,33.25 Z" id="Fill-1482"></path>
                            <path d="M55.8125,11.875 L17.8125,11.875 C17.157,11.875 16.625,11.343 16.625,10.6875 C16.625,10.032 17.157,9.5 17.8125,9.5 L55.8125,9.5 C56.468,9.5 57,10.032 57,10.6875 C57,11.343 56.468,11.875 55.8125,11.875" id="Fill-1484"></path>
                            <path d="M23.75,5.9375 C23.75,6.593 23.218,7.125 22.5625,7.125 C21.907,7.125 21.375,6.593 21.375,5.9375 C21.375,5.282 21.907,4.75 22.5625,4.75 C23.218,4.75 23.75,5.282 23.75,5.9375" id="Fill-1486"></path>
                            <path d="M28.5,5.9375 C28.5,6.593 27.968,7.125 27.3125,7.125 C26.657,7.125 26.125,6.593 26.125,5.9375 C26.125,5.282 26.657,4.75 27.3125,4.75 C27.968,4.75 28.5,5.282 28.5,5.9375" id="Fill-1488"></path>
                            <path d="M33.25,5.9375 C33.25,6.593 32.718,7.125 32.0625,7.125 C31.407,7.125 30.875,6.593 30.875,5.9375 C30.875,5.282 31.407,4.75 32.0625,4.75 C32.718,4.75 33.25,5.282 33.25,5.9375" id="Fill-1490"></path>
                        </g>
                    </g>
                </g>
            </g>
        </g>
    </g>
</svg>