<?xml version="1.0" encoding="UTF-8"?>
<svg width="60px" height="60px" viewBox="0 0 60 60" version="1.1" xmlns="http://www.w3.org/2000/svg" xmlns:xlink="http://www.w3.org/1999/xlink">
    <!-- Generator: Sketch 52.6 (67491) - http://www.bohemiancoding.com/sketch -->
    <title>Icon</title>
    <desc>Created with Sketch.</desc>
    <g id="Page-1" stroke="none" stroke-width="1" fill="none" fill-rule="evenodd">
        <g id="DAP---Healthcare-marketing-page" transform="translate(-307.000000, -9880.000000)" fill="#FFFFFF">
            <g id="Our-Customers" transform="translate(0.000000, 9327.000000)">
                <g id="Row-2" transform="translate(200.000000, 506.000000)">
                    <g id="1">
                        <g id="Icon" transform="translate(107.000000, 47.000000)">
                            <path d="M8.75,55 C8.43,55 8.11,54.875 7.865,54.625 L0.365,47.125 C0.0075,46.775 -0.1,46.225 0.095,45.775 C0.2875,45.3 0.745,45 1.25,45 C3.1075,45 5.3225,45.275 7.89,45.6 C16.225,46.65 27.6425,48.075 35.365,40.375 C42.595,33.15 41.805,24.875 40.8025,14.375 C40.4075,10.25 40,5.975 40,1.25 C40,0.75 40.305,0.275 40.7725,0.1 C41.24,-0.1 41.775,1.34524347e-12 42.135,0.375 L54.635,12.875 C55.1225,13.35 55.1225,14.15 54.635,14.625 C54.145,15.125 53.355,15.125 52.865,14.625 L42.5575,4.325 C42.6825,7.75 42.99,11 43.2925,14.15 C44.3125,24.85 45.195,34.075 37.135,42.125 C28.545,50.725 16.4275,49.2 7.5775,48.075 C6.475,47.95 5.44,47.8 4.48,47.7 L9.635,52.875 C10.1225,53.35 10.1225,54.15 9.635,54.625 C9.39,54.875 9.07,55 8.75,55" id="Fill-3962"></path>
                            <path d="M13.75,60 C13.06,60 12.5,59.45 12.5,58.75 C12.5,57.05 12.23,54.9 11.9175,52.425 C10.8025,43.575 9.2775,31.45 17.865,22.875 C25.93,14.8 35.16,15.675 45.85,16.7 C49.925,17.1 54.14,17.5 58.75,17.5 C59.44,17.5 60,18.05 60,18.75 C60,19.45 59.44,20 58.75,20 C54.02,20 49.745,19.6 45.6125,19.2 C35.1375,18.2 26.8625,17.4 19.635,24.625 C11.9125,32.35 13.3475,43.775 14.3975,52.1 C14.72,54.675 15,56.9 15,58.75 C15,59.45 14.44,60 13.75,60" id="Fill-3963"></path>
                            <path d="M30,46.25 C29.68,46.25 29.36,46.125 29.115,45.875 L17.865,34.625 C17.3775,34.15 17.3775,33.35 17.865,32.875 C18.355,32.375 19.145,32.375 19.635,32.875 L30.885,44.125 C31.3725,44.6 31.3725,45.4 30.885,45.875 C30.64,46.125 30.32,46.25 30,46.25" id="Fill-3964"></path>
                            <path d="M36.25,42.5 C35.93,42.5 35.61,42.375 35.365,42.125 L21.615,28.375 C21.1275,27.9 21.1275,27.1 21.615,26.625 C22.105,26.125 22.895,26.125 23.385,26.625 L37.135,40.375 C37.6225,40.85 37.6225,41.65 37.135,42.125 C36.89,42.375 36.57,42.5 36.25,42.5" id="Fill-3965"></path>
                            <path d="M40,36.25 C39.68,36.25 39.36,36.125 39.115,35.875 L27.865,24.625 C27.3775,24.15 27.3775,23.35 27.865,22.875 C28.355,22.375 29.145,22.375 29.635,22.875 L40.885,34.125 C41.3725,34.6 41.3725,35.4 40.885,35.875 C40.64,36.125 40.32,36.25 40,36.25" id="Fill-3966"></path>
                            <path d="M42.5,28.75 C42.18,28.75 41.86,28.625 41.615,28.375 L35.365,22.125 C34.8775,21.65 34.8775,20.85 35.365,20.375 C35.855,19.875 36.645,19.875 37.135,20.375 L43.385,26.625 C43.8725,27.1 43.8725,27.9 43.385,28.375 C43.14,28.625 42.82,28.75 42.5,28.75" id="Fill-3967"></path>
                            <path d="M22.5,48.75 C22.18,48.75 21.86,48.625 21.615,48.375 L15.365,42.125 C14.8775,41.65 14.8775,40.85 15.365,40.375 C15.855,39.875 16.645,39.875 17.135,40.375 L23.385,46.625 C23.8725,47.1 23.8725,47.9 23.385,48.375 C23.14,48.625 22.82,48.75 22.5,48.75" id="Fill-3968"></path>
                            <path d="M46.25,15 C45.93,15 45.61,14.875 45.365,14.625 L41.615,10.875 C41.1275,10.4 41.1275,9.6 41.615,9.125 C42.105,8.625 42.895,8.625 43.385,9.125 L47.135,12.875 C47.6225,13.35 47.6225,14.15 47.135,14.625 C46.89,14.875 46.57,15 46.25,15" id="Fill-3969"></path>
                        </g>
                    </g>
                </g>
            </g>
        </g>
    </g>
</svg>