<?xml version="1.0" encoding="UTF-8"?>
<svg width="63px" height="55px" viewBox="0 0 63 55" version="1.1" xmlns="http://www.w3.org/2000/svg" xmlns:xlink="http://www.w3.org/1999/xlink">
    <!-- Generator: Sketch 52.6 (67491) - http://www.bohemiancoding.com/sketch -->
    <title>Icon</title>
    <desc>Created with Sketch.</desc>
    <g id="Page-1" stroke="none" stroke-width="1" fill="none" fill-rule="evenodd">
        <g id="DAP---Healthcare-marketing-page" transform="translate(-948.000000, -10099.000000)" fill="#FFFFFF">
            <g id="Our-Customers" transform="translate(0.000000, 9327.000000)">
                <g id="Row-3" transform="translate(200.000000, 721.000000)">
                    <g id="3" transform="translate(642.000000, 0.000000)">
                        <g id="Icon" transform="translate(106.000000, 51.000000)">
                            <path d="M4.10869565,11 C3.35269565,11 2.73913043,11.605 2.73913043,12.375 L2.73913043,50.875 C2.73913043,51.645 3.35269565,52.25 4.10869565,52.25 L58.8913043,52.25 C59.6473043,52.25 60.2608696,51.645 60.2608696,50.875 L60.2608696,12.375 C60.2608696,11.605 59.6473043,11 58.8913043,11 L4.10869565,11 L4.10869565,11 Z M58.8913043,55 L4.10869565,55 C1.84343478,55 0,53.1575 0,50.875 L0,12.375 C0,10.0925 1.84343478,8.25 4.10869565,8.25 L58.8913043,8.25 C61.1565652,8.25 63,10.0925 63,12.375 L63,50.875 C63,53.1575 61.1565652,55 58.8913043,55 L58.8913043,55 Z" id="Fill-3980"></path>
                            <path d="M24.6521739,8.25 L38.3478261,8.25 L38.3478261,4.125 C38.3478261,3.355 37.7342609,2.75 36.9782609,2.75 L26.0217391,2.75 C25.2657391,2.75 24.6521739,3.355 24.6521739,4.125 L24.6521739,8.25 L24.6521739,8.25 Z M39.7173913,11 L23.2826087,11 C22.5266087,11 21.9130435,10.395 21.9130435,9.625 L21.9130435,4.125 C21.9130435,1.8425 23.7564783,0 26.0217391,0 L36.9782609,0 C39.2435217,0 41.0869565,1.8425 41.0869565,4.125 L41.0869565,9.625 C41.0869565,10.395 40.4733913,11 39.7173913,11 L39.7173913,11 Z" id="Fill-3981"></path>
                            <path d="M31.5,19.25 C24.7042174,19.25 19.173913,24.805 19.173913,31.625 C19.173913,38.445 24.7042174,44 31.5,44 C38.2957826,44 43.826087,38.445 43.826087,31.625 C43.826087,24.805 38.2957826,19.25 31.5,19.25 L31.5,19.25 Z M31.5,46.75 C23.1922174,46.75 16.4347826,39.9575 16.4347826,31.625 C16.4347826,23.2925 23.1922174,16.5 31.5,16.5 C39.8077826,16.5 46.5652174,23.2925 46.5652174,31.625 C46.5652174,39.9575 39.8077826,46.75 31.5,46.75 L31.5,46.75 Z" id="Fill-3982"></path>
                            <path d="M30.1304348,38.5 L32.8695652,38.5 L32.8695652,34.375 C32.8695652,33.605 33.4831304,33 34.2391304,33 L38.3478261,33 L38.3478261,30.25 L34.2391304,30.25 C33.4831304,30.25 32.8695652,29.645 32.8695652,28.875 L32.8695652,24.75 L30.1304348,24.75 L30.1304348,28.875 C30.1304348,29.645 29.5168696,30.25 28.7608696,30.25 L24.6521739,30.25 L24.6521739,33 L28.7608696,33 C29.5168696,33 30.1304348,33.605 30.1304348,34.375 L30.1304348,38.5 L30.1304348,38.5 Z M34.2391304,41.25 L28.7608696,41.25 C28.0048696,41.25 27.3913043,40.645 27.3913043,39.875 L27.3913043,35.75 L23.2826087,35.75 C22.5266087,35.75 21.9130435,35.145 21.9130435,34.375 L21.9130435,28.875 C21.9130435,28.105 22.5266087,27.5 23.2826087,27.5 L27.3913043,27.5 L27.3913043,23.375 C27.3913043,22.605 28.0048696,22 28.7608696,22 L34.2391304,22 C34.9951304,22 35.6086957,22.605 35.6086957,23.375 L35.6086957,27.5 L39.7173913,27.5 C40.4733913,27.5 41.0869565,28.105 41.0869565,28.875 L41.0869565,34.375 C41.0869565,35.145 40.4733913,35.75 39.7173913,35.75 L35.6086957,35.75 L35.6086957,39.875 C35.6086957,40.645 34.9951304,41.25 34.2391304,41.25 L34.2391304,41.25 Z" id="Fill-3983"></path>
                        </g>
                    </g>
                </g>
            </g>
        </g>
    </g>
</svg>