<?xml version="1.0" encoding="UTF-8"?>
<svg width="64px" height="56px" viewBox="0 0 64 56" version="1.1" xmlns="http://www.w3.org/2000/svg" xmlns:xlink="http://www.w3.org/1999/xlink">
    <!-- Generator: Sketch 52.6 (67491) - http://www.bohemiancoding.com/sketch -->
    <title>Icon</title>
    <desc>Created with Sketch.</desc>
    <g id="Page-1" stroke="none" stroke-width="1" fill="none" fill-rule="evenodd">
        <g id="DAP---Healthcare-marketing-page" transform="translate(-627.000000, -9882.000000)" fill="#FFFFFF">
            <g id="Our-Customers" transform="translate(0.000000, 9327.000000)">
                <g id="Row-2" transform="translate(200.000000, 506.000000)">
                    <g id="2" transform="translate(322.000000, 0.000000)">
                        <g id="Icon" transform="translate(105.000000, 49.000000)">
                            <path d="M36,42.6666667 L6.66666667,42.6666667 C2.98933333,42.6666667 0,39.68 0,36 L0,6.66666667 C0,2.98666667 2.98933333,0 6.66666667,0 L52,0 C55.6773333,0 58.6666667,2.98666667 58.6666667,6.66666667 L58.6666667,24 C58.6666667,24.7466667 58.0693333,25.3333333 57.3333333,25.3333333 C56.5973333,25.3333333 56,24.7466667 56,24 L56,6.66666667 C56,4.45333333 54.2053333,2.66666667 52,2.66666667 L6.66666667,2.66666667 C4.46133333,2.66666667 2.66666667,4.45333333 2.66666667,6.66666667 L2.66666667,36 C2.66666667,38.2133333 4.46133333,40 6.66666667,40 L36,40 C36.736,40 37.3333333,40.5866667 37.3333333,41.3333333 C37.3333333,42.08 36.736,42.6666667 36,42.6666667" id="Fill-2411"></path>
                            <path d="M2.66666667,16 L56,16 L56,10.6666667 L2.66666667,10.6666667 L2.66666667,16 Z M57.3333333,18.6666667 L1.33333333,18.6666667 C0.597333333,18.6666667 0,18.08 0,17.3333333 L0,9.33333333 C0,8.58666667 0.597333333,8 1.33333333,8 L57.3333333,8 C58.0693333,8 58.6666667,8.58666667 58.6666667,9.33333333 L58.6666667,17.3333333 C58.6666667,18.08 58.0693333,18.6666667 57.3333333,18.6666667 L57.3333333,18.6666667 Z" id="Fill-2412"></path>
                            <path d="M20,29.3333333 L9.33333333,29.3333333 C8.59733333,29.3333333 8,28.7466667 8,28 C8,27.2533333 8.59733333,26.6666667 9.33333333,26.6666667 L20,26.6666667 C20.736,26.6666667 21.3333333,27.2533333 21.3333333,28 C21.3333333,28.7466667 20.736,29.3333333 20,29.3333333" id="Fill-2413"></path>
                            <path d="M28,34.6666667 L9.33333333,34.6666667 C8.59733333,34.6666667 8,34.08 8,33.3333333 C8,32.5866667 8.59733333,32 9.33333333,32 L28,32 C28.736,32 29.3333333,32.5866667 29.3333333,33.3333333 C29.3333333,34.08 28.736,34.6666667 28,34.6666667" id="Fill-2414"></path>
                            <path d="M42.6666667,31.7066667 L42.6666667,46.6666667 C42.6666667,48.1866667 47.4826667,51.2533333 52,53.2266667 C56.5146667,51.2533333 61.3333333,48.1866667 61.3333333,46.6666667 L61.3333333,31.7066667 L52,29.3866667 L42.6666667,31.7066667 L42.6666667,31.7066667 Z M52,56 C51.8266667,56 51.6506667,55.9733333 51.488,55.8933333 C48.792,54.7733333 40,50.8 40,46.6666667 L40,30.6666667 C40,30.0533333 40.416,29.52 41.0106667,29.3866667 L51.6773333,26.72 C51.8906667,26.6666667 52.1093333,26.6666667 52.3226667,26.72 L62.9893333,29.3866667 C63.584,29.52 64,30.0533333 64,30.6666667 L64,46.6666667 C64,50.8 55.208,54.7733333 52.512,55.8933333 C52.3493333,55.9733333 52.1733333,56 52,56 L52,56 Z" id="Fill-2415"></path>
                            <path d="M48,40 L50.6666667,40 L50.6666667,35.2 L48,35.8666667 L48,40 L48,40 Z M52,42.6666667 L46.6666667,42.6666667 C45.9306667,42.6666667 45.3333333,42.08 45.3333333,41.3333333 L45.3333333,34.8266667 C45.3333333,34.2133333 45.7493333,33.68 46.344,33.5466667 L51.6773333,32.2133333 C52.0773333,32.1066667 52.496,32.1866667 52.8213333,32.4533333 C53.144,32.6933333 53.3333333,33.0933333 53.3333333,33.4933333 L53.3333333,41.3333333 C53.3333333,42.08 52.736,42.6666667 52,42.6666667 L52,42.6666667 Z" id="Fill-2416"></path>
                            <path d="M53.3333333,42.6666667 L53.3333333,46.6133333 C54.416,46 55.3626667,45.4133333 56,44.9333333 L56,42.6666667 L53.3333333,42.6666667 L53.3333333,42.6666667 Z M52,50.1333333 C51.7546667,50.1333333 51.5093333,50.08 51.2933333,49.9466667 C50.904,49.7066667 50.6666667,49.28 50.6666667,48.8 L50.6666667,41.3333333 C50.6666667,40.5866667 51.264,40 52,40 L57.3333333,40 C58.0693333,40 58.6666667,40.5866667 58.6666667,41.3333333 L58.6666667,45.5733333 C58.6666667,45.9466667 58.5066667,46.2933333 58.2266667,46.56 C57.1786667,47.4933333 55.0186667,48.8266667 52.5866667,50 C52.4,50.1066667 52.2,50.1333333 52,50.1333333 L52,50.1333333 Z" id="Fill-2417"></path>
                        </g>
                    </g>
                </g>
            </g>
        </g>
    </g>
</svg>