<?xml version="1.0" encoding="UTF-8"?>
<svg width="57px" height="52px" viewBox="0 0 57 52" version="1.1" xmlns="http://www.w3.org/2000/svg" xmlns:xlink="http://www.w3.org/1999/xlink">
    <!-- Generator: Sketch 52.6 (67491) - http://www.bohemiancoding.com/sketch -->
    <title>Icon</title>
    <desc>Created with Sketch.</desc>
    <g id="Page-1" stroke="none" stroke-width="1" fill="none" fill-rule="evenodd">
        <g id="DAP---Healthcare-marketing-page" transform="translate(-952.000000, -9678.000000)" fill="#FFFFFF">
            <g id="Our-Customers" transform="translate(0.000000, 9327.000000)">
                <g id="Row-1" transform="translate(200.000000, 300.000000)">
                    <g id="3" transform="translate(643.000000, 0.000000)">
                        <g id="Icon" transform="translate(109.000000, 51.000000)">
                            <path d="M5.9375,2.36363636 C3.973375,2.36363636 2.375,3.95436364 2.375,5.90909091 L2.375,46.0909091 C2.375,48.0456364 3.973375,49.6363636 5.9375,49.6363636 L51.0625,49.6363636 C53.026625,49.6363636 54.625,48.0456364 54.625,46.0909091 L54.625,5.90909091 C54.625,3.95436364 53.026625,2.36363636 51.0625,2.36363636 L5.9375,2.36363636 Z M51.0625,52 L5.9375,52 C2.66475,52 0,49.348 0,46.0909091 L0,5.90909091 C0,2.652 2.66475,0 5.9375,0 L51.0625,0 C54.33525,0 57,2.652 57,5.90909091 L57,46.0909091 C57,49.348 54.33525,52 51.0625,52 L51.0625,52 Z" id="Fill-1334"></path>
                            <path d="M55.8125,11.8181818 L1.1875,11.8181818 C0.532,11.8181818 0,11.2887273 0,10.6363636 C0,9.984 0.532,9.45454545 1.1875,9.45454545 L55.8125,9.45454545 C56.468,9.45454545 57,9.984 57,10.6363636 C57,11.2887273 56.468,11.8181818 55.8125,11.8181818" id="Fill-1336"></path>
                            <path d="M7.125,5.90909091 C7.125,6.56145455 6.593,7.09090909 5.9375,7.09090909 C5.282,7.09090909 4.75,6.56145455 4.75,5.90909091 C4.75,5.25672727 5.282,4.72727273 5.9375,4.72727273 C6.593,4.72727273 7.125,5.25672727 7.125,5.90909091" id="Fill-1338"></path>
                            <path d="M11.875,5.90909091 C11.875,6.56145455 11.343,7.09090909 10.6875,7.09090909 C10.032,7.09090909 9.5,6.56145455 9.5,5.90909091 C9.5,5.25672727 10.032,4.72727273 10.6875,4.72727273 C11.343,4.72727273 11.875,5.25672727 11.875,5.90909091" id="Fill-1340"></path>
                            <path d="M16.625,5.90909091 C16.625,6.56145455 16.093,7.09090909 15.4375,7.09090909 C14.782,7.09090909 14.25,6.56145455 14.25,5.90909091 C14.25,5.25672727 14.782,4.72727273 15.4375,4.72727273 C16.093,4.72727273 16.625,5.25672727 16.625,5.90909091" id="Fill-1342"></path>
                            <path d="M22.5625,44.9090909 C22.531625,44.9090909 22.498375,44.9090909 22.465125,44.9067273 C21.937875,44.8618182 21.50325,44.4765455 21.39875,43.9589091 L17.430125,24.2225455 L14.1645,32.3487273 C13.984,32.7954545 13.549375,33.0909091 13.0625,33.0909091 L1.1875,33.0909091 C0.532,33.0909091 0,32.5614545 0,31.9090909 C0,31.2567273 0.532,30.7272727 1.1875,30.7272727 L12.25975,30.7272727 L16.7105,19.6512727 C16.90525,19.1667273 17.396875,18.8641818 17.92175,18.9138182 C18.44425,18.9610909 18.874125,19.3463636 18.97625,19.8592727 L22.911625,39.4372727 L28.576,24.4021818 C28.75175,23.9341818 29.203,23.6789091 29.708875,23.6363636 C30.212375,23.6458182 30.654125,23.9696364 30.81325,24.4447273 L34.273625,34.7761818 L38.035625,19.8049091 C38.159125,19.3061818 38.59375,18.9469091 39.10675,18.9114545 C39.61975,18.8854545 40.0995,19.1761818 40.2895,19.6512727 L44.74025,30.7272727 L55.8125,30.7272727 C56.468,30.7272727 57,31.2567273 57,31.9090909 C57,32.5614545 56.468,33.0909091 55.8125,33.0909091 L43.9375,33.0909091 C43.450625,33.0909091 43.016,32.7954545 42.8355,32.3487273 L39.44875,23.9247273 L35.589375,39.286 C35.461125,39.7965455 35.009875,40.1605455 34.482625,40.1818182 C33.983875,40.2409091 33.478,39.8721818 33.31175,39.3734545 L29.621,28.3589091 L23.674,44.1432727 C23.500625,44.6065455 23.054125,44.9090909 22.5625,44.9090909" id="Fill-1344"></path>
                        </g>
                    </g>
                </g>
            </g>
        </g>
    </g>
</svg>