<?xml version="1.0" encoding="UTF-8"?>
<svg width="40px" height="57px" viewBox="0 0 40 57" version="1.1" xmlns="http://www.w3.org/2000/svg" xmlns:xlink="http://www.w3.org/1999/xlink">
    <!-- Generator: Sketch 52.6 (67491) - http://www.bohemiancoding.com/sketch -->
    <title>Group 97</title>
    <desc>Created with Sketch.</desc>
    <g id="Page-1" stroke="none" stroke-width="1" fill="none" fill-rule="evenodd">
        <g id="DAP---Healthcare-marketing-page" transform="translate(-317.000000, -10098.000000)" fill="#FFFFFF">
            <g id="Our-Customers" transform="translate(0.000000, 9327.000000)">
                <g id="Row-3" transform="translate(200.000000, 721.000000)">
                    <g id="1">
                        <g id="Group-97" transform="translate(117.000000, 50.000000)">
                            <g id="Group-94">
                                <path d="M5.88235294,2.375 C3.93647059,2.375 2.35294118,3.96625 2.35294118,5.9375 L2.35294118,46.3125 C2.35294118,50.89625 6.04705882,54.625 10.5882353,54.625 L29.4117647,54.625 C33.9529412,54.625 37.6470588,50.89625 37.6470588,46.3125 L37.6470588,5.9375 C37.6470588,3.96625 36.0635294,2.375 34.1176471,2.375 L5.88235294,2.375 L5.88235294,2.375 Z M29.4117647,57 L10.5882353,57 C4.75058824,57 0,52.2025 0,46.3125 L0,5.9375 C0,2.66 2.64,0 5.88235294,0 L34.1176471,0 C37.36,0 40,2.66 40,5.9375 L40,46.3125 C40,52.2025 35.2494118,57 29.4117647,57 L29.4117647,57 Z" id="Fill-4054"></path>
                                <path d="M5.92941176,38 C5.28,38 4.74117647,37.4775 4.74117647,36.8125 C4.74117647,36.1475 5.25647059,35.625 5.90588235,35.625 L5.92941176,35.625 C6.57882353,35.625 7.10588235,36.1475 7.10588235,36.8125 C7.10588235,37.4775 6.57882353,38 5.92941176,38" id="Fill-4055"></path>
                                <path d="M10.6352941,38 C9.98588235,38 9.44705882,37.4775 9.44705882,36.8125 C9.44705882,36.1475 9.96235294,35.625 10.6117647,35.625 L10.6352941,35.625 C11.2847059,35.625 11.8117647,36.1475 11.8117647,36.8125 C11.8117647,37.4775 11.2847059,38 10.6352941,38" id="Fill-4056"></path>
                                <path d="M15.3411765,38 C14.6917647,38 14.1529412,37.4775 14.1529412,36.8125 C14.1529412,36.1475 14.6682353,35.625 15.3176471,35.625 L15.3411765,35.625 C15.9905882,35.625 16.5176471,36.1475 16.5176471,36.8125 C16.5176471,37.4775 15.9905882,38 15.3411765,38" id="Fill-4057"></path>
                                <path d="M20.0470588,38 C19.3976471,38 18.8588235,37.4775 18.8588235,36.8125 C18.8588235,36.1475 19.3741176,35.625 20.0235294,35.625 L20.0470588,35.625 C20.6964706,35.625 21.2235294,36.1475 21.2235294,36.8125 C21.2235294,37.4775 20.6964706,38 20.0470588,38" id="Fill-4058"></path>
                                <path d="M24.7529412,38 C24.1035294,38 23.5647059,37.4775 23.5647059,36.8125 C23.5647059,36.1475 24.08,35.625 24.7294118,35.625 L24.7529412,35.625 C25.4023529,35.625 25.9294118,36.1475 25.9294118,36.8125 C25.9294118,37.4775 25.4023529,38 24.7529412,38" id="Fill-4059"></path>
                                <path d="M29.4588235,38 C28.8094118,38 28.2705882,37.4775 28.2705882,36.8125 C28.2705882,36.1475 28.7858824,35.625 29.4352941,35.625 L29.4588235,35.625 C30.1082353,35.625 30.6352941,36.1475 30.6352941,36.8125 C30.6352941,37.4775 30.1082353,38 29.4588235,38" id="Fill-4060"></path>
                                <path d="M34.1647059,38 C33.5152941,38 32.9764706,37.4775 32.9764706,36.8125 C32.9764706,36.1475 33.4917647,35.625 34.1411765,35.625 L34.1647059,35.625 C34.8141176,35.625 35.3411765,36.1475 35.3411765,36.8125 C35.3411765,37.4775 34.8141176,38 34.1647059,38" id="Fill-4061"></path>
                                <path d="M8.28235294,42.75 C7.63294118,42.75 7.09411765,42.2275 7.09411765,41.5625 C7.09411765,40.8975 7.60941176,40.375 8.25882353,40.375 L8.28235294,40.375 C8.93176471,40.375 9.45882353,40.8975 9.45882353,41.5625 C9.45882353,42.2275 8.93176471,42.75 8.28235294,42.75" id="Fill-4062"></path>
                                <path d="M12.9882353,42.75 C12.3388235,42.75 11.8,42.2275 11.8,41.5625 C11.8,40.8975 12.3152941,40.375 12.9647059,40.375 L12.9882353,40.375 C13.6376471,40.375 14.1647059,40.8975 14.1647059,41.5625 C14.1647059,42.2275 13.6376471,42.75 12.9882353,42.75" id="Fill-4063"></path>
                                <path d="M17.6941176,42.75 C17.0447059,42.75 16.5058824,42.2275 16.5058824,41.5625 C16.5058824,40.8975 17.0211765,40.375 17.6705882,40.375 L17.6941176,40.375 C18.3435294,40.375 18.8705882,40.8975 18.8705882,41.5625 C18.8705882,42.2275 18.3435294,42.75 17.6941176,42.75" id="Fill-4064"></path>
                                <path d="M22.4,42.75 C21.7505882,42.75 21.2117647,42.2275 21.2117647,41.5625 C21.2117647,40.8975 21.7270588,40.375 22.3764706,40.375 L22.4,40.375 C23.0494118,40.375 23.5764706,40.8975 23.5764706,41.5625 C23.5764706,42.2275 23.0494118,42.75 22.4,42.75" id="Fill-4065"></path>
                                <path d="M27.1058824,42.75 C26.4564706,42.75 25.9176471,42.2275 25.9176471,41.5625 C25.9176471,40.8975 26.4329412,40.375 27.0823529,40.375 L27.1058824,40.375 C27.7552941,40.375 28.2823529,40.8975 28.2823529,41.5625 C28.2823529,42.2275 27.7552941,42.75 27.1058824,42.75" id="Fill-4066"></path>
                                <path d="M31.8117647,42.75 C31.1623529,42.75 30.6235294,42.2275 30.6235294,41.5625 C30.6235294,40.8975 31.1388235,40.375 31.7882353,40.375 L31.8117647,40.375 C32.4611765,40.375 32.9882353,40.8975 32.9882353,41.5625 C32.9882353,42.2275 32.4611765,42.75 31.8117647,42.75" id="Fill-4067"></path>
                                <path d="M5.92941176,47.5 C5.28,47.5 4.74117647,46.9775 4.74117647,46.3125 C4.74117647,45.6475 5.25647059,45.125 5.90588235,45.125 L5.92941176,45.125 C6.57882353,45.125 7.10588235,45.6475 7.10588235,46.3125 C7.10588235,46.9775 6.57882353,47.5 5.92941176,47.5" id="Fill-4068"></path>
                                <path d="M10.6352941,47.5 C9.98588235,47.5 9.44705882,46.9775 9.44705882,46.3125 C9.44705882,45.6475 9.96235294,45.125 10.6117647,45.125 L10.6352941,45.125 C11.2847059,45.125 11.8117647,45.6475 11.8117647,46.3125 C11.8117647,46.9775 11.2847059,47.5 10.6352941,47.5" id="Fill-4069"></path>
                                <path d="M15.3411765,47.5 C14.6917647,47.5 14.1529412,46.9775 14.1529412,46.3125 C14.1529412,45.6475 14.6682353,45.125 15.3176471,45.125 L15.3411765,45.125 C15.9905882,45.125 16.5176471,45.6475 16.5176471,46.3125 C16.5176471,46.9775 15.9905882,47.5 15.3411765,47.5" id="Fill-4070"></path>
                                <path d="M20.0470588,47.5 C19.3976471,47.5 18.8588235,46.9775 18.8588235,46.3125 C18.8588235,45.6475 19.3741176,45.125 20.0235294,45.125 L20.0470588,45.125 C20.6964706,45.125 21.2235294,45.6475 21.2235294,46.3125 C21.2235294,46.9775 20.6964706,47.5 20.0470588,47.5" id="Fill-4071"></path>
                                <path d="M24.7529412,47.5 C24.1035294,47.5 23.5647059,46.9775 23.5647059,46.3125 C23.5647059,45.6475 24.08,45.125 24.7294118,45.125 L24.7529412,45.125 C25.4023529,45.125 25.9294118,45.6475 25.9294118,46.3125 C25.9294118,46.9775 25.4023529,47.5 24.7529412,47.5" id="Fill-4072"></path>
                                <path d="M29.4588235,47.5 C28.8094118,47.5 28.2705882,46.9775 28.2705882,46.3125 C28.2705882,45.6475 28.7858824,45.125 29.4352941,45.125 L29.4588235,45.125 C30.1082353,45.125 30.6352941,45.6475 30.6352941,46.3125 C30.6352941,46.9775 30.1082353,47.5 29.4588235,47.5" id="Fill-4073"></path>
                                <path d="M34.1647059,47.5 C33.5152941,47.5 32.9764706,46.9775 32.9764706,46.3125 C32.9764706,45.6475 33.4917647,45.125 34.1411765,45.125 L34.1647059,45.125 C34.8141176,45.125 35.3411765,45.6475 35.3411765,46.3125 C35.3411765,46.9775 34.8141176,47.5 34.1647059,47.5" id="Fill-4074"></path>
                                <path d="M8.28235294,52.25 C7.63294118,52.25 7.09411765,51.7275 7.09411765,51.0625 C7.09411765,50.3975 7.60941176,49.875 8.25882353,49.875 L8.28235294,49.875 C8.93176471,49.875 9.45882353,50.3975 9.45882353,51.0625 C9.45882353,51.7275 8.93176471,52.25 8.28235294,52.25" id="Fill-4075"></path>
                                <path d="M12.9882353,52.25 C12.3388235,52.25 11.8,51.7275 11.8,51.0625 C11.8,50.3975 12.3152941,49.875 12.9647059,49.875 L12.9882353,49.875 C13.6376471,49.875 14.1647059,50.3975 14.1647059,51.0625 C14.1647059,51.7275 13.6376471,52.25 12.9882353,52.25" id="Fill-4076"></path>
                                <path d="M27.1058824,52.25 C26.4564706,52.25 25.9176471,51.7275 25.9176471,51.0625 C25.9176471,50.3975 26.4329412,49.875 27.0823529,49.875 L27.1058824,49.875 C27.7552941,49.875 28.2823529,50.3975 28.2823529,51.0625 C28.2823529,51.7275 27.7552941,52.25 27.1058824,52.25" id="Fill-4077"></path>
                                <path d="M31.8117647,52.25 C31.1623529,52.25 30.6235294,51.7275 30.6235294,51.0625 C30.6235294,50.3975 31.1388235,49.875 31.7882353,49.875 L31.8117647,49.875 C32.4611765,49.875 32.9882353,50.3975 32.9882353,51.0625 C32.9882353,51.7275 32.4611765,52.25 31.8117647,52.25" id="Fill-4078"></path>
                                <path d="M22.3529412,52.25 L17.6470588,52.25 C16.9976471,52.25 16.4705882,51.7275 16.4705882,51.0625 C16.4705882,50.3975 16.9976471,49.875 17.6470588,49.875 L22.3529412,49.875 C23.0023529,49.875 23.5294118,50.3975 23.5294118,51.0625 C23.5294118,51.7275 23.0023529,52.25 22.3529412,52.25" id="Fill-4079"></path>
                                <path d="M7.05882353,30.875 L32.9411765,30.875 L32.9411765,11.875 L7.05882353,11.875 L7.05882353,30.875 Z M34.1176471,33.25 L5.88235294,33.25 C5.23294118,33.25 4.70588235,32.7275 4.70588235,32.0625 L4.70588235,10.6875 C4.70588235,10.0225 5.23294118,9.5 5.88235294,9.5 L34.1176471,9.5 C34.7670588,9.5 35.2941176,10.0225 35.2941176,10.6875 L35.2941176,32.0625 C35.2941176,32.7275 34.7670588,33.25 34.1176471,33.25 L34.1176471,33.25 Z" id="Fill-4080"></path>
                                <path d="M19.1428571,25.2857143 L20.8571429,25.2857143 L20.8571429,22.7142857 C20.8571429,22.2342857 21.2411429,21.8571429 21.7142857,21.8571429 L24.2857143,21.8571429 L24.2857143,20.1428571 L21.7142857,20.1428571 C21.2411429,20.1428571 20.8571429,19.7657143 20.8571429,19.2857143 L20.8571429,16.7142857 L19.1428571,16.7142857 L19.1428571,19.2857143 C19.1428571,19.7657143 18.7588571,20.1428571 18.2857143,20.1428571 L15.7142857,20.1428571 L15.7142857,21.8571429 L18.2857143,21.8571429 C18.7588571,21.8571429 19.1428571,22.2342857 19.1428571,22.7142857 L19.1428571,25.2857143 L19.1428571,25.2857143 Z M21.7142857,27 L18.2857143,27 C17.8125714,27 17.4285714,26.6228571 17.4285714,26.1428571 L17.4285714,23.5714286 L14.8571429,23.5714286 C14.384,23.5714286 14,23.1942857 14,22.7142857 L14,19.2857143 C14,18.8057143 14.384,18.4285714 14.8571429,18.4285714 L17.4285714,18.4285714 L17.4285714,15.8571429 C17.4285714,15.3771429 17.8125714,15 18.2857143,15 L21.7142857,15 C22.1874286,15 22.5714286,15.3771429 22.5714286,15.8571429 L22.5714286,18.4285714 L25.1428571,18.4285714 C25.616,18.4285714 26,18.8057143 26,19.2857143 L26,22.7142857 C26,23.1942857 25.616,23.5714286 25.1428571,23.5714286 L22.5714286,23.5714286 L22.5714286,26.1428571 C22.5714286,26.6228571 22.1874286,27 21.7142857,27 L21.7142857,27 Z" id="Fill-3983"></path>
                                <path d="M25.9411765,7.125 L14.1764706,7.125 C13.5270588,7.125 13,6.6025 13,5.9375 C13,5.2725 13.5270588,4.75 14.1764706,4.75 L25.9411765,4.75 C26.5905882,4.75 27.1176471,5.2725 27.1176471,5.9375 C27.1176471,6.6025 26.5905882,7.125 25.9411765,7.125" id="Fill-4081"></path>
                            </g>
                        </g>
                    </g>
                </g>
            </g>
        </g>
    </g>
</svg>