<?xml version="1.0" encoding="UTF-8"?>
<svg width="47px" height="60px" viewBox="0 0 47 60" version="1.1" xmlns="http://www.w3.org/2000/svg" xmlns:xlink="http://www.w3.org/1999/xlink">
    <!-- Generator: Sketch 52.6 (67491) - http://www.bohemiancoding.com/sketch -->
    <title>Icon</title>
    <desc>Created with Sketch.</desc>
    <g id="Page-1" stroke="none" stroke-width="1" fill="none" fill-rule="evenodd">
        <g id="DAP---Healthcare-marketing-page" transform="translate(-1279.000000, -9674.000000)" fill="#FFFFFF">
            <g id="Our-Customers" transform="translate(0.000000, 9327.000000)">
                <g id="Row-1" transform="translate(200.000000, 300.000000)">
                    <g id="4" transform="translate(965.000000, 0.000000)">
                        <g id="Icon" transform="translate(114.000000, 47.000000)">
                            <path d="M23.4876316,2.775 C18.9063684,3.225 17.4196842,4.175 16.9546316,4.625 C16.4302105,5.175 16.2669474,5.8 16.5044211,6.375 C16.7888947,7.075 17.5730526,7.5 18.5526316,7.5 C19.2873158,7.5 20.3460526,6.275 21.3701579,5.075 C22.0108421,4.325 22.7034737,3.525 23.4876316,2.775 L23.4876316,2.775 Z M25.9736842,40 C25.2909474,40 24.7368421,39.45 24.7368421,38.75 C24.7368421,38.05 25.2909474,37.5 25.9736842,37.5 C32.4621579,37.5 44.5263158,26.575 44.5263158,16.25 C44.5263158,6.1 36.5313684,2.5 29.6842105,2.5 C26.8444211,2.5 25.0114211,4.65 23.2402632,6.7 C21.7882105,8.4 20.4177895,10 18.5526316,10 C16.5538947,10 14.8940526,8.975 14.2187368,7.325 C13.5978421,5.825 13.9763158,4.1 15.2032632,2.875 C17.1129474,0.95 21.8500526,0 29.6842105,0 C38.3025263,0 47,5.025 47,16.25 C47,27.5 34.4683158,40 25.9736842,40 L25.9736842,40 Z" id="Fill-4004"></path>
                            <path d="M33.3947368,60 C32.712,60 32.1578947,59.45 32.1578947,58.75 C32.1578947,53.775 28.2667895,50.75 20.9026316,50 C12.1952632,49.1 7.79210526,45.6 7.94052632,42.6 C8.00484211,41.3 9.01657895,40 11.1315789,40 C11.8143158,40 12.3684211,40.55 12.3684211,41.25 C12.3684211,41.95 11.8143158,42.5 11.1315789,42.5 C10.7407368,42.5 10.4166842,42.6 10.4117368,42.725 C10.3597895,43.8 13.3727368,46.725 21.15,47.5 C32.8802105,48.7 34.6315789,55.075 34.6315789,58.75 C34.6315789,59.45 34.0774737,60 33.3947368,60" id="Fill-4005"></path>
                            <path d="M17.3157895,42.775 L19.7894737,43.4 L19.7894737,36.05 C19.7894737,35.425 20.2421579,34.9 20.8506842,34.825 C28.294,33.725 34.0057368,27.475 34.5821053,20 L2.52315789,20 C3.09952632,27.475 8.81126316,33.725 16.2545789,34.825 C16.8631053,34.9 17.3157895,35.425 17.3157895,36.05 L17.3157895,42.775 L17.3157895,42.775 Z M21.0263158,46.25 C20.9248947,46.25 20.8259474,46.25 20.727,46.225 L15.7796316,44.975 C15.228,44.825 14.8421053,44.325 14.8421053,43.75 L14.8421053,37.1 C6.30789474,35.35 0,27.65 0,18.75 C0,18.05 0.554105263,17.5 1.23684211,17.5 L35.8684211,17.5 C36.5511579,17.5 37.1052632,18.05 37.1052632,18.75 C37.1052632,27.65 30.7973684,35.35 22.2631579,37.1 L22.2631579,45 C22.2631579,45.375 22.0875263,45.75 21.7882105,45.975 C21.5680526,46.15 21.2984211,46.25 21.0263158,46.25 L21.0263158,46.25 Z" id="Fill-4006"></path>
                            <path d="M12.7419474,57.5 L24.3633158,57.5 L20.3411053,54.8 C19.9947895,54.55 19.7894737,54.175 19.7894737,53.75 L19.7894737,53.475 L17.3157895,52.85 L17.3157895,53.75 C17.3157895,54.175 17.1104737,54.55 16.7641579,54.8 L12.7419474,57.5 L12.7419474,57.5 Z M28.4473684,60 L8.65789474,60 C8.11368421,60 7.63131579,59.65 7.473,59.1 C7.31715789,58.575 7.52,58.025 7.97268421,57.7 L14.8421053,53.075 L14.8421053,51.25 C14.8421053,50.875 15.0177368,50.5 15.3170526,50.275 C15.6188421,50.025 16.0121579,49.95 16.3782632,50.025 L21.3256316,51.275 C21.8772632,51.425 22.2631579,51.925 22.2631579,52.5 L22.2631579,53.075 L29.1325789,57.7 C29.5852632,58.025 29.7881053,58.575 29.6322632,59.1 C29.4739474,59.65 28.9915789,60 28.4473684,60 L28.4473684,60 Z" id="Fill-4007"></path>
                            <path d="M13.6052632,12.5 L11.1315789,12.5 C10.4488421,12.5 9.89473684,11.95 9.89473684,11.25 C9.89473684,10.55 10.4488421,10 11.1315789,10 L13.0932105,10 L15.2032632,7.875 C15.6881053,7.375 16.4697895,7.375 16.9546316,7.875 C17.437,8.35 17.437,9.15 16.9546316,9.625 L14.4809474,12.125 C14.2484211,12.375 13.9342632,12.5 13.6052632,12.5" id="Fill-4008"></path>
                            <path d="M13.6052632,15 C12.9225263,15 12.3684211,14.45 12.3684211,13.75 L12.3684211,11.25 C12.3684211,10.55 12.9225263,10 13.6052632,10 C14.288,10 14.8421053,10.55 14.8421053,11.25 L14.8421053,13.75 C14.8421053,14.45 14.288,15 13.6052632,15" id="Fill-4009"></path>
                        </g>
                    </g>
                </g>
            </g>
        </g>
    </g>
</svg>