<?xml version="1.0" encoding="UTF-8"?>
<svg width="57px" height="57px" viewBox="0 0 57 57" version="1.1" xmlns="http://www.w3.org/2000/svg" xmlns:xlink="http://www.w3.org/1999/xlink">
    <!-- Generator: Sketch 52.6 (67491) - http://www.bohemiancoding.com/sketch -->
    <title>Icon</title>
    <desc>Created with Sketch.</desc>
    <g id="Page-1" stroke="none" stroke-width="1" fill="none" fill-rule="evenodd">
        <g id="DAP---Healthcare-marketing-page" transform="translate(-952.000000, -9881.000000)" fill="#FFFFFF">
            <g id="Our-Customers" transform="translate(0.000000, 9327.000000)">
                <g id="Row-2" transform="translate(200.000000, 506.000000)">
                    <g id="3" transform="translate(642.000000, 0.000000)">
                        <g id="Icon" transform="translate(110.000000, 48.000000)">
                            <path d="M43.9375,52.25 C45.284125,52.25 46.4645,53.012375 47.05825,54.15475 C48.594875,53.67975 50.005625,52.850875 51.20975,51.7085 C50.537625,50.627875 50.4735,49.2385 51.136125,48.09375 C51.796375,46.946625 52.998125,46.303 54.309125,46.348125 C54.5205,45.50975 54.625,44.714125 54.625,43.9375 C54.625,43.160875 54.5205,42.36525 54.309125,41.526875 C53.0005,41.56725 51.796375,40.926 51.136125,39.78125 C50.4735,38.6365 50.537625,37.247125 51.20975,36.1665 C50.005625,35.024125 48.594875,34.19525 47.05825,33.72025 C46.4645,34.862625 45.284125,35.625 43.9375,35.625 C42.590875,35.625 41.4105,34.862625 40.81675,33.72025 C39.280125,34.19525 37.869375,35.024125 36.66525,36.1665 C37.337375,37.247125 37.4015,38.6365 36.738875,39.78125 C36.07625,40.926 34.857875,41.564875 33.565875,41.526875 C33.3545,42.362875 33.25,43.160875 33.25,43.9375 C33.25,44.714125 33.3545,45.50975 33.565875,46.348125 C34.86025,46.305375 36.07625,46.949 36.738875,48.09375 C37.4015,49.2385 37.337375,50.627875 36.66525,51.7085 C37.869375,52.850875 39.280125,53.67975 40.81675,54.15475 C41.4105,53.012375 42.590875,52.25 43.9375,52.25 M46.265,56.764875 C46.01325,56.764875 45.76625,56.6865 45.559625,56.5345 C45.29125,56.335 45.117875,56.031 45.08225,55.700875 C45.0205,55.08575 44.528875,54.625 43.9375,54.625 C43.346125,54.625 42.8545,55.08575 42.79275,55.700875 C42.757125,56.031 42.58375,56.335 42.315375,56.5345 C42.047,56.731625 41.70025,56.807625 41.37725,56.7435 C38.59375,56.190125 36.1,54.731875 34.162,52.527875 C33.9435,52.280875 33.839,51.953125 33.87225,51.623 C33.9055,51.29525 34.074125,50.993625 34.33775,50.7965 C34.83175,50.426 34.976625,49.7895 34.682125,49.28125 C34.39,48.775375 33.765375,48.580625 33.200125,48.8205 C32.8985,48.94875 32.554125,48.946375 32.2525,48.811 C31.950875,48.675625 31.718125,48.4215 31.613625,48.108 C31.11725,46.645 30.875,45.279375 30.875,43.9375 C30.875,42.595625 31.11725,41.23 31.613625,39.767 C31.718125,39.4535 31.950875,39.199375 32.2525,39.064 C32.55175,38.928625 32.896125,38.923875 33.200125,39.0545 C33.763,39.294375 34.387625,39.099625 34.682125,38.59375 C34.976625,38.0855 34.83175,37.449 34.33775,37.0785 C34.074125,36.881375 33.9055,36.57975 33.87225,36.252 C33.839,35.921875 33.9435,35.594125 34.162,35.347125 C36.1,33.143125 38.59375,31.684875 41.37725,31.1315 C41.702625,31.062625 42.047,31.141 42.315375,31.3405 C42.58375,31.54 42.757125,31.841625 42.79275,32.174125 C42.8545,32.78925 43.346125,33.25 43.9375,33.25 C44.528875,33.25 45.0205,32.78925 45.08225,32.174125 C45.117875,31.841625 45.29125,31.54 45.559625,31.3405 C45.828,31.141 46.167625,31.06025 46.49775,31.1315 C49.28125,31.684875 51.775,33.143125 53.713,35.347125 C53.9315,35.594125 54.036,35.921875 54.00275,36.252 C53.9695,36.57975 53.800875,36.881375 53.53725,37.0785 C53.04325,37.449 52.898375,38.0855 53.192875,38.59375 C53.487375,39.102 54.114375,39.29675 54.674875,39.0545 C54.978875,38.92625 55.32325,38.928625 55.6225,39.064 C55.924125,39.199375 56.156875,39.4535 56.261375,39.767 C56.75775,41.23 57,42.595625 57,43.9375 C57,45.279375 56.75775,46.645 56.261375,48.108 C56.156875,48.4215 55.924125,48.675625 55.6225,48.811 C55.320875,48.944 54.9765,48.94875 54.674875,48.8205 C54.112,48.57825 53.487375,48.775375 53.192875,49.28125 C52.898375,49.7895 53.04325,50.426 53.53725,50.7965 C53.800875,50.993625 53.9695,51.29525 54.00275,51.623 C54.036,51.953125 53.9315,52.280875 53.713,52.527875 C51.775,54.731875 49.28125,56.190125 46.49775,56.7435 C46.419375,56.75775 46.343375,56.764875 46.265,56.764875" id="Fill-1670"></path>
                            <path d="M43.9375,40.375 C41.973375,40.375 40.375,41.973375 40.375,43.9375 C40.375,45.901625 41.973375,47.5 43.9375,47.5 C45.901625,47.5 47.5,45.901625 47.5,43.9375 C47.5,41.973375 45.901625,40.375 43.9375,40.375 M43.9375,49.875 C40.66475,49.875 38,47.21025 38,43.9375 C38,40.66475 40.66475,38 43.9375,38 C47.21025,38 49.875,40.66475 49.875,43.9375 C49.875,47.21025 47.21025,49.875 43.9375,49.875" id="Fill-1672"></path>
                            <path d="M27.3125,52.25 L5.9375,52.25 C2.66475,52.25 0,49.58525 0,46.3125 L0,5.9375 C0,2.66475 2.66475,0 5.9375,0 L46.3125,0 C49.58525,0 52.25,2.66475 52.25,5.9375 L52.25,28.5 C52.25,29.1555 51.718,29.6875 51.0625,29.6875 C50.407,29.6875 49.875,29.1555 49.875,28.5 L49.875,5.9375 C49.875,3.973375 48.276625,2.375 46.3125,2.375 L5.9375,2.375 C3.973375,2.375 2.375,3.973375 2.375,5.9375 L2.375,46.3125 C2.375,48.276625 3.973375,49.875 5.9375,49.875 L27.3125,49.875 C27.968,49.875 28.5,50.407 28.5,51.0625 C28.5,51.718 27.968,52.25 27.3125,52.25" id="Fill-1674"></path>
                            <path d="M51.0625,11.875 L1.1875,11.875 C0.532,11.875 0,11.343 0,10.6875 C0,10.032 0.532,9.5 1.1875,9.5 L51.0625,9.5 C51.718,9.5 52.25,10.032 52.25,10.6875 C52.25,11.343 51.718,11.875 51.0625,11.875" id="Fill-1676"></path>
                            <path d="M7.125,5.9375 C7.125,6.593 6.593,7.125 5.9375,7.125 C5.282,7.125 4.75,6.593 4.75,5.9375 C4.75,5.282 5.282,4.75 5.9375,4.75 C6.593,4.75 7.125,5.282 7.125,5.9375" id="Fill-1678"></path>
                            <path d="M11.875,5.9375 C11.875,6.593 11.343,7.125 10.6875,7.125 C10.032,7.125 9.5,6.593 9.5,5.9375 C9.5,5.282 10.032,4.75 10.6875,4.75 C11.343,4.75 11.875,5.282 11.875,5.9375" id="Fill-1680"></path>
                            <path d="M16.625,5.9375 C16.625,6.593 16.093,7.125 15.4375,7.125 C14.782,7.125 14.25,6.593 14.25,5.9375 C14.25,5.282 14.782,4.75 15.4375,4.75 C16.093,4.75 16.625,5.282 16.625,5.9375" id="Fill-1682"></path>
                        </g>
                    </g>
                </g>
            </g>
        </g>
    </g>
</svg>