<?xml version="1.0" encoding="UTF-8"?>
<svg width="50px" height="60px" viewBox="0 0 50 60" version="1.1" xmlns="http://www.w3.org/2000/svg" xmlns:xlink="http://www.w3.org/1999/xlink">
    <!-- Generator: Sketch 53 (72520) - https://sketchapp.com -->
    <title>Group 44</title>
    <desc>Created with Sketch.</desc>
    <g id="Page-1" stroke="none" stroke-width="1" fill="none" fill-rule="evenodd">
        <g id="DAP---Fintech-Marketing-" transform="translate(-634.000000, -9169.000000)" fill="#FFFFFF">
            <g id="Our-Customers" transform="translate(0.000000, 8621.000000)">
                <g id="Row-2" transform="translate(200.000000, 506.000000)">
                    <g id="2" transform="translate(322.000000, 0.000000)">
                        <g id="Group-44" transform="translate(112.000000, 42.000000)">
                            <path d="M43.75,37.5 C41.6825,37.5 40,39.1825 40,41.25 C40,43.3175 41.6825,45 43.75,45 C45.8175,45 47.5,43.3175 47.5,41.25 C47.5,39.1825 45.8175,37.5 43.75,37.5 L43.75,37.5 Z M43.75,47.5 C40.305,47.5 37.5,44.695 37.5,41.25 C37.5,37.805 40.305,35 43.75,35 C47.195,35 50,37.805 50,41.25 C50,44.695 47.195,47.5 43.75,47.5 L43.75,47.5 Z" id="Fill-1237"></path>
                            <path d="M48.75,60 C48.56,60 48.3675,59.955 48.19,59.8675 L43.75,57.6475 L39.31,59.8675 C38.8825,60.0825 38.3725,60.035 37.99,59.7425 C37.6125,59.4525 37.43,58.9725 37.525,58.505 L40.025,46.005 C40.1575,45.3275 40.8075,44.8775 41.495,45.025 C42.1725,45.16 42.61,45.8175 42.475,46.495 L40.4775,56.49 L43.19,55.1325 C43.5425,54.955 43.9575,54.955 44.31,55.1325 L47.0225,56.49 L45.025,46.495 C44.89,45.8175 45.3275,45.16 46.005,45.025 C46.685,44.88 47.34,45.3275 47.475,46.005 L49.975,58.505 C50.07,58.9725 49.8875,59.4525 49.51,59.7425 C49.2875,59.9125 49.0175,60 48.75,60" id="Fill-1238"></path>
                            <path d="M33.75,55 L1.25,55 C0.56,55 0,54.44 0,53.75 L0,16.25 C0,15.9175 0.1325,15.6 0.365,15.365 L15.365,0.365 C15.6,0.1325 15.9175,0 16.25,0 L43.75,0 C44.44,0 45,0.56 45,1.25 L45,31.25 C45,31.94 44.44,32.5 43.75,32.5 C43.06,32.5 42.5,31.94 42.5,31.25 L42.5,2.5 L16.7675,2.5 L2.5,16.7675 L2.5,52.5 L33.75,52.5 C34.44,52.5 35,53.06 35,53.75 C35,54.44 34.44,55 33.75,55" id="Fill-1239"></path>
                            <path d="M16.25,17.5 L1.25,17.5 C0.56,17.5 0,16.94 0,16.25 C0,15.56 0.56,15 1.25,15 L15,15 L15,1.25 C15,0.56 15.56,0 16.25,0 C16.94,0 17.5,0.56 17.5,1.25 L17.5,16.25 C17.5,16.94 16.94,17.5 16.25,17.5" id="Fill-1240"></path>
                            <path d="M31.2475,25 C27.9225,25 25.24,23.2575 25.005,20.9475 C24.9375,20.26 25.4375,19.6475 26.125,19.58 C26.8225,19.5275 27.425,20.01 27.495,20.6975 C27.58,21.55 29.1425,22.5 31.2475,22.5 C33.36,22.5 35,21.4925 35,20.625 C35,20.04 34.36,19.2425 31.31,18.775 C31.3025,18.7725 31.05,18.7325 31.0425,18.7325 C29.38,18.4775 25,17.805 25,14.375 C25,11.92 27.7475,10 31.2525,10 C34.5775,10 37.26,11.74 37.495,14.0475 C37.5625,14.735 37.0625,15.3475 36.375,15.4175 C35.695,15.49 35.0775,14.9875 35.005,14.3 C34.92,13.4475 33.3575,12.5 31.2525,12.5 C29.14,12.5 27.5,13.5075 27.5,14.375 C27.5,14.96 28.14,15.7575 31.1975,16.225 C31.205,16.2275 31.4575,16.2675 31.465,16.2675 C33.125,16.5225 37.5,17.1925 37.5,20.625 C37.5,23.0775 34.7525,25 31.2475,25" id="Fill-1241"></path>
                            <path d="M18.75,27.5 L6.25,27.5 C5.56,27.5 5,26.94 5,26.25 C5,25.56 5.56,25 6.25,25 L18.75,25 C19.44,25 20,25.56 20,26.25 C20,26.94 19.44,27.5 18.75,27.5" id="Fill-1242"></path>
                            <path d="M33.75,37.5 L6.25,37.5 C5.56,37.5 5,36.94 5,36.25 C5,35.56 5.56,35 6.25,35 L33.75,35 C34.44,35 35,35.56 35,36.25 C35,36.94 34.44,37.5 33.75,37.5" id="Fill-1243"></path>
                            <path d="M16.25,47.5 L6.25,47.5 C5.56,47.5 5,46.94 5,46.25 C5,45.56 5.56,45 6.25,45 L16.25,45 C16.94,45 17.5,45.56 17.5,46.25 C17.5,46.94 16.94,47.5 16.25,47.5" id="Fill-1244"></path>
                            <path d="M31.25,27.5 C30.56,27.5 30,26.94 30,26.25 L30,8.75 C30,8.06 30.56,7.5 31.25,7.5 C31.94,7.5 32.5,8.06 32.5,8.75 L32.5,26.25 C32.5,26.94 31.94,27.5 31.25,27.5" id="Fill-1245"></path>
                        </g>
                    </g>
                </g>
            </g>
        </g>
    </g>
</svg>