<?xml version="1.0" encoding="UTF-8"?>
<svg width="57px" height="57px" viewBox="0 0 57 57" version="1.1" xmlns="http://www.w3.org/2000/svg" xmlns:xlink="http://www.w3.org/1999/xlink">
    <!-- Generator: Sketch 53 (72520) - https://sketchapp.com -->
    <title>Group 52</title>
    <desc>Created with Sketch.</desc>
    <g id="Page-1" stroke="none" stroke-width="1" fill="none" fill-rule="evenodd">
        <g id="DAP---Fintech-Marketing-" transform="translate(-308.000000, -8969.000000)" fill="#FFFFFF">
            <g id="Our-Customers" transform="translate(0.000000, 8621.000000)">
                <g id="Row-1" transform="translate(200.000000, 300.000000)">
                    <g id="1">
                        <g id="Group-52" transform="translate(108.000000, 46.000000)">
                            <path d="M5.58125,18.88 L51.734625,18.88 L29.661375,4.9206 L5.58125,18.88 L5.58125,18.88 Z M55.8125,21.24 L1.1875,21.24 C0.65075,21.24 0.1805,20.88364 0.040375,20.3668 C-0.09975,19.85468 0.125875,19.30952 0.589,19.04048 L29.089,2.52048 C29.471375,2.29628 29.946375,2.30572 30.326375,2.54408 L56.451375,19.06408 C56.8955,19.34728 57.09975,19.88536 56.9525,20.3904 C56.80525,20.89308 56.33975,21.24 55.8125,21.24 L55.8125,21.24 Z" id="Fill-1334"></path>
                            <path d="M2.375,56.64 L54.625,56.64 L54.625,51.92 L2.375,51.92 L2.375,56.64 Z M55.8125,59 L1.1875,59 C0.532,59 0,58.47136 0,57.82 L0,50.74 C0,50.08864 0.532,49.56 1.1875,49.56 L55.8125,49.56 C56.468,49.56 57,50.08864 57,50.74 L57,57.82 C57,58.47136 56.468,59 55.8125,59 L55.8125,59 Z" id="Fill-1335"></path>
                            <path d="M9.5,44.84 L14.25,44.84 L14.25,25.96 L9.5,25.96 L9.5,44.84 Z M15.4375,47.2 L8.3125,47.2 C7.657,47.2 7.125,46.67136 7.125,46.02 L7.125,24.78 C7.125,24.12864 7.657,23.6 8.3125,23.6 L15.4375,23.6 C16.093,23.6 16.625,24.12864 16.625,24.78 L16.625,46.02 C16.625,46.67136 16.093,47.2 15.4375,47.2 L15.4375,47.2 Z" id="Fill-1336"></path>
                            <path d="M8.3125,25.96 L5.9375,25.96 C5.282,25.96 4.75,25.43136 4.75,24.78 C4.75,24.12864 5.282,23.6 5.9375,23.6 L8.3125,23.6 C8.968,23.6 9.5,24.12864 9.5,24.78 C9.5,25.43136 8.968,25.96 8.3125,25.96" id="Fill-1337"></path>
                            <path d="M8.3125,47.2 L5.9375,47.2 C5.282,47.2 4.75,46.67136 4.75,46.02 C4.75,45.36864 5.282,44.84 5.9375,44.84 L8.3125,44.84 C8.968,44.84 9.5,45.36864 9.5,46.02 C9.5,46.67136 8.968,47.2 8.3125,47.2" id="Fill-1338"></path>
                            <path d="M17.8125,47.2 L15.4375,47.2 C14.782,47.2 14.25,46.67136 14.25,46.02 C14.25,45.36864 14.782,44.84 15.4375,44.84 L17.8125,44.84 C18.468,44.84 19,45.36864 19,46.02 C19,46.67136 18.468,47.2 17.8125,47.2" id="Fill-1339"></path>
                            <path d="M17.8125,25.96 L15.4375,25.96 C14.782,25.96 14.25,25.43136 14.25,24.78 C14.25,24.12864 14.782,23.6 15.4375,23.6 L17.8125,23.6 C18.468,23.6 19,24.12864 19,24.78 C19,25.43136 18.468,25.96 17.8125,25.96" id="Fill-1340"></path>
                            <path d="M26.125,44.84 L30.875,44.84 L30.875,25.96 L26.125,25.96 L26.125,44.84 Z M32.0625,47.2 L24.9375,47.2 C24.282,47.2 23.75,46.67136 23.75,46.02 L23.75,24.78 C23.75,24.12864 24.282,23.6 24.9375,23.6 L32.0625,23.6 C32.718,23.6 33.25,24.12864 33.25,24.78 L33.25,46.02 C33.25,46.67136 32.718,47.2 32.0625,47.2 L32.0625,47.2 Z" id="Fill-1341"></path>
                            <path d="M24.9375,25.96 L22.5625,25.96 C21.907,25.96 21.375,25.43136 21.375,24.78 C21.375,24.12864 21.907,23.6 22.5625,23.6 L24.9375,23.6 C25.593,23.6 26.125,24.12864 26.125,24.78 C26.125,25.43136 25.593,25.96 24.9375,25.96" id="Fill-1342"></path>
                            <path d="M24.9375,47.2 L22.5625,47.2 C21.907,47.2 21.375,46.67136 21.375,46.02 C21.375,45.36864 21.907,44.84 22.5625,44.84 L24.9375,44.84 C25.593,44.84 26.125,45.36864 26.125,46.02 C26.125,46.67136 25.593,47.2 24.9375,47.2" id="Fill-1343"></path>
                            <path d="M34.4375,47.2 L32.0625,47.2 C31.407,47.2 30.875,46.67136 30.875,46.02 C30.875,45.36864 31.407,44.84 32.0625,44.84 L34.4375,44.84 C35.093,44.84 35.625,45.36864 35.625,46.02 C35.625,46.67136 35.093,47.2 34.4375,47.2" id="Fill-1344"></path>
                            <path d="M34.4375,25.96 L32.0625,25.96 C31.407,25.96 30.875,25.43136 30.875,24.78 C30.875,24.12864 31.407,23.6 32.0625,23.6 L34.4375,23.6 C35.093,23.6 35.625,24.12864 35.625,24.78 C35.625,25.43136 35.093,25.96 34.4375,25.96" id="Fill-1345"></path>
                            <path d="M42.75,44.84 L47.5,44.84 L47.5,25.96 L42.75,25.96 L42.75,44.84 Z M48.6875,47.2 L41.5625,47.2 C40.907,47.2 40.375,46.67136 40.375,46.02 L40.375,24.78 C40.375,24.12864 40.907,23.6 41.5625,23.6 L48.6875,23.6 C49.343,23.6 49.875,24.12864 49.875,24.78 L49.875,46.02 C49.875,46.67136 49.343,47.2 48.6875,47.2 L48.6875,47.2 Z" id="Fill-1346"></path>
                            <path d="M41.5625,25.96 L39.1875,25.96 C38.532,25.96 38,25.43136 38,24.78 C38,24.12864 38.532,23.6 39.1875,23.6 L41.5625,23.6 C42.218,23.6 42.75,24.12864 42.75,24.78 C42.75,25.43136 42.218,25.96 41.5625,25.96" id="Fill-1347"></path>
                            <path d="M41.5625,47.2 L39.1875,47.2 C38.532,47.2 38,46.67136 38,46.02 C38,45.36864 38.532,44.84 39.1875,44.84 L41.5625,44.84 C42.218,44.84 42.75,45.36864 42.75,46.02 C42.75,46.67136 42.218,47.2 41.5625,47.2" id="Fill-1348"></path>
                            <path d="M51.0625,47.2 L48.6875,47.2 C48.032,47.2 47.5,46.67136 47.5,46.02 C47.5,45.36864 48.032,44.84 48.6875,44.84 L51.0625,44.84 C51.718,44.84 52.25,45.36864 52.25,46.02 C52.25,46.67136 51.718,47.2 51.0625,47.2" id="Fill-1349"></path>
                            <path d="M51.0625,25.96 L48.6875,25.96 C48.032,25.96 47.5,25.43136 47.5,24.78 C47.5,24.12864 48.032,23.6 48.6875,23.6 L51.0625,23.6 C51.718,23.6 52.25,24.12864 52.25,24.78 C52.25,25.43136 51.718,25.96 51.0625,25.96" id="Fill-1350"></path>
                        </g>
                    </g>
                </g>
            </g>
        </g>
    </g>
</svg>