<?xml version="1.0" encoding="UTF-8"?>
<svg width="64px" height="43px" viewBox="0 0 64 43" version="1.1" xmlns="http://www.w3.org/2000/svg" xmlns:xlink="http://www.w3.org/1999/xlink">
    <!-- Generator: Sketch 53 (72520) - https://sketchapp.com -->
    <title>credit card</title>
    <desc>Created with Sketch.</desc>
    <g id="Page-1" stroke="none" stroke-width="1" fill="none" fill-rule="evenodd">
        <g id="DAP---Fintech-Marketing-" transform="translate(-1270.000000, -8975.000000)" fill="#FFFFFF">
            <g id="Our-Customers" transform="translate(0.000000, 8621.000000)">
                <g id="Row-1" transform="translate(200.000000, 300.000000)">
                    <g id="4" transform="translate(965.000000, 0.000000)">
                        <g id="credit-card" transform="translate(105.000000, 54.000000)">
                            <path d="M6.66666667,2.6875 C4.46133333,2.6875 2.66666667,4.4961875 2.66666667,6.71875 L2.66666667,36.28125 C2.66666667,38.5038125 4.46133333,40.3125 6.66666667,40.3125 L57.3333333,40.3125 C59.5386667,40.3125 61.3333333,38.5038125 61.3333333,36.28125 L61.3333333,6.71875 C61.3333333,4.4961875 59.5386667,2.6875 57.3333333,2.6875 L6.66666667,2.6875 L6.66666667,2.6875 Z M57.3333333,43 L6.66666667,43 C2.98933333,43 0,39.984625 0,36.28125 L0,6.71875 C0,3.015375 2.98933333,0 6.66666667,0 L57.3333333,0 C61.0106667,0 64,3.015375 64,6.71875 L64,36.28125 C64,39.984625 61.0106667,43 57.3333333,43 L57.3333333,43 Z" id="Fill-1809"></path>
                            <path d="M20,29.5625 L9.33333333,29.5625 C8.59733333,29.5625 8,28.9605 8,28.21875 C8,27.477 8.59733333,26.875 9.33333333,26.875 L20,26.875 C20.736,26.875 21.3333333,27.477 21.3333333,28.21875 C21.3333333,28.9605 20.736,29.5625 20,29.5625" id="Fill-1810"></path>
                            <path d="M33.3333333,34.9375 L9.33333333,34.9375 C8.59733333,34.9375 8,34.3355 8,33.59375 C8,32.852 8.59733333,32.25 9.33333333,32.25 L33.3333333,32.25 C34.0693333,32.25 34.6666667,32.852 34.6666667,33.59375 C34.6666667,34.3355 34.0693333,34.9375 33.3333333,34.9375" id="Fill-1811"></path>
                            <path d="M45.3333333,26.875 C43.8613333,26.875 42.6666667,28.0816875 42.6666667,29.5625 C42.6666667,31.2744375 44.3893333,32.6074375 46.008,32.158625 C45.5706667,31.3685 45.3333333,30.47625 45.3333333,29.5625 C45.3333333,28.64875 45.5706667,27.7565 46.008,26.966375 C45.7893333,26.90725 45.5626667,26.875 45.3333333,26.875 L45.3333333,26.875 Z M45.3333333,34.9375 C42.392,34.9375 40,32.5268125 40,29.5625 C40,26.5981875 42.392,24.1875 45.3333333,24.1875 C46.64,24.1875 47.904,24.682 48.8933333,25.579625 C49.1706667,25.83225 49.3333333,26.19775 49.3333333,26.5766875 C49.3333333,26.9583125 49.1706667,27.321125 48.8933333,27.5764375 C48.3173333,28.0978125 48,28.804625 48,29.5625 C48,30.320375 48.3173333,31.0271875 48.8933333,31.5485625 C49.1706667,31.803875 49.3333333,32.1666875 49.3333333,32.5483125 C49.3333333,32.92725 49.1706667,33.29275 48.8933333,33.545375 C47.904,34.443 46.64,34.9375 45.3333333,34.9375 L45.3333333,34.9375 Z" id="Fill-1812"></path>
                            <path d="M14.6666667,21.5 L9.33333333,21.5 C8.59733333,21.5 8,20.898 8,20.15625 C8,19.4145 8.59733333,18.8125 9.33333333,18.8125 L14.6666667,18.8125 C15.4026667,18.8125 16,19.4145 16,20.15625 C16,20.898 15.4026667,21.5 14.6666667,21.5" id="Fill-1813"></path>
                            <path d="M25.3333333,21.5 L20,21.5 C19.264,21.5 18.6666667,20.898 18.6666667,20.15625 C18.6666667,19.4145 19.264,18.8125 20,18.8125 L25.3333333,18.8125 C26.0693333,18.8125 26.6666667,19.4145 26.6666667,20.15625 C26.6666667,20.898 26.0693333,21.5 25.3333333,21.5" id="Fill-1814"></path>
                            <path d="M36,21.5 L30.6666667,21.5 C29.9306667,21.5 29.3333333,20.898 29.3333333,20.15625 C29.3333333,19.4145 29.9306667,18.8125 30.6666667,18.8125 L36,18.8125 C36.736,18.8125 37.3333333,19.4145 37.3333333,20.15625 C37.3333333,20.898 36.736,21.5 36,21.5" id="Fill-1815"></path>
                            <path d="M50.6666667,26.875 C49.1946667,26.875 48,28.0816875 48,29.5625 C48,31.0433125 49.1946667,32.25 50.6666667,32.25 C52.1386667,32.25 53.3333333,31.0433125 53.3333333,29.5625 C53.3333333,28.0816875 52.1386667,26.875 50.6666667,26.875 L50.6666667,26.875 Z M50.6666667,34.9375 C47.7253333,34.9375 45.3333333,32.5268125 45.3333333,29.5625 C45.3333333,26.5981875 47.7253333,24.1875 50.6666667,24.1875 C53.608,24.1875 56,26.5981875 56,29.5625 C56,32.5268125 53.608,34.9375 50.6666667,34.9375 L50.6666667,34.9375 Z" id="Fill-1816"></path>
                        </g>
                    </g>
                </g>
            </g>
        </g>
    </g>
</svg>