<?xml version="1.0" encoding="UTF-8"?>
<svg width="57px" height="57px" viewBox="0 0 57 57" version="1.1" xmlns="http://www.w3.org/2000/svg" xmlns:xlink="http://www.w3.org/1999/xlink">
    <!-- Generator: Sketch 53 (72520) - https://sketchapp.com -->
    <title>bitcoin-round</title>
    <desc>Created with Sketch.</desc>
    <g id="Page-1" stroke="none" stroke-width="1" fill="none" fill-rule="evenodd">
        <g id="DAP---Fintech-Marketing-" transform="translate(-308.000000, -9171.000000)" fill="#FFFFFF">
            <g id="Our-Customers" transform="translate(0.000000, 8621.000000)">
                <g id="Row-2" transform="translate(200.000000, 506.000000)">
                    <g id="1">
                        <g id="bitcoin-round" transform="translate(108.000000, 44.000000)">
                            <path d="M28.5,2.47826087 C14.1508696,2.47826087 2.47826087,14.1508696 2.47826087,28.5 C2.47826087,42.8491304 14.1508696,54.5217391 28.5,54.5217391 C42.8491304,54.5217391 54.5217391,42.8491304 54.5217391,28.5 C54.5217391,14.1508696 42.8491304,2.47826087 28.5,2.47826087 L28.5,2.47826087 Z M28.5,57 C12.7853478,57 0,44.2146522 0,28.5 C0,12.7853478 12.7853478,0 28.5,0 C44.2146522,0 57,12.7853478 57,28.5 C57,44.2146522 44.2146522,57 28.5,57 L28.5,57 Z" id="Fill-1606"></path>
                            <path d="M22.3043478,27.2608696 L29.7391304,27.2608696 C32.4726522,27.2608696 34.6956522,25.0378696 34.6956522,22.3043478 C34.6956522,19.5708261 32.4726522,17.3478261 29.7391304,17.3478261 L22.3043478,17.3478261 L22.3043478,27.2608696 L22.3043478,27.2608696 Z M22.3043478,39.6521739 L29.7391304,39.6521739 C32.4726522,39.6521739 34.6956522,37.4291739 34.6956522,34.6956522 C34.6956522,31.9621304 32.4726522,29.7391304 29.7391304,29.7391304 L22.3043478,29.7391304 L22.3043478,39.6521739 L22.3043478,39.6521739 Z M29.7391304,42.1304348 L21.0652174,42.1304348 C20.3812174,42.1304348 19.826087,41.5753043 19.826087,40.8913043 L19.826087,16.1086957 C19.826087,15.4246957 20.3812174,14.8695652 21.0652174,14.8695652 L29.7391304,14.8695652 C33.8381739,14.8695652 37.173913,18.2053043 37.173913,22.3043478 C37.173913,24.8866957 35.8505217,27.1666957 33.8431304,28.5 C35.8505217,29.8333043 37.173913,32.1133043 37.173913,34.6956522 C37.173913,38.7946957 33.8381739,42.1304348 29.7391304,42.1304348 L29.7391304,42.1304348 Z" id="Fill-1607"></path>
                            <path d="M23.5434783,17.3478261 C22.8594783,17.3478261 22.3043478,16.7926957 22.3043478,16.1086957 L22.3043478,13.6304348 C22.3043478,12.9464348 22.8594783,12.3913043 23.5434783,12.3913043 C24.2274783,12.3913043 24.7826087,12.9464348 24.7826087,13.6304348 L24.7826087,16.1086957 C24.7826087,16.7926957 24.2274783,17.3478261 23.5434783,17.3478261" id="Fill-1608"></path>
                            <path d="M28.5,17.3478261 C27.816,17.3478261 27.2608696,16.7926957 27.2608696,16.1086957 L27.2608696,13.6304348 C27.2608696,12.9464348 27.816,12.3913043 28.5,12.3913043 C29.184,12.3913043 29.7391304,12.9464348 29.7391304,13.6304348 L29.7391304,16.1086957 C29.7391304,16.7926957 29.184,17.3478261 28.5,17.3478261" id="Fill-1609"></path>
                            <path d="M23.5434783,44.6086957 C22.8594783,44.6086957 22.3043478,44.0535652 22.3043478,43.3695652 L22.3043478,40.8913043 C22.3043478,40.2073043 22.8594783,39.6521739 23.5434783,39.6521739 C24.2274783,39.6521739 24.7826087,40.2073043 24.7826087,40.8913043 L24.7826087,43.3695652 C24.7826087,44.0535652 24.2274783,44.6086957 23.5434783,44.6086957" id="Fill-1610"></path>
                            <path d="M28.5,44.6086957 C27.816,44.6086957 27.2608696,44.0535652 27.2608696,43.3695652 L27.2608696,40.8913043 C27.2608696,40.2073043 27.816,39.6521739 28.5,39.6521739 C29.184,39.6521739 29.7391304,40.2073043 29.7391304,40.8913043 L29.7391304,43.3695652 C29.7391304,44.0535652 29.184,44.6086957 28.5,44.6086957" id="Fill-1611"></path>
                        </g>
                    </g>
                </g>
            </g>
        </g>
    </g>
</svg>