<?xml version="1.0" encoding="UTF-8"?>
<svg width="57px" height="57px" viewBox="0 0 57 57" version="1.1" xmlns="http://www.w3.org/2000/svg" xmlns:xlink="http://www.w3.org/1999/xlink">
    <!-- Generator: Sketch 53 (72520) - https://sketchapp.com -->
    <title>icon</title>
    <desc>Created with Sketch.</desc>
    <g id="Page-1" stroke="none" stroke-width="1" fill="none" fill-rule="evenodd">
        <g id="DAP---Fintech-Marketing-" transform="translate(-309.000000, -9384.000000)" fill="#FFFFFF">
            <g id="Our-Customers" transform="translate(0.000000, 8621.000000)">
                <g id="Row-3" transform="translate(200.000000, 715.000000)">
                    <g id="1">
                        <g id="icon" transform="translate(109.000000, 48.000000)">
                            <path d="M3.5625,47.5 C3.384375,47.5 3.203875,47.459625 3.0305,47.374125 C2.443875,47.082 2.20875,46.367125 2.500875,45.7805 L4.875875,41.0305 C5.170375,40.443875 5.88525,40.2135 6.4695,40.500875 L11.2195,42.875875 C11.806125,43.168 12.04125,43.882875 11.749125,44.4695 C11.457,45.0585 10.7445,45.288875 10.1555,44.999125 L6.4695,43.156125 L4.624125,46.8445 C4.415125,47.260125 3.997125,47.5 3.5625,47.5" id="Fill-1631"></path>
                            <path d="M17.8125,54.625 L17.80775,54.625 C10.347875,54.60125 5.5955,48.11275 4.7595,41.716875 C4.676375,41.066125 5.132375,40.47 5.7855,40.3845 C6.391125,40.291875 7.03,40.755 7.1155,41.408125 C7.8185,46.780375 11.720625,52.231 17.81725,52.25 C18.470375,52.252375 19.002375,52.78675 19,53.439875 C18.997625,54.095375 18.465625,54.625 17.8125,54.625" id="Fill-1632"></path>
                            <path d="M51.0625,16.622625 C50.884375,16.622625 50.703875,16.579875 50.5305,16.49675 L45.7805,14.12175 C45.193875,13.82725 44.95875,13.11475 45.250875,12.528125 C45.545375,11.9415 46.257875,11.70875 46.8445,11.996125 L50.5305,13.8415 L52.375875,10.153125 C52.670375,9.564125 53.382875,9.336125 53.9695,9.621125 C54.556125,9.915625 54.79125,10.628125 54.499125,11.21475 L52.124125,15.96475 C51.915125,16.380375 51.497125,16.622625 51.0625,16.622625" id="Fill-1633"></path>
                            <path d="M51.060125,16.622625 C50.4735,16.622625 49.962875,16.185625 49.8845,15.587125 C49.1815,10.214875 45.279375,4.766625 39.18275,4.747625 C38.529625,4.74525 37.997625,4.210875 38,3.555375 C38.002375,2.899875 38.534375,2.372625 39.1875,2.372625 L39.19225,2.372625 C46.652125,2.394 51.4045,8.8825 52.2405,15.28075 C52.323625,15.9315 51.867625,16.52525 51.2145,16.61075 C51.164625,16.617875 51.112375,16.622625 51.060125,16.622625" id="Fill-1634"></path>
                            <path d="M36.8125,47.5 C32.150375,47.5 28.5,44.89225 28.5,41.5625 C28.5,40.907 29.032,40.375 29.6875,40.375 C30.343,40.375 30.875,40.907 30.875,41.5625 C30.875,43.493375 33.594375,45.125 36.8125,45.125 C40.030625,45.125 42.75,43.493375 42.75,41.5625 C42.75,39.631625 40.030625,38 36.8125,38 C32.150375,38 28.5,35.39225 28.5,32.0625 C28.5,28.73275 32.150375,26.125 36.8125,26.125 C41.474625,26.125 45.125,28.73275 45.125,32.0625 C45.125,32.718 44.593,33.25 43.9375,33.25 C43.282,33.25 42.75,32.718 42.75,32.0625 C42.75,30.131625 40.030625,28.5 36.8125,28.5 C33.594375,28.5 30.875,30.131625 30.875,32.0625 C30.875,33.993375 33.594375,35.625 36.8125,35.625 C41.474625,35.625 45.125,38.23275 45.125,41.5625 C45.125,44.89225 41.474625,47.5 36.8125,47.5" id="Fill-1635"></path>
                            <path d="M36.8125,49.875 C36.157,49.875 35.625,49.343 35.625,48.6875 L35.625,24.9375 C35.625,24.282 36.157,23.75 36.8125,23.75 C37.468,23.75 38,24.282 38,24.9375 L38,48.6875 C38,49.343 37.468,49.875 36.8125,49.875" id="Fill-1636"></path>
                            <path d="M17.8125,35.625 C7.9895,35.625 0,27.6355 0,17.8125 C0,7.9895 7.9895,0 17.8125,0 C27.6355,0 35.625,7.9895 35.625,17.8125 C35.625,18.468 35.093,19 34.4375,19 C33.782,19 33.25,18.468 33.25,17.8125 C33.25,9.3005 26.3245,2.375 17.8125,2.375 C9.3005,2.375 2.375,9.3005 2.375,17.8125 C2.375,26.3245 9.3005,33.25 17.8125,33.25 C18.468,33.25 19,33.782 19,34.4375 C19,35.093 18.468,35.625 17.8125,35.625" id="Fill-1637"></path>
                            <path d="M36.8125,19 C26.9895,19 19,26.9895 19,36.8125 C19,46.6355 26.9895,54.625 36.8125,54.625 C46.6355,54.625 54.625,46.6355 54.625,36.8125 C54.625,26.9895 46.6355,19 36.8125,19 L36.8125,19 Z M36.8125,57 C25.680875,57 16.625,47.944125 16.625,36.8125 C16.625,25.680875 25.680875,16.625 36.8125,16.625 C47.944125,16.625 57,25.680875 57,36.8125 C57,47.944125 47.944125,57 36.8125,57 L36.8125,57 Z" id="Fill-1638"></path>
                            <path d="M17.8125,28.5 C13.150375,28.5 9.5,25.89225 9.5,22.5625 L9.5,13.0625 C9.5,9.73275 13.150375,7.125 17.8125,7.125 C22.474625,7.125 26.125,9.73275 26.125,13.0625 C26.125,13.718 25.593,14.25 24.9375,14.25 C24.282,14.25 23.75,13.718 23.75,13.0625 C23.75,11.131625 21.030625,9.5 17.8125,9.5 C14.594375,9.5 11.875,11.131625 11.875,13.0625 L11.875,22.5625 C11.875,24.493375 14.594375,26.125 17.8125,26.125 C18.468,26.125 19,26.657 19,27.3125 C19,27.968 18.468,28.5 17.8125,28.5" id="Fill-1639"></path>
                            <path d="M20.1875,16.625 L8.3125,16.625 C7.657,16.625 7.125,16.093 7.125,15.4375 C7.125,14.782 7.657,14.25 8.3125,14.25 L20.1875,14.25 C20.843,14.25 21.375,14.782 21.375,15.4375 C21.375,16.093 20.843,16.625 20.1875,16.625" id="Fill-1640"></path>
                            <path d="M20.1875,21.375 L8.3125,21.375 C7.657,21.375 7.125,20.843 7.125,20.1875 C7.125,19.532 7.657,19 8.3125,19 L20.1875,19 C20.843,19 21.375,19.532 21.375,20.1875 C21.375,20.843 20.843,21.375 20.1875,21.375" id="Fill-1641"></path>
                        </g>
                    </g>
                </g>
            </g>
        </g>
    </g>
</svg>