<?xml version="1.0" encoding="UTF-8"?>
<svg width="160px" height="160px" viewBox="0 0 160 160" version="1.1" xmlns="http://www.w3.org/2000/svg" xmlns:xlink="http://www.w3.org/1999/xlink">
    <!-- Generator: Sketch 53 (72520) - https://sketchapp.com -->
    <title>Icon 1</title>
    <desc>Created with Sketch.</desc>
    <g id="Page-1" stroke="none" stroke-width="1" fill="none" fill-rule="evenodd">
        <g id="DAP---Fintech-Marketing-" transform="translate(-760.000000, -5865.000000)">
            <g id="What-you-get" transform="translate(270.000000, 5662.000000)">
                <g id="Tiles" transform="translate(0.000000, 143.000000)">
                    <g id="2" transform="translate(390.000000, 0.000000)">
                        <g id="Icon-1" transform="translate(100.000000, 60.000000)">
                            <g id="Time" fill="#F6FCFC">
                                <circle id="Oval" cx="80" cy="80" r="80"></circle>
                            </g>
                            <g id="Group-714" transform="translate(42.000000, 42.000000)" fill="#57C1CA">
                                <path d="M71.25,50.54 C70.376,50.54 69.6666667,49.8338333 69.6666667,48.9598333 C69.6666667,45.1503333 67.0858333,41.8411667 63.3903333,40.9165 L55.4483333,38.931 C54.8783333,38.7885 54.435,38.3451667 54.2956667,37.7783333 L53.3868333,34.1556667 C53.2443333,33.5856667 53.4311667,32.9871667 53.8681667,32.5945 C55.7966667,30.8655 57.0696667,28.291 57.2755,25.7038333 C57.3388333,24.8773333 58.026,24.244 58.8525,24.244 C59.1216667,24.244 59.2673333,24.1141667 59.2895,23.9431667 L59.7708333,20.0893333 C59.3401667,20.0861667 58.7638333,19.7156667 58.4661667,19.4021667 C58.1716667,19.0886667 57.8486667,18.4775 57.8676667,18.0468333 L58.1051667,13.224 C58.121,12.8313333 58.2856667,12.4608333 58.5643333,12.1821667 L59.5301667,11.2163333 C59.9798333,10.735 60.4073333,10.0446667 59.3243333,8.38216667 C58.3648333,6.92233333 56.6706667,6.20983333 54.1563333,6.20983333 C52.2785,6.20983333 50.0871667,6.403 48.0795,7.84066667 C47.8135,8.03066667 47.4968333,8.132 47.1706667,8.13516667 C40.0646667,8.208 40.0646667,10.9123333 40.0646667,13.3 C40.0646667,14.2088333 40.3845,16.9448333 40.508,17.9201667 C40.565,18.373 40.4256667,18.8226667 40.1248333,19.1678333 C39.824,19.5066667 39.3901667,19.703 38.9373333,19.703 L38.4813333,19.8201667 L38.8771667,23.9431667 C38.8993333,24.1141667 39.045,24.244 39.2191667,24.244 C40.0456667,24.244 41.0463333,24.8773333 41.1096667,25.7038333 C41.3123333,28.2118333 42.5283333,30.7356667 44.365,32.4583333 C44.7861667,32.851 44.9571667,33.4431667 44.8178333,33.9973333 L43.871,37.7783333 C43.7316667,38.3451667 43.2883333,38.7885 42.7183333,38.931 L34.7731667,40.9165 C33.6363333,41.2015 32.5913333,41.7145 31.6698333,42.4365 C30.989,42.9685 29.9883333,42.8608333 29.4468333,42.1673333 C28.9085,41.4833333 29.0256667,40.4858333 29.716,39.9443333 C30.9858333,38.9468333 32.4298333,38.2375 34.0036667,37.8416667 L41.0305,36.0905 L41.5276667,34.0955 C39.786,32.1955 38.57,29.7255 38.114,27.1858333 C36.7935,26.733 35.9005,25.6595 35.7358333,24.339 L35.2545,20.4851667 C35.131,19.4813333 35.4413333,18.4743333 36.1063333,17.7238333 C36.4166667,17.3723333 36.7871667,17.0905 37.1956667,16.8941667 C37.0626667,15.7035 36.898,14.0948333 36.898,13.3 C36.898,9.538 38.0221667,5.21866667 46.6545,4.978 C49.6438333,3.04316667 52.7788333,3.04316667 54.1563333,3.04316667 C58.6593333,3.04316667 60.8918333,5.00333333 61.9716667,6.65 C64.1851667,10.0288333 62.8171667,12.3405 61.8038333,13.4203333 L61.237,13.9871667 L61.0913333,16.9606667 C61.4586667,17.157 61.7943333,17.4198333 62.0761667,17.7428333 C62.7316667,18.4933333 63.0356667,19.4908333 62.9121667,20.482 L62.4308333,24.339 C62.2693333,25.6246667 61.4206667,26.6791667 60.2775,27.1478333 C59.8151667,29.7856667 58.5263333,32.338 56.6801667,34.2728333 L57.1361667,36.0905 L64.1598333,37.8416667 C69.2676667,39.1241667 72.8333333,43.6936667 72.8333333,48.9535 C72.8333333,49.8275 72.124,50.54 71.25,50.54" id="Fill-706"></path>
                                <path d="M3.16666667,66.3761833 L9.9275,66.3761833 C11.1055,62.65535 14.9023333,50.3370167 15.7446667,43.4020167 C13.7465,42.4330167 8.25233333,41.5590167 3.16666667,41.15685 L3.16666667,66.3761833 Z M11.0833333,69.54285 L1.58333333,69.54285 C0.709333333,69.54285 0,68.8335167 0,67.9595167 L0,39.4595167 C0,39.0225167 0.1805,38.6045167 0.497166667,38.30685 C0.817,38.0091833 1.25083333,37.8476833 1.67516667,37.87935 C4.94,38.0725167 15.789,38.90535 18.506,41.4766833 C18.8543333,41.8091833 19.038,42.2841833 18.9936667,42.7655167 C18.2748333,50.99885 12.8218333,67.7441833 12.5906667,68.45035 C12.3753333,69.1026833 11.7673333,69.54285 11.0833333,69.54285 L11.0833333,69.54285 Z" id="Fill-708"></path>
                                <path d="M42.4190833,75.7773833 C40.3544167,75.7773833 38.51775,75.1947167 35.85775,74.1908833 L12.16475,66.2963833 C11.33825,66.0177167 10.8885833,65.12155 11.1640833,64.2918833 C11.44275,63.4622167 12.34525,63.0188833 13.1685833,63.2912167 L36.9185833,71.2078833 C42.6185833,73.3643833 43.0809167,73.53855 56.3999167,68.07605 L72.0970833,60.94155 C70.3490833,58.82305 67.53075,57.85405 64.76625,58.54755 L52.63475,61.5812167 C51.7924167,61.7838833 50.92475,61.27405 50.7125833,60.4253833 C50.5035833,59.5798833 51.0165833,58.71855 51.86525,58.5063833 L63.99675,55.4727167 C68.76575,54.2883833 73.6329167,56.52405 75.83375,60.9193833 C76.02375,61.3057167 76.05225,61.74905 75.90975,62.1543833 C75.7640833,62.5597167 75.46325,62.8922167 75.07375,63.0663833 L57.6570833,70.98305 C49.3889167,74.37455 45.6300833,75.7773833 42.4190833,75.7773833" id="Fill-710"></path>
                                <path d="M45.6785333,62.97455 C44.9533667,62.97455 44.2250333,62.9048833 43.5125333,62.7623833 L29.7755333,60.01055 C28.9142,59.8427167 28.3568667,59.0067167 28.5310333,58.1517167 C28.7052,57.2872167 29.5760333,56.74255 30.3930333,56.9072167 L44.1332,59.6558833 C45.2763667,59.8807167 46.4765333,59.8522167 47.6007,59.5703833 L50.6438667,58.81355 C50.4507,55.9192167 49.0415333,54.53855 45.5328667,53.66455 L17.0740333,47.3407167 C16.2190333,47.14755 15.6807,46.30205 15.8707,45.4502167 C16.0575333,44.5983833 16.8967,44.0632167 17.7612,44.2468833 L46.2612,50.5802167 C51.5115333,51.8912167 53.8327,54.65255 53.8327,59.54505 L53.8327,60.0422167 C53.8327,60.77055 53.3387,61.4038833 52.6325333,61.5812167 L48.3733667,62.6452167 C47.4962,62.8637167 46.5873667,62.97455 45.6785333,62.97455" id="Fill-712"></path>
                            </g>
                        </g>
                    </g>
                </g>
            </g>
        </g>
    </g>
</svg>