<?xml version="1.0" encoding="UTF-8"?>
<svg width="160px" height="160px" viewBox="0 0 160 160" version="1.1" xmlns="http://www.w3.org/2000/svg" xmlns:xlink="http://www.w3.org/1999/xlink">
    <!-- Generator: Sketch 53 (72520) - https://sketchapp.com -->
    <title>Icon 1</title>
    <desc>Created with Sketch.</desc>
    <g id="Page-1" stroke="none" stroke-width="1" fill="none" fill-rule="evenodd">
        <g id="DAP---Fintech-Marketing-" transform="translate(-1150.000000, -5865.000000)">
            <g id="What-you-get" transform="translate(270.000000, 5662.000000)">
                <g id="Tiles" transform="translate(0.000000, 143.000000)">
                    <g id="3" transform="translate(780.000000, 0.000000)">
                        <g id="Icon-1" transform="translate(100.000000, 60.000000)">
                            <g id="Time" fill="#F6FCFC">
                                <circle id="Oval" cx="80" cy="80" r="80"></circle>
                            </g>
                            <g id="Group-1003" transform="translate(45.000000, 38.000000)" fill="#57C1CA">
                                <path d="M42.0823579,84 C41.1526737,84 40.4217263,83.11632 40.4217263,82.18896 C40.4217263,78.26448 50.8537263,74.53824 55.3067789,73.81248 C61.8112,72.74736 62.3164632,71.73936 62.3164632,70.42896 C62.3164632,69.23616 62.0200421,68.79936 61.6090947,68.18784 C61.1981474,67.57296 60.6322526,66.73296 60.6322526,65.38896 C60.6322526,64.0248 61.2116211,63.22512 61.6933053,62.7984 C62.7072,61.908 63.9602526,62.01552 64.2095158,62.0424 C65.1324632,62.15664 65.7859368,62.99664 65.6714105,63.91728 C65.5568842,64.84464 64.6844632,65.5032 63.7884632,65.37552 C64.0006737,65.68464 64.0646737,65.80896 64.4082526,66.31632 C64.9135158,67.07232 65.6848842,68.21472 65.6848842,70.42896 C65.6848842,75.52272 59.9989895,76.45008 55.8524632,77.12544 C50.3181474,78.02928 44.3392,81.25152 43.7429895,82.45104 C43.7429895,83.3784 43.0120421,84 42.0823579,84" id="Fill-993"></path>
                                <path d="M5.05263158,83.868624 C4.64505263,83.868624 4.23410526,83.720784 3.91073684,83.421744 C3.22694737,82.796784 3.18315789,81.731664 3.81642105,81.049584 C6.50105263,78.143184 13.4736842,69.665904 13.4736842,65.388624 C13.4736842,63.486864 11.2808421,59.690064 8.95663158,55.668144 C4.96842105,48.770064 0,40.175184 0,31.788624 C0,19.931184 9.92673684,3.228624 32,3.228624 C54.4808421,3.228624 64,21.255024 64,28.428624 C64,32.568144 63.5890526,35.333424 63.36,36.543024 C65.8155789,40.779984 70.7368421,49.566384 70.7368421,51.948624 C70.7368421,54.411504 68.0926316,55.782384 66.1591579,56.451024 L67.2842105,59.817744 C67.4829474,60.419184 67.3246316,61.087824 66.8766316,61.538064 L65.1924211,63.218064 C64.5322105,63.873264 63.4677895,63.873264 62.8075789,63.218064 C62.1507368,62.559504 62.1507368,61.497744 62.8075789,60.839184 L63.7574737,59.895024 L62.4,55.839504 C62.2484211,55.385904 62.3023158,54.888624 62.5381053,54.471984 C62.7806316,54.058704 63.1848421,53.763024 63.6530526,53.665584 C65.472,53.279184 67.2168421,52.385424 67.3717895,51.921744 C67.2471579,50.604624 63.5115789,43.481424 60.1229474,37.675344 C59.904,37.299024 59.84,36.848784 59.9444211,36.425424 C59.9511579,36.395184 60.6315789,33.569424 60.6315789,28.428624 C60.6315789,23.805264 53.4703158,6.588624 32,6.588624 C10.368,6.588624 3.36842105,23.566704 3.36842105,31.788624 C3.36842105,39.278064 8.08421053,47.436144 11.8736842,53.991504 C14.6526316,58.792944 16.8421053,62.586384 16.8421053,65.388624 C16.8421053,71.742384 7.37010526,82.161744 6.28884211,83.327664 C5.95873684,83.687184 5.50736842,83.868624 5.05263158,83.868624" id="Fill-995"></path>
                                <path d="M30.2632421,40.188624 L33.7461895,40.188624 C34.0257684,37.725744 35.2181895,36.727824 36.4678737,35.679504 C36.9697684,35.259504 37.5525053,34.775664 38.1958737,34.083504 C39.6308211,32.537904 40.4224,30.528624 40.4224,28.428624 C40.4224,25.932144 39.3175579,23.580144 37.3908211,21.977424 C35.4405053,20.354544 32.9546105,19.716144 30.4047158,20.176464 C27.1171368,20.774544 24.3819789,23.469264 23.7453474,26.735184 C23.1861895,29.601264 24.0451368,32.390064 26.1066105,34.385904 C26.6590316,34.923504 27.1440842,35.330064 27.5651368,35.676144 C29.0506105,36.912624 30.0341895,37.856784 30.2632421,40.188624 M35.3697684,43.548624 L28.6329263,43.548624 C27.6998737,43.548624 26.9487158,42.795984 26.9487158,41.868624 L26.9487158,41.334384 C26.9487158,39.540144 26.7129263,39.341904 25.4093474,38.259984 C24.9310316,37.863504 24.3786105,37.403184 23.7554526,36.795024 C20.9125053,34.033104 19.6695579,30.034704 20.4375579,26.093424 C21.3470316,21.429744 25.1095579,17.720304 29.7984,16.870224 C33.2981895,16.241904 36.8552421,17.155824 39.5499789,19.396944 C42.2447158,21.638064 43.7908211,24.930864 43.7908211,28.428624 C43.7908211,31.378704 42.6826105,34.197744 40.6682947,36.364944 C39.9070316,37.178064 39.2232421,37.755984 38.6337684,38.253264 C37.3874526,39.294864 37.0539789,39.577104 37.0539789,41.347824 L37.0539789,41.868624 C37.0539789,42.795984 36.2994526,43.548624 35.3697684,43.548624" id="Fill-997"></path>
                                <path d="M33.6842105,50.268624 L30.3157895,50.268624 C28.4564211,50.268624 26.9473684,48.763344 26.9473684,46.908624 L26.9473684,41.868624 C26.9473684,40.941264 27.7018947,40.188624 28.6315789,40.188624 C29.5612632,40.188624 30.3157895,40.941264 30.3157895,41.868624 L30.3157895,46.908624 L33.6842105,46.908624 L33.6842105,41.347824 C33.6842105,40.417104 34.4387368,39.667824 35.3684211,39.667824 C36.2981053,39.667824 37.0526316,40.417104 37.0526316,41.347824 L37.0526316,46.908624 C37.0526316,48.763344 35.5435789,50.268624 33.6842105,50.268624" id="Fill-999"></path>
                                <path d="M32,51.948624 C31.0703158,51.948624 30.3157895,51.195984 30.3157895,50.268624 L30.3157895,48.588624 C30.3157895,47.661264 31.0703158,46.908624 32,46.908624 C32.9296842,46.908624 33.6842105,47.661264 33.6842105,48.588624 L33.6842105,50.268624 C33.6842105,51.195984 32.9296842,51.948624 32,51.948624" id="Fill-1001"></path>
                            </g>
                        </g>
                    </g>
                </g>
            </g>
        </g>
    </g>
</svg>