<?xml version="1.0" encoding="UTF-8"?>
<svg width="345px" height="32px" viewBox="0 0 345 32" version="1.1" xmlns="http://www.w3.org/2000/svg" xmlns:xlink="http://www.w3.org/1999/xlink">
    <!-- Generator: Sketch 53 (72520) - https://sketchapp.com -->
    <title>mercury-logo</title>
    <desc>Created with Sketch.</desc>
    <g id="Page-1" stroke="none" stroke-width="1" fill="none" fill-rule="evenodd">
        <g id="DAP---Fintech-Marketing-" transform="translate(-1064.000000, -930.000000)" fill="#231F20" fill-rule="nonzero">
            <g id="Partners" transform="translate(0.000000, 841.000000)">
                <g id="mercury-logo" transform="translate(1064.000000, 88.000000)">
                    <g id="g10" transform="translate(172.804515, 17.313333) scale(-1, 1) rotate(-180.000000) translate(-172.804515, -17.313333) translate(0.000000, 0.202223)">
                        <g id="g12" transform="translate(0.000000, 1.400000)">
                            <polyline id="path14" points="0 31.1597992 5.22359119 31.1597992 17.0696457 7.91752869 17.3103209 7.91752869 28.9390483 31.1597992 34.0764249 31.1597992 34.0764249 0.871961978 28.9390483 0.871961978 28.9390483 25.6794216 28.7643672 25.6794216 16.2835024 0.871961978 15.2352436 0.871961978 2.60110674 25.505666 2.25229183 25.505666 2.25229183 0.871961978 0 0.871961978 0 31.1597992"></polyline>
                            <polyline id="path16" points="83.9232558 31.1597992 83.9232558 29.201977 67.880585 29.201977 67.880585 18.3756218 78.6124491 18.3756218 78.6124491 16.4184218 67.880585 16.4184218 67.880585 2.83037993 83.9232558 2.83037993 83.9232558 0.871961978 62.7655713 0.871961978 62.7655713 31.1597992 83.9232558 31.1597992"></polyline>
                            <path d="M115.760885,16.6358885 L118.711541,16.6358885 C119.863624,16.6358885 120.923439,16.7878662 121.892239,17.0922885 C122.861196,17.3960885 123.703012,17.827444 124.417687,18.3865107 C125.130486,18.9437106 125.687683,19.6206884 126.088965,20.419155 C126.489778,21.2151328 126.68948,22.1077106 126.68948,23.0933105 C126.68948,23.991955 126.528874,24.8213772 126.208755,25.5815771 C125.889262,26.3441105 125.44388,26.9961993 124.876362,27.5387771 C124.308375,28.0825993 123.629667,28.5067993 122.842273,28.8105993 C122.055973,29.1150215 121.19586,29.2669993 120.263029,29.2669993 L115.760885,29.2669993 L115.760885,16.6358885 Z M110.646028,31.1597992 L121.182411,31.1597992 C123.016954,31.1597992 124.624114,30.9641103 126.001077,30.5727326 C127.37804,30.1813548 128.526369,29.6339548 129.4445,28.9302215 C130.362163,28.227266 131.053068,27.3930215 131.519718,26.431066 C131.986369,25.4667771 132.220945,24.4113327 132.220945,23.2670661 C132.220945,22.3247106 132.041416,21.4441106 131.684078,20.6251106 C131.327835,19.8065773 130.820212,19.066444 130.165431,18.408444 C129.509869,17.7485773 128.723726,17.1755107 127.803717,16.6893996 C126.886212,16.2045329 125.873937,15.8313552 124.766424,15.5707529 L135.849527,0.871961978 L129.924756,0.871961978 L119.344897,15.1138085 L115.760885,15.1138085 L115.760885,0.871961978 L110.646028,0.871961978 L110.646028,31.1597992 L110.646028,31.1597992 Z" id="path18"></path>
                            <path d="M165.390342,15.9189329 C165.390342,13.7873241 165.710929,11.8811619 166.352104,10.1992175 C166.993279,8.51787979 167.873722,7.09418871 168.996561,5.92752207 C170.119399,4.76085544 171.448665,3.86883768 172.985921,3.25391103 C174.523178,2.63714882 176.188669,2.32908661 177.979268,2.32908661 C179.044244,2.32908661 180.070124,2.53567994 181.0616,2.95007993 C182.053076,3.36328214 182.975742,3.89800435 183.828036,4.55729544 C184.68033,5.21840654 185.441921,5.96396874 186.112809,6.79825983 C186.782133,7.63073092 187.335733,8.4753509 187.773609,9.33029977 L189.916072,7.96007313 C189.288972,6.94530649 188.547711,5.96701763 187.695417,5.02517543 C186.843123,4.08333323 185.857903,3.25391103 184.735064,2.53567994 C183.612226,1.81866218 182.34395,1.2426213 180.930237,0.808159313 C179.518088,0.372482435 177.93548,0.154947913 176.188669,0.154947913 C174.512231,0.154947913 172.931187,0.34817688 171.445537,0.73098976 C169.958323,1.11501753 168.59309,1.65156285 167.348272,2.3394155 C166.100326,3.02908659 164.985307,3.85850879 164.003214,4.82951766 C163.019558,5.79991986 162.187594,6.86936427 161.51045,8.03785091 C160.833307,9.20269755 160.312547,10.454422 159.948172,11.786973 C159.583797,13.120753 159.402391,14.4982596 159.402391,15.9189329 C159.402391,17.3389996 159.588489,18.7189329 159.959119,20.0599773 C160.331314,21.4010217 160.86302,22.661955 161.554238,23.8430883 C162.24702,25.0249994 163.096186,26.1078216 164.101736,27.0940438 C165.105722,28.0796437 166.239508,28.9230659 167.499964,29.6253993 C168.758857,30.3291326 170.141293,30.8771548 171.642581,31.2685326 C173.142305,31.6597548 174.746807,31.8548214 176.451394,31.8548214 C178.066843,31.8548214 179.557184,31.6373548 180.91929,31.2028881 C182.281397,30.7684215 183.527778,30.1923992 184.658436,29.473577 C185.789094,28.7564659 186.789952,27.9270437 187.66414,26.9853104 C188.536764,26.0427993 189.288972,25.0638883 189.916072,24.0496661 L187.707928,22.5714217 C186.425577,25.0195549 184.99779,26.817466 183.423001,27.9629771 C181.848212,29.1089548 180.043539,29.6820215 178.001162,29.6820215 C176.240276,29.6820215 174.59355,29.3617326 173.062549,28.7236437 C171.533112,28.0857104 170.199155,27.173066 169.062242,25.9857105 C167.926893,24.7964883 167.030812,23.3540216 166.373998,21.6569106 C165.718748,19.9627551 165.390342,18.048644 165.390342,15.9189329" id="path20"></path>
                            <path d="M216.746905,31.1597992 L221.862232,31.1597992 L221.862232,11.5056353 C221.862232,10.2144153 222.084297,9.00095755 222.528428,7.86285091 C222.974123,6.72535094 223.610607,5.72881541 224.441007,4.87325988 C225.272971,4.01831101 226.270702,3.34383769 227.435764,2.85164437 C228.60239,2.35764661 229.906634,2.11154217 231.348496,2.11154217 C232.805996,2.11154217 234.11806,2.35764661 235.283122,2.85164437 C236.449748,3.34383769 237.43966,4.01831101 238.254421,4.87325988 C239.070747,5.72881541 239.697847,6.72535094 240.135723,7.86285091 C240.573599,9.00095755 240.790973,10.2144153 240.790973,11.5056353 L240.790973,31.1597992 L243.042905,31.1597992 L243.042905,11.5056353 C243.042905,9.95494864 242.79269,8.49358201 242.287569,7.12456871 C241.785576,5.75312875 240.994272,4.54939322 239.916785,3.51519769 C238.837734,2.47795327 237.458426,1.65885374 235.774168,1.05729242 C234.091474,0.457552655 232.069427,0.154947913 229.70959,0.154947913 C227.612478,0.154947913 225.75307,0.457552655 224.136058,1.05729242 C222.517481,1.65885374 221.163194,2.4809866 220.070069,3.52613325 C218.97538,4.56944433 218.149671,5.78654208 217.589816,7.17803315 C217.028397,8.56952423 216.746905,10.047302 216.746905,11.6138086 L216.746905,31.1597992" id="path22"></path>
                            <path d="M276.299564,16.6358885 L279.248969,16.6358885 C280.403085,16.6358885 281.460242,16.7878662 282.429823,17.0922885 C283.400969,17.3960885 284.240752,17.827444 284.955428,18.3865107 C285.66854,18.9437106 286.225267,19.6206884 286.627175,20.419155 C287.029082,21.2151328 287.22769,22.1077106 287.22769,23.0933105 C287.22769,23.991955 287.066614,24.8213772 286.747591,25.5815771 C286.427003,26.3441105 285.982872,26.9961993 285.415197,27.5387771 C284.845959,28.0825993 284.167252,28.5067993 283.380639,28.8105993 C282.594027,29.1150215 281.733914,29.2669993 280.8003,29.2669993 L276.299564,29.2669993 L276.299564,16.6358885 Z M271.184237,31.1597992 L281.719839,31.1597992 C283.55579,31.1597992 285.161855,30.9641103 286.5396,30.5727326 C287.91578,30.1813548 289.065204,29.6339548 289.983179,28.9302215 C290.89959,28.227266 291.592372,27.3930215 292.058397,26.431066 C292.524422,25.4667771 292.758998,24.4113327 292.758998,23.2670661 C292.758998,22.3247106 292.579157,21.4441106 292.221037,20.6251106 C291.866045,19.8065773 291.357796,19.066444 290.702546,18.408444 C290.048861,17.7485773 289.262248,17.1755107 288.342709,16.6893996 C287.424734,16.2045329 286.411365,15.8313552 285.304165,15.5707529 L296.387111,0.871961978 L290.463279,0.871961978 L279.883889,15.1138085 L276.299564,15.1138085 L276.299564,0.871961978 L271.184237,0.871961978 L271.184237,31.1597992 L271.184237,31.1597992 Z" id="path24"></path>
                            <polyline id="path26" points="320.596946 31.1597992 331.154441 15.8095774 341.666586 31.1597992 344.443969 31.1597992 332.640091 13.9605041 332.640091 0.871961978 327.524765 0.871961978 327.524765 13.4822952 315.350257 31.1597992 320.596946 31.1597992"></polyline>
                        </g>
                    </g>
                </g>
            </g>
        </g>
    </g>
</svg>