<?xml version="1.0" encoding="UTF-8"?>
<svg width="57px" height="57px" viewBox="0 0 57 57" version="1.1" xmlns="http://www.w3.org/2000/svg" xmlns:xlink="http://www.w3.org/1999/xlink">
    <!-- Generator: Sketch 53 (72520) - https://sketchapp.com -->
    <title>stocks</title>
    <desc>Created with Sketch.</desc>
    <g id="Page-1" stroke="none" stroke-width="1" fill="none" fill-rule="evenodd">
        <g id="DAP---Fintech-Marketing-" transform="translate(-1274.000000, -9171.000000)" fill="#FFFFFF">
            <g id="Our-Customers" transform="translate(0.000000, 8621.000000)">
                <g id="Row-2" transform="translate(200.000000, 506.000000)">
                    <g id="4" transform="translate(965.000000, 0.000000)">
                        <g id="stocks" transform="translate(109.000000, 44.000000)">
                            <path d="M1.1875,52.25 C1.04025,52.25 0.890625,52.22625 0.74575,52.155 C0.13775,51.9175 -0.15675,51.22875 0.0855,50.61125 L9.5855,26.86125 C9.744625,26.48125 10.105625,26.19625 10.533125,26.125 C10.955875,26.0775 11.381,26.2675 11.6375,26.6 L17.401625,34.295 L23.809375,15.0575 C23.95425,14.63 24.3295,14.32125 24.78075,14.25 C25.243875,14.17875 25.676125,14.3925 25.9255,14.7725 L29.4785,20.11625 L38.102125,0.7125 C38.482125,-0.1425 39.892875,-0.1425 40.272875,0.7125 L48.594875,19.4275 L54.701,3.135 C54.931375,2.54125 55.620125,2.20875 56.2305,2.44625 C56.845625,2.68375 57.154375,3.3725 56.924,3.99 L49.799,22.99 C49.628,23.44125 49.20525,23.72625 48.723125,23.75 C48.2315,23.72625 47.796875,23.48875 47.602125,23.0375 L39.1875,4.10875 L30.772875,23.0375 C30.597125,23.44125 30.2195,23.7025 29.78725,23.75 C29.35025,23.77375 28.939375,23.58375 28.6995,23.2275 L25.296125,18.12125 L18.940625,37.1925 C18.8005,37.59625 18.4395,37.905 18.0025,37.97625 C17.57025,38.07125 17.1285,37.88125 16.8625,37.525 L11.00575,29.71125 L2.2895,51.51375 C2.10425,51.965 1.65775,52.25 1.1875,52.25" id="Fill-6589"></path>
                            <path d="M55.8125,57 L1.1875,57 C0.532,57 0,56.4775 0,55.8125 C0,55.1475 0.532,54.625 1.1875,54.625 L55.8125,54.625 C56.468,54.625 57,55.1475 57,55.8125 C57,56.4775 56.468,57 55.8125,57" id="Fill-6590"></path>
                            <path d="M8.3125,52.25 C7.953875,52.25 7.59525,52.08375 7.3625,51.775 C6.970625,51.2525 7.075125,50.51625 7.6,50.1125 L16.978875,43.0825 L26.383875,31.32625 C26.676,30.97 27.15575,30.80375 27.599875,30.89875 L35.822125,32.965 L38.011875,17.64625 C38.0855,17.12375 38.49875,16.72 39.023625,16.625 C39.555625,16.5775 40.05675,16.83875 40.272875,17.3375 L48.84425,36.6225 L54.793625,26.695 C55.13325,26.14875 55.867125,25.95875 56.422875,26.29125 C56.98575,26.62375 57.168625,27.36 56.831375,27.93 L49.706375,39.805 C49.478375,40.185 49.05325,40.39875 48.61625,40.375 C48.172125,40.35125 47.782625,40.06625 47.602125,39.6625 L39.778875,22.06375 L37.988125,34.60375 C37.940625,34.93625 37.753,35.245 37.475125,35.435 C37.1925,35.60125 36.8505,35.6725 36.525125,35.60125 L27.76375,33.3925 L18.741125,44.67375 C18.677,44.76875 18.60575,44.84 18.525,44.8875 L9.025,52.0125 C8.81125,52.17875 8.5595,52.25 8.3125,52.25" id="Fill-6591"></path>
                        </g>
                    </g>
                </g>
            </g>
        </g>
    </g>
</svg>