<?xml version="1.0" encoding="UTF-8"?>
<svg width="43px" height="43px" viewBox="0 0 43 43" version="1.1" xmlns="http://www.w3.org/2000/svg" xmlns:xlink="http://www.w3.org/1999/xlink">
    <!-- Generator: Sketch 52.6 (67491) - http://www.bohemiancoding.com/sketch -->
    <title>Icon</title>
    <desc>Created with Sketch.</desc>
    <g id="Page-1" stroke="none" stroke-width="1" fill="none" fill-rule="evenodd">
        <g id="DAP---Healthcare-marketing-page" transform="translate(-675.000000, -4623.000000)" fill-rule="nonzero">
            <g id="Services-Covered" transform="translate(0.000000, 4262.000000)">
                <g id="2" transform="translate(660.000000, 344.000000)">
                    <g id="Title">
                        <g id="Icon" transform="translate(16.000000, 17.000000)">
                            <g id="Group_101">
                                <path d="M34.46226,29.1429307 L38.28426,33.0171881 C36.16536,35.1407921 34.0704,37.2392772 31.97586,39.3607525 L28.20048,35.5337525 C27.153,35.9535347 26.17902,36.3486238 25.22898,36.7432871 C25.0915846,36.8487363 25.0105242,37.0130737 25.00974,37.1877624 C24.98538,38.9162772 25.00974,40.6443663 25.00974,42.3975743 L16.12296,42.3975743 L16.12296,40.891297 C16.12296,39.7060297 16.0986,38.5211881 16.12296,37.3359208 C16.14732,36.867604 15.9768,36.6445149 15.51396,36.6445149 C15.44088,37.1630693 15.39216,37.6816238 15.29472,38.1771881 C14.9394349,39.7281738 13.9396255,41.0475346 12.5528768,41.7953583 C11.1661281,42.543182 9.52804006,42.6463444 8.06064,42.0782673 C5.94523437,41.3431446 4.51909382,39.3332151 4.5045,37.0664257 C4.45578,34.2765347 4.48014,31.5113366 4.48014,28.7218713 L4.48014,18.0817129 C4.48329958,17.595845 4.35706239,17.1181157 4.11474,16.698901 C2.77536,14.3781782 1.45992,12.0327624 0.12012,9.68692079 C-0.0381983821,9.46606503 -0.0381983821,9.16698447 0.12012,8.94612871 C1.6548,6.2550099 3.18906,3.53919802 4.72374,0.822960396 C4.82472634,0.563172774 5.08280586,0.402183121 5.3571,0.427871287 C6.1131,0.452564356 6.89178,0.427871287 7.69566,0.427871287 L7.69566,1.63783168 C7.69566,3.24288119 7.69566,4.84750495 7.72002,6.47724752 C7.73431097,6.72844684 7.83890286,6.9656331 8.01402,7.1439604 C8.64738,7.7859802 9.30468,8.37861386 9.98802,9.02063366 C10.71882,8.32922772 11.4492,7.68720792 12.13002,6.99622772 C12.2158451,6.8471986 12.2501374,6.67339267 12.22746,6.50236634 L12.22746,0.478108911 C13.12878,0.478108911 13.98096,0.478108911 14.8092,0.50280198 C14.931,0.50280198 15.07716,0.650960396 15.15024,0.774425743 C15.4405796,1.29300431 15.7575551,1.79578751 16.09986,2.28070297 L16.09986,0.527920792 L24.99,0.527920792 L24.99,6.05831683 C26.06184,6.50279208 27.08496,6.92257426 28.13202,7.3670495 L31.95402,3.49279208 C34.09602,5.64066337 36.19224,7.73957426 38.31114,9.88744554 L35.4858,12.7514158 C35.14476,13.0971188 34.6332,13.3934356 34.53576,13.8132178 C34.46268,14.1836139 34.85244,14.6527822 35.02296,15.0725644 C35.2128855,15.4862574 35.3674521,15.9157029 35.48496,16.3561782 C35.5824,16.824495 35.826,16.9241188 36.24096,16.8994257 C37.72692,16.8747327 39.1881,16.8994257 40.67364,16.8994257 L41.23392,16.8994257 L41.23392,25.985198 L36.11874,25.985198 C35.8513452,25.9389393 35.5948198,26.1122946 35.5341,26.3802871 C35.21742,27.2909505 34.82766,28.2045941 34.46226,29.1429307 Z M31.27026,13.3661881 C32.4639,12.1562277 33.65754,10.9713861 34.80204,9.81081188 C33.87804,8.87417822 32.9511,7.93456436 31.95234,6.94684158 C30.80742,8.13210891 29.66292,9.34164356 28.49364,10.576297 C26.7172671,9.31290156 24.6882171,8.46154924 22.55064,8.08272277 L22.55064,2.97381188 L18.53166,2.97381188 C18.53166,3.66521782 18.58038,4.30723762 18.53166,4.94883168 C18.3660601,6.13831462 18.6921826,7.34433613 19.43298,8.2819703 C20.04198,9.02276238 19.99326,9.68947525 19.43298,10.4298416 C19.09194,10.8981584 18.84834,11.4422574 18.53166,11.985505 C22.84296,11.2191683 26.71578,12.9979208 28.78596,16.5779901 C30.8440577,20.1034101 30.4731893,24.5634158 27.86196,27.6898713 C26.6703282,29.1842422 25.0412165,30.2562941 23.20962,30.7513861 C20.6001012,31.5124468 17.7946848,31.1176844 15.48834,29.6648911 C15.48834,31.072396 15.48834,32.405396 15.5127,33.7388218 C15.5127,33.8622871 15.68322,34.0368416 15.82938,34.0845248 C16.7307,34.3825446 17.63202,34.6524653 18.58164,34.9487822 L18.58164,39.9606238 L22.62498,39.9606238 L22.62498,34.8517129 C24.7735856,34.470795 26.8118346,33.6106398 28.59234,32.3334455 C29.76162,33.568099 30.93048,34.7776337 32.05104,35.9382079 C33.02544,34.9751782 33.95112,34.0372673 34.9251,33.0742376 C33.75582,31.8889703 32.5626,30.7041287 31.44204,29.5682475 C31.97796,28.5558317 32.51388,27.6179208 32.928,26.6548911 C33.34212,25.6671683 33.58572,24.6053663 33.92676,23.494604 L38.871,23.494604 L38.871,19.3712871 C38.79792,19.3465941 38.77356,19.321901 38.7492,19.321901 L34.90074,19.321901 C33.85326,19.321901 33.85326,19.321901 33.60966,18.3094851 C33.0970748,16.5449797 32.3074408,14.875691 31.2711,13.3657624 L31.27026,13.3661881 Z M27.6654,21.7358614 C27.6654,17.2919604 24.2067,13.9835149 20.11464,14.2547129 C18.16626,14.3781782 16.41234,14.9708119 15.63324,17.069297 C15.5504332,17.2565619 15.5009512,17.4571963 15.48708,17.6619307 L15.48708,26.2044554 C15.4978905,26.3907717 15.5759238,26.56655 15.70632,26.6983168 C17.97138,28.7721089 20.60184,29.2659703 23.37888,28.0564356 C26.15592,26.846901 27.51966,24.5257525 27.66582,21.7358614 L27.6654,21.7358614 Z M6.88884,18.2298713 L6.88884,28.2045941 C6.88884,31.1179505 6.86448,34.0313069 6.88884,36.9446634 C6.89567658,37.7760636 7.23288152,38.5695614 7.82420885,39.1457377 C8.41553618,39.721914 9.21104446,40.0321069 10.03086,40.0061782 C11.73564,39.9814851 13.02672,38.5739802 13.02672,36.6730396 L13.02672,18.6739208 C13.02672,18.5257624 13.00236,18.402297 13.00236,18.2294455 L6.88884,18.2298713 Z M5.25672,4.99608911 C5.22238219,4.99978414 5.18786269,4.99103627 5.15928,4.97139604 C4.37976,6.32951485 3.60066,7.68720792 2.8455,9.0700198 C2.78038703,9.2553314 2.78912603,9.45907667 2.86986,9.6379604 C3.9417,11.5635941 5.03748,13.4649604 6.10932,15.3905941 C6.21049227,15.6067708 6.43471175,15.7352363 6.6696,15.711604 L13.17288,15.711604 C13.4285333,15.7392628 13.6697549,15.5863281 13.7571,15.3412079 C14.82894,13.4402673 15.8991,11.538901 16.99656,9.63625743 C17.14272,9.43871287 17.14272,9.16708911 16.99656,8.96954455 C16.33884,7.85835644 15.7059,6.72290099 15.07254,5.5870198 C14.95074,5.36478218 14.82894,5.16723762 14.70714,4.945 C14.6097,5.8339505 14.63406,6.69778218 14.58534,7.53734653 C14.5738357,7.76949559 14.4784545,7.9892349 14.31738,8.15467327 C13.44042,9.01893069 12.51474,9.88276238 11.61384,10.7223267 C11.05356,11.2655743 10.46892,11.7841287 9.88428,12.3273762 C8.37228,10.8951782 6.88842,9.48809901 5.42682,8.08059406 C5.29517146,7.92989578 5.21787596,7.73836782 5.20758,7.53734653 C5.25798,6.74887129 5.25798,5.8850396 5.25798,4.99608911 L5.25672,4.99608911 Z" id="Path_427" stroke="#57C1CA" stroke-width="0.63" fill="#FFFFFF"></path>
                                <path d="M5.84262,5.14424752 C5.80828219,5.14794255 5.77376269,5.13919468 5.74518,5.11955446 C4.96566,6.47767327 4.18656,7.83536634 3.4314,9.21817822 C3.36626685,9.40334189 3.37500712,9.60696381 3.45576,9.78569307 C4.52718,11.7117525 5.62338,13.6126931 6.69522,15.5383267 C6.79629631,15.754594 7.02058473,15.883099 7.2555,15.8593366 L13.75878,15.8593366 C14.0145453,15.8870439 14.2559125,15.7341268 14.34342,15.4889406 C15.41526,13.588 16.48542,11.6866337 17.58288,9.7839901 C17.7289002,9.58639831 17.7289002,9.31486901 17.58288,9.11727723 C16.92516,8.00608911 16.2918,6.87063366 15.65844,5.73475248 C15.53664,5.51251485 15.41484,5.3149703 15.29304,5.09273267 C15.1956,5.98168317 15.21996,6.84551485 15.17124,7.68507921 C15.1596968,7.91721893 15.0643214,8.1369448 14.90328,8.30240594 C14.02632,9.16666337 13.10064,10.030495 12.19974,10.8700594 C11.63946,11.4133069 11.05482,11.9318614 10.47018,12.4751089 C8.95818,11.0429109 7.47432,9.63583168 6.01272,8.22832673 C5.88125247,8.07755189 5.80411176,7.88604059 5.7939,7.68507921 C5.84262,6.8970297 5.84262,6.03149505 5.84262,5.14424752 Z" id="Path_425" fill="#FCA50C"></path>
                            </g>
                        </g>
                    </g>
                </g>
            </g>
        </g>
    </g>
</svg>