<?xml version="1.0" encoding="UTF-8"?>
<svg width="47px" height="43px" viewBox="0 0 47 43" version="1.1" xmlns="http://www.w3.org/2000/svg" xmlns:xlink="http://www.w3.org/1999/xlink">
    <!-- Generator: Sketch 52.6 (67491) - http://www.bohemiancoding.com/sketch -->
    <title>Icon</title>
    <desc>Created with Sketch.</desc>
    <g id="Page-1" stroke="none" stroke-width="1" fill="none" fill-rule="evenodd">
        <g id="DAP---Healthcare-marketing-page" transform="translate(-286.000000, -4623.000000)" fill-rule="nonzero">
            <g id="Services-Covered" transform="translate(0.000000, 4262.000000)">
                <g id="1" transform="translate(270.000000, 344.000000)">
                    <g id="Title">
                        <g id="Icon" transform="translate(16.000000, 17.000000)">
                            <g id="Group_79" transform="translate(0.484898, 0.146178)">
                                <g id="Group_78" transform="translate(29.654694, 10.076000)" fill="#FCA50C">
                                    <g id="Group_77">
                                        <path d="M6.47755102,1.05746667 C4.54530612,-0.4664 1.63493878,-0.180888889 0.394285714,0.890755556 C1.37387755,1.86853333 2.35053061,2.84337778 3.35216327,3.81968889 C4.37779592,2.91475556 5.42791837,2.00982222 6.47755102,1.05746667 Z" id="Path_203"></path>
                                    </g>
                                </g>
                                <path d="M29.882449,35.992 C30.0734694,36.6348889 30.264,37.2303556 30.4310204,37.8008889 C30.7170612,38.6808889 30.9795918,39.5868 31.2636735,40.4897778 C31.2691682,40.5688745 31.3097957,40.6413794 31.37444,40.6874549 C31.4390843,40.7335304 31.5209778,40.7483528 31.5977143,40.7278667 L32.8858776,40.7278667 C33.249258,40.6978733 33.5982691,40.8760522 33.7865853,41.1877004 C33.9749014,41.4993487 33.9699765,41.8906051 33.7738754,42.1974324 C33.5777742,42.5042597 33.2243884,42.67363 32.8618776,42.6345333 L13.992,42.6345333 C13.6260359,42.6727553 13.2699003,42.5010606 13.0723811,42.1911807 C12.8748618,41.8813008 12.8699497,41.4865626 13.0596971,41.1718815 C13.2494444,40.8572003 13.6011977,40.6767294 13.968,40.7058667 L15.2561633,40.7058667 C15.3716878,40.6953706 15.4766153,40.6343211 15.5426939,40.5391556 C16.0197551,39.0627111 16.4733061,37.5867556 16.9263673,36.1103111 C16.926189,36.0693713 16.9180378,36.0288566 16.9023673,35.9910222 L6.0004898,35.9910222 C4.6391109,36.0353003 3.31067469,35.5678937 2.27804082,34.6812889 C1.10144612,33.6696692 0.44419815,32.1826899 0.488816327,30.6332889 L0.488816327,5.79773333 C0.425191839,3.2283763 2.26676612,1.00448148 4.80685714,0.583244444 C5.16138724,0.516467915 5.52168835,0.485024515 5.88244898,0.489377778 L40.9028571,0.489377778 C43.4091214,0.399676373 45.6198025,2.11490409 46.1510204,4.56133333 C46.2575376,5.06206452 46.3055315,5.57343433 46.2940408,6.0852 L46.2940408,26.1345333 C46.2940408,27.8011556 46.3180408,29.4682667 46.2450612,31.1348889 C46.071223,33.7202573 44.0152475,35.782437 41.4259592,35.9685333 C41.0919184,35.9924889 40.7578776,35.9924889 40.4238367,35.9924889 L29.882449,35.992 Z M2.4484898,25.8485333 L44.4342857,25.8485333 L44.4342857,5.53715556 C44.3883036,4.37894204 43.7360243,3.33002478 42.7165714,2.77493333 C42.1402592,2.46227268 41.4859818,2.32174814 40.8318367,2.37013333 L27.2101224,2.37013333 C20.1487347,2.37013333 13.0638367,2.39408889 6.00195918,2.37013333 C5.05260725,2.34097177 4.13272971,2.70126671 3.45659934,3.36709241 C2.78046898,4.03291811 2.40711686,4.94614318 2.4235102,5.89404444 C2.4724898,12.3962667 2.4475102,18.8950667 2.4475102,25.3958222 L2.4475102,25.8480444 L2.4484898,25.8485333 Z M2.472,27.7552 L2.472,31.1363556 C2.49343978,31.3889187 2.54964176,31.6373287 2.63902041,31.8745778 C3.14436458,33.264725 4.49921499,34.1631128 5.97893878,34.0892444 L40.9273469,34.0892444 C42.6942923,34.1728551 44.2207894,32.8683826 44.4102857,31.1128889 C44.5057959,30.0177778 44.4337959,28.9221778 44.4337959,27.8505333 C44.4337959,27.8265778 44.4102857,27.8265778 44.3848163,27.8016444 C30.405551,27.7527556 16.4737959,27.7527556 2.47053061,27.7527556 L2.472,27.7552 Z M17.548898,40.7107556 L29.3573878,40.7107556 C28.8803265,39.1868889 28.4267755,37.6864889 27.9497143,36.1865778 C27.9257143,36.0912444 27.7351837,36.0198667 27.6396735,36.0198667 L19.3131429,36.0198667 C19.1294431,35.9964294 18.9602968,36.1228378 18.931102,36.3053778 C18.6685714,37.1853778 18.4065306,38.0433778 18.12,38.9248444 C17.9289796,39.4697926 17.7386122,40.0637926 17.548898,40.7068444 L17.548898,40.7107556 Z" id="Path_204" fill="#FFFFFF"></path>
                                <path d="M39.3291429,14.9668444 C39.3620078,18.9055528 36.1897728,22.1251001 32.243757,22.1579052 C28.2977412,22.1907104 25.0722199,19.0243508 25.0393528,15.0856424 C25.0064857,11.1469341 28.1787189,7.92738509 32.1247347,7.89457778 C34.0218548,7.871493 35.8496973,8.60537045 37.2023906,9.9332529 C38.5550838,11.2611353 39.320667,13.0731157 39.3291429,14.9668444 Z M31.2421224,20.0864889 L31.2421224,15.4909333 C31.2210891,15.3656275 31.1629127,15.2494901 31.075102,15.1575111 C30.0955102,14.1572444 29.1188571,13.1814222 28.1407347,12.2051111 C28.0581124,12.1279628 27.9704059,12.0564249 27.8782041,11.9909778 C26.8741994,13.4404422 26.6936901,15.3054571 27.4011429,16.9199556 C28.0452245,18.634 29.3573878,19.6577333 31.2421224,20.0864889 Z M33.1743673,20.0864889 C34.8572969,19.7568827 36.2741228,18.6301631 36.9719968,17.066454 C37.6698708,15.5027449 37.5614194,13.6978221 36.6813061,12.2285778 C35.5121633,13.2762667 34.3910204,14.2525778 33.2938776,15.2763111 C33.1983673,15.3476889 33.1743673,15.5383556 33.1508571,15.6571556 L33.1508571,19.8004889 C33.1493933,19.8963573 33.1572671,19.9921408 33.1743673,20.0864889 Z M35.3691429,10.7976 C33.436898,9.27373333 30.5265306,9.55924444 29.2858776,10.6308889 C30.2654694,11.6086667 31.2421224,12.5835111 32.2442449,13.5598222 C33.2698776,12.6798222 34.2955102,11.7509333 35.3691429,10.7976 Z" id="Path_205" fill="#FFFFFF"></path>
                                <path d="M17.1928163,16.5620889 L17.1928163,21.8244889 C17.2287462,22.1542486 17.1046051,22.481287 16.8587755,22.7044889 C16.5932244,22.9469402 16.2102211,23.0121213 15.8791837,22.8712 C15.5422096,22.7501709 15.3084855,22.4421189 15.283102,22.0855556 L15.283102,11.2517778 C15.2470955,10.909293 15.3998996,10.5742357 15.6823085,10.3764281 C15.9647175,10.1786205 16.3323551,10.149145 16.6427755,10.2994222 C17.013178,10.4780479 17.2323125,10.8686348 17.1913469,11.2772 L17.1913469,16.5635556 L17.1928163,16.5620889 Z" id="Path_206" fill="#FFFFFF"></path>
                                <path d="M20.0532245,17.4904889 L20.0532245,13.0616444 C20.0429568,12.6397161 20.3014179,12.2575489 20.6973061,12.1092889 C21.0948173,11.9597177 21.5429371,12.1088824 21.7709388,12.4666667 C21.8914933,12.6598641 21.9574938,12.8819924 21.9619592,13.1095556 L21.9619592,21.8499111 C21.9888823,22.118523 21.9003919,22.3859275 21.7184744,22.5856848 C21.5365569,22.7854421 21.2782877,22.8988024 21.0078367,22.8976 C20.7322587,22.8947042 20.4702729,22.7776593 20.2845193,22.5744503 C20.0987657,22.3712414 20.005943,22.1001363 20.0282449,21.8259556 C20.0532245,20.3954667 20.0532245,18.9429778 20.0532245,17.4904889 Z" id="Path_207" fill="#FFFFFF"></path>
                                <path d="M7.64865306,17.9906222 L7.64865306,21.9907111 C7.6515643,22.4222993 7.35429945,22.7982187 6.93306122,22.8956444 C6.52112847,22.9974365 6.09176125,22.8124485 5.88342857,22.4434222 C5.80499543,22.279806 5.76432388,22.1007148 5.76440816,21.9193333 L5.76440816,14.014 C5.75331827,13.670716 5.93046754,13.3486633 6.2266008,13.173746 C6.52273407,12.9988288 6.89081695,12.9988288 7.18695022,13.173746 C7.48308348,13.3486633 7.66023275,13.670716 7.64914286,14.014 L7.64865306,17.9906222 Z" id="Path_208" fill="#FFFFFF"></path>
                                <path d="M12.4202449,19.4196444 L12.4202449,21.8724 C12.4481965,22.1372728 12.363284,22.4016709 12.1862648,22.6009601 C12.0092457,22.8002493 11.7564345,22.9160627 11.4896327,22.9200889 C11.2243502,22.9187996 10.9714025,22.8081065 10.7907108,22.6142319 C10.610019,22.4203573 10.5176591,22.1605497 10.5355102,21.8963556 L10.5355102,16.9429333 C10.5122615,16.6814363 10.5995549,16.4221398 10.7762904,16.2277194 C10.953026,16.0332989 11.2031204,15.9214471 11.4661224,15.9192 C11.7341038,15.9189044 11.9905066,16.0282042 12.1755985,16.2216366 C12.3606904,16.4150689 12.4583096,16.6757437 12.4457143,16.9429333 C12.4202449,17.7525333 12.4202449,18.5860889 12.4202449,19.4196444 Z" id="Path_209" fill="#FFFFFF"></path>
                                <path d="M39.9972245,29.5411111 C40.2524665,29.5337376 40.499467,29.6317051 40.6800259,29.8119297 C40.8605849,29.9921542 40.9587341,30.2386973 40.9513469,30.4934667 C40.9313409,31.0070672 40.5121168,31.4152041 39.9972245,31.4223556 C39.4780024,31.4041898 39.0613015,30.9882605 39.043102,30.47 C39.0325232,30.2164027 39.1304765,29.9702778 39.312514,29.7930546 C39.4945515,29.6158314 39.7434996,29.5242294 39.9972245,29.5411111 Z" id="Path_210" fill="#FFFFFF"></path>
                            </g>
                        </g>
                    </g>
                </g>
            </g>
        </g>
    </g>
</svg>