<?xml version="1.0" encoding="UTF-8"?>
<svg width="160px" height="160px" viewBox="0 0 160 160" version="1.1" xmlns="http://www.w3.org/2000/svg" xmlns:xlink="http://www.w3.org/1999/xlink">
    <!-- Generator: Sketch 52.6 (67491) - http://www.bohemiancoding.com/sketch -->
    <title>Icon 1</title>
    <desc>Created with Sketch.</desc>
    <g id="Page-1" stroke="none" stroke-width="1" fill="none" fill-rule="evenodd">
        <g id="DAP---Healthcare-marketing-page" transform="translate(-1150.000000, -6335.000000)">
            <g id="What-you-get" transform="translate(270.000000, 5998.000000)">
                <g id="Tiles" transform="translate(0.000000, 277.000000)">
                    <g id="3" transform="translate(780.000000, 0.000000)">
                        <g id="Icon-1" transform="translate(100.000000, 60.000000)">
                            <g id="Time" fill="#FFF8F4">
                                <circle id="Oval" cx="80" cy="80" r="80"></circle>
                            </g>
                            <g id="Group-92" transform="translate(41.000000, 49.000000)" fill="#FF6E28">
                                <path d="M39,54.0952381 C38.3081739,54.0952381 37.6841739,53.6895238 37.4264348,53.0471429 L24.9396522,21.9085714 L13.1955652,36.5480952 C12.87,36.9538095 12.3850435,37.1904762 11.8695652,37.1904762 L1.69565217,37.1904762 C0.759652174,37.1904762 0,36.4466667 0,35.5 C0,34.5533333 0.759652174,33.8095238 1.69565217,33.8095238 L11.0556522,33.8095238 L24.1087826,17.5471429 C24.4886087,17.0738095 25.0922609,16.8371429 25.6823478,16.9385714 C26.2826087,17.0061905 26.7845217,17.4119048 27.0083478,17.9528571 L38.6269565,46.927619 L40.7465217,38.4752381 C40.9364348,37.7314286 41.6146957,37.1904762 42.3913043,37.1904762 L44.5617391,37.1904762 L50.9577391,18.0542857 C51.1815652,17.3780952 51.8021739,16.9385714 52.5143478,16.9047619 C53.2061739,16.8709524 53.8742609,17.3104762 54.1387826,17.9528571 L66.1304348,47.8404762 L71.3394783,34.857619 C71.5972174,34.2152381 72.2178261,33.8095238 72.9130435,33.8095238 L76.3043478,33.8095238 C77.2403478,33.8095238 78,34.5533333 78,35.5 C78,36.4466667 77.2403478,37.1904762 76.3043478,37.1904762 L74.0593043,37.1904762 L67.704,53.0471429 C67.1885217,54.3319048 65.0723478,54.3319048 64.5568696,53.0471429 L52.7076522,23.497619 L47.390087,39.4219048 C47.1594783,40.0980952 46.5117391,40.5714286 45.7826087,40.5714286 L43.7173043,40.5714286 L40.6447826,52.8104762 C40.4684348,53.5204762 39.8478261,54.027619 39.1153043,54.0952381 L39,54.0952381" id="Fill-3900"></path>
                                <path d="M74.2526087,30.4285714 C73.9914783,30.4285714 73.7269565,30.3609524 73.4793913,30.2595238 C72.6451304,29.82 72.3161739,28.8057143 72.7434783,27.9604762 C73.9813043,25.56 74.6086957,22.9566667 74.6086957,20.2857143 C74.6086957,10.9542857 67.002,3.38095238 57.6521739,3.38095238 C48.3023478,3.38095238 40.6956522,10.9542857 40.6956522,20.2857143 C40.6956522,21.232381 39.936,21.9761905 39,21.9761905 C38.064,21.9761905 37.3043478,21.232381 37.3043478,20.2857143 C37.3043478,10.9542857 29.6976522,3.38095238 20.3478261,3.38095238 C10.998,3.38095238 3.39130435,10.9542857 3.39130435,20.2857143 C3.39130435,22.9566667 4.01869565,25.56 5.25652174,27.9604762 C5.68382609,28.8057143 5.35486957,29.82 4.5206087,30.2595238 C3.68973913,30.6652381 2.66556522,30.3271429 2.23826087,29.5157143 C0.752869565,26.6080952 0,23.497619 0,20.2857143 C0,9.0947619 9.126,-8.52651283e-14 20.3478261,-8.52651283e-14 C28.6802609,-8.52651283e-14 35.8562609,5.00380952 39,12.1714286 C42.1437391,5.00380952 49.3197391,-8.52651283e-14 57.6521739,-8.52651283e-14 C68.874,-8.52651283e-14 78,9.0947619 78,20.2857143 C78,23.497619 77.2471304,26.6080952 75.7617391,29.5157143 C75.4633043,30.0904762 74.8698261,30.4285714 74.2526087,30.4285714" id="Fill-3901"></path>
                                <path d="M39,71 C38.5116522,71 38.0470435,70.7971429 37.7248696,70.4252381 L13.9857391,43.377619 C13.3685217,42.667619 13.4397391,41.6195238 14.1451304,40.9771429 C14.8471304,40.3685714 15.9153913,40.4361905 16.536,41.1461905 L38.9796522,66.7061905 L56.3566957,46.2514286 C56.9637391,45.5414286 58.032,45.44 58.7475652,46.0485714 C59.4631304,46.6571429 59.5513043,47.7052381 58.9476522,48.4152381 L40.2954783,70.3914286 C39.9766957,70.7633333 39.5086957,71 39.0135652,71 L39,71" id="Fill-3902"></path>
                            </g>
                        </g>
                    </g>
                </g>
            </g>
        </g>
    </g>
</svg>