<?xml version="1.0" encoding="UTF-8"?>
<svg width="47px" height="39px" viewBox="0 0 47 39" version="1.1" xmlns="http://www.w3.org/2000/svg" xmlns:xlink="http://www.w3.org/1999/xlink">
    <!-- Generator: Sketch 52.6 (67491) - http://www.bohemiancoding.com/sketch -->
    <title>Group_36</title>
    <desc>Created with Sketch.</desc>
    <g id="Page-1" stroke="none" stroke-width="1" fill="none" fill-rule="evenodd">
        <g id="DAP---Healthcare-marketing-page" transform="translate(-676.000000, -5011.000000)" fill-rule="nonzero">
            <g id="Services-Covered" transform="translate(0.000000, 4262.000000)">
                <g id="5" transform="translate(660.000000, 730.000000)">
                    <g id="Title">
                        <g id="Group_36" transform="translate(16.000000, 19.000000)">
                            <g id="Group_98">
                                <path d="M46.8384095,4.33572414 C46.8876105,3.35245698 46.5211502,2.3938832 45.8288394,1.69492665 C45.1365285,0.995970104 44.1823542,0.621231963 43.2001619,0.662551724 L4.26849524,0.662551724 C3.78480945,0.66146504 3.3053527,0.752750265 2.85580952,0.931517241 C1.38269524,1.50351724 0.631142857,2.70803448 0.631142857,4.42403448 L0.631142857,37.8129655 C0.631142857,38.7763103 0.810190476,38.9569655 1.77346667,38.9569655 L45.6652,38.9569655 C46.6571238,38.9569655 46.8375143,38.8063448 46.8375143,37.782931 L46.8384095,4.33572414 Z M2.16602857,3.97441379 C2.23907719,2.9855842 3.04067296,2.2086459 4.02991429,2.16786207 C4.229421,2.14286152 4.43051392,2.13282209 4.63151429,2.13782759 L43.0819905,2.13782759 C43.8328505,2.06624142 44.5653466,2.39856611 45.0067524,3.01106897 C44.5641281,2.74001433 44.0522187,2.60402142 43.5336381,2.61972414 L5.0831619,2.61972414 C4.88231055,2.61473096 4.68136734,2.62477039 4.48200952,2.64975862 C3.49723513,2.7008985 2.70136172,3.47229048 2.61812381,4.45631034 C2.58828254,5.90155172 2.58828254,7.37682759 2.61812381,8.88213793 L2.13738095,8.88213793 C2.13738095,7.19617241 2.10739048,5.60031034 2.16737143,3.97486207 L2.16602857,3.97441379 Z M2.16602857,10.4174828 L45.3366476,10.4174828 L45.3366476,10.7487586 L2.64587619,10.7487586 L2.64587619,37.4211724 L2.16468571,37.4211724 L2.16602857,10.4174828 Z" id="Path_399" opacity="0.5"></path>
                                <polygon id="Path_400" points="45.1544667 10.0857586 1.98429524 10.0857586 1.98429524 37.0916897 45.1549143 37.0916897"></polygon>
                                <path d="M21.2542952,15.0835862 L5.62164762,15.0835862 L5.62164762,23.5434483 C6.2532381,22.7006897 6.8244,21.978069 7.39511429,21.2572414 C7.63593333,20.956 7.87630476,20.6852414 8.29706667,20.8058276 C8.65608864,20.9120455 8.90137213,21.2436549 8.89821905,21.6185517 C8.95864762,22.1905517 9.01862857,22.7325172 9.07726667,23.3045172 C9.16679048,24.0872069 9.25631429,24.9000805 9.3458381,25.7431379 C9.4634406,25.6980761 9.57464846,25.6377941 9.67662857,25.5638276 C10.6385619,24.9617931 11.6013905,24.3597586 12.5928667,23.7877586 C13.2240095,23.3964138 13.464381,23.4564828 13.9755619,23.9984483 C14.3663333,24.4198276 14.7271143,24.8416552 15.0878952,25.2630345 C15.2669429,25.4737241 15.4486762,25.6543793 15.6890476,25.8955517 C15.7239255,25.7011859 15.7742181,25.5099135 15.8394476,25.3235517 C16.108019,24.089 16.350181,22.8248621 16.6209905,21.5903103 C16.7105143,21.1989655 16.8613619,20.8977241 17.2825714,20.8076207 C17.7033333,20.7475517 17.9437048,20.986931 18.1240952,21.3495862 C18.223324,21.5367683 18.33379,21.7177553 18.4548857,21.8915517 C18.9360762,22.6742414 19.3868286,23.456931 19.8980095,24.3001379 C20.1919423,24.0657306 20.5035167,23.8544123 20.8299524,23.668069 C21.1524558,23.4894441 21.331819,23.1303695 21.2811524,22.7647931 C21.2511619,20.9882759 21.2811524,19.2422414 21.2811524,17.4657241 C21.2542952,16.6489655 21.2542952,15.8662759 21.2542952,15.0835862 Z" id="Path_401"></path>
                                <path d="M17.7373524,23.603069 C17.6735269,23.7898587 17.6232627,23.9810232 17.5869524,24.175069 C17.3765714,25.2289655 17.1362,26.2819655 16.9253714,27.3363103 C16.8358476,27.7276552 16.7463238,28.0889655 16.3237714,28.2095517 C15.873019,28.3301379 15.6322,28.0302414 15.3618381,27.7581379 C14.7002571,27.0355172 14.0391238,26.3128966 13.4370762,25.5615862 C13.1967048,25.2603448 13.0163143,25.2603448 12.6855238,25.471931 C11.5432,26.1945517 10.3708857,26.8866897 9.22811429,27.5788276 C8.6269619,27.9401379 8.08579048,27.6388966 7.99537143,26.9467586 C7.8749619,25.9533793 7.78499048,24.9295172 7.66458095,23.9361379 C7.643073,23.7940313 7.61317939,23.6533251 7.57505714,23.5147586 C6.91347619,24.3579655 6.34231429,25.1106207 5.73981905,25.8933103 C5.6510127,26.0703574 5.60952816,26.2674279 5.61940952,26.4653103 C5.61940952,28.0006552 5.61940952,29.5364483 5.58941905,31.0717931 C5.58941905,31.5232069 5.70982857,31.6437931 6.16058095,31.6437931 C11.0006857,31.6137586 15.870781,31.6437931 20.7108857,31.6437931 L21.2220667,31.6437931 L21.2220667,25.1706897 C20.8912762,25.4114138 20.6204667,25.592069 20.3201143,25.8027586 C19.6289905,26.2846552 19.2682095,26.1941034 18.847,25.4714828 C18.4889048,24.8681034 18.1281238,24.2961034 17.7373524,23.603069 Z" id="Path_402" fill="#FCA50C"></path>
                                <path d="M23.0886381,38.2962069 L1.14277143,38.2962069 C0.150847619,38.2962069 0.000447619048,38.1455862 0.000447619048,37.1522069 L0.000447619048,3.76551724 C0.000447619048,2.04951724 0.752,0.845 2.22511429,0.273 C2.67794459,0.10582361 3.15530352,0.0149377958 3.6378,0.00403448276 L42.569019,0.00403448276 C43.5510592,-0.0370258319 44.504992,0.337826841 45.1971023,1.03675289 C45.8892125,1.73567894 46.2555537,2.6941021 46.2063714,3.6772069 C46.2363619,6.98906897 46.2063714,10.300931 46.2063714,13.5841034 L46.2063714,37.0975172 C46.2063714,38.1213793 46.0559714,38.2715517 45.0340571,38.2715517 C37.7293619,38.2962069 30.393781,38.2962069 23.0886381,38.2962069 Z M44.7037143,9.78586207 L1.53309524,9.78586207 L1.53309524,36.7917931 L44.7037143,36.7917931 L44.7037143,9.78586207 Z M1.50355238,8.22048276 L44.7037143,8.22048276 L44.7037143,3.76462069 C44.7037143,2.28934483 43.8917333,1.47841379 42.3886286,1.47841379 L3.93815238,1.47841379 C3.73730105,1.47342229 3.53635797,1.48346171 3.337,1.50844828 C2.35214245,1.55939673 1.55616387,2.33089063 1.47311429,3.315 C1.4735619,4.93731034 1.50355238,6.5632069 1.50355238,8.21913793 L1.50355238,8.22048276 Z" id="Path_403" fill="#FFFFFF"></path>
                                <path d="M22.3970667,23.3327586 L22.3970667,32.153931 C22.3970667,32.8765517 22.1866857,33.0872414 21.4646762,33.0872414 L4.71969524,33.0872414 C4.02812381,33.0872414 3.78730476,32.8465172 3.78730476,32.1238966 L3.78730476,14.5111379 C3.78730476,13.7284483 4.05587619,13.4872759 4.8996381,13.4872759 L21.2538476,13.4872759 C21.5195879,13.48073 21.7843733,13.521561 22.0358381,13.6078621 C22.396619,13.7584828 22.4266095,14.0897586 22.4266095,14.4205862 C22.3970667,17.4016207 22.3970667,20.3822069 22.3970667,23.3327586 Z M20.9239524,15.0844828 L5.29130476,15.0844828 L5.29130476,23.5447931 C5.92244762,22.7015862 6.49405714,21.9794138 7.06477143,21.2585862 C7.30514286,20.9573448 7.5459619,20.6865862 7.96672381,20.8067241 C8.32574579,20.912942 8.57102928,21.2445515 8.56787619,21.6194483 C8.62785714,22.1914483 8.68828571,22.7334138 8.74692381,23.3054138 C8.83644762,24.0881034 8.92597143,24.900977 9.01549524,25.7440345 C9.13308488,25.6989447 9.2442892,25.6386645 9.34628571,25.5647241 C10.308219,24.9626897 11.2710476,24.3606552 12.2625238,23.7882069 C12.8941143,23.3968621 13.1340381,23.456931 13.645219,23.9988966 C14.0359905,24.4202759 14.3967714,24.8421034 14.7575524,25.2634828 C14.9366,25.4741724 15.1183333,25.6548276 15.3587048,25.896 C15.3936767,25.701655 15.4439674,25.5103901 15.5091048,25.324 C15.7776762,24.0894483 16.0198381,22.8253103 16.2906476,21.5907586 C16.3801714,21.1994138 16.531019,20.8981724 16.951781,20.808069 C17.3725429,20.748 17.6133619,20.9873793 17.7937524,21.3500345 C17.8928956,21.5372654 18.0033648,21.7182576 18.1245429,21.892 C18.6052857,22.6746897 19.0564857,23.4573793 19.5676667,24.3005862 C19.861808,24.0662486 20.1735257,23.8549347 20.5000571,23.6685172 C20.8222918,23.4896711 21.0014279,23.130695 20.9508095,22.7652414 C20.920819,20.9887241 20.9508095,19.2426897 20.9508095,17.4661724 C20.9203714,16.6534483 20.9203714,15.8707586 20.9203714,15.0876207 L20.9239524,15.0844828 Z M17.4065619,23.6048621 C17.3429,23.791667 17.2927857,23.9828304 17.2566095,24.1768621 C17.045781,25.2307586 16.8054095,26.2837586 16.5950286,27.3381034 C16.5055048,27.7294483 16.415981,28.0907586 15.9938762,28.2113448 C15.5431238,28.331931 15.3023048,28.0320345 15.0319429,27.759931 C14.3708095,27.0373103 13.7092286,26.3146897 13.107181,25.5633793 C12.8668095,25.2621379 12.686419,25.2621379 12.3556286,25.4737241 C11.2133048,26.1963448 10.0409905,26.8884828 8.89821905,27.5806207 C8.29706667,27.941931 7.75589524,27.6406897 7.66547619,26.9485517 C7.54506667,25.9551724 7.45509524,24.9313103 7.33468571,23.937931 C7.31317776,23.7958244 7.28328415,23.6551182 7.2451619,23.5165517 C6.58358095,24.3593103 6.01241905,25.1124138 5.40992381,25.8951034 C5.32096173,26.0720959 5.27946842,26.269208 5.28951429,26.4671034 C5.28951429,28.0024483 5.28951429,29.5377931 5.25952381,31.0735862 C5.25952381,31.525 5.37993333,31.6455862 5.83068571,31.6455862 C10.6707905,31.6155517 15.5408857,31.6455862 20.3809905,31.6455862 L20.8921714,31.6455862 L20.8921714,25.1724828 C20.561381,25.4132069 20.291019,25.5938621 19.990219,25.805 C19.2986476,26.2864483 18.9378667,26.1963448 18.5171048,25.4737241 C18.1863143,24.8716897 17.8255333,24.2996897 17.4047714,23.6071034 L17.4065619,23.6048621 Z" id="Path_404" fill="#FFFFFF"></path>
                                <path d="M32.8883619,13.4576897 C35.6626968,13.4640191 38.1583441,15.148197 39.2057888,17.7209808 C40.2532335,20.2937646 39.6449228,23.2453529 37.6659243,25.1925668 C35.6869258,27.1397807 32.7293814,27.6967766 30.1792611,26.602534 C27.6291408,25.5082914 25.9917552,22.9796362 26.034419,20.2015517 C26.0922093,16.4542041 29.146516,13.4491487 32.8888095,13.4576897 L32.8883619,13.4576897 Z M32.8883619,14.9329655 C29.9248453,14.9248077 27.5158117,17.3240765 27.5075757,20.2919414 C27.4993397,23.2598063 29.8950199,25.6724477 32.858536,25.6807861 C35.8220521,25.6891244 38.2312314,23.2900023 38.2396476,20.3221379 C38.2436896,18.8968036 37.6821502,17.5282463 36.6785754,16.5175663 C35.6750007,15.5068863 34.3116082,14.9368834 32.8883619,14.9329655 Z" id="Path_405" fill="#FFFFFF"></path>
                                <path d="M32.8583714,31.6424483 L39.9531333,31.6424483 C40.3139143,31.6424483 40.6447048,31.7025172 40.7646667,32.0638276 C40.8250952,32.3045517 40.8250952,32.6658621 40.6751429,32.7864483 C40.4476205,32.982019 40.1628173,33.0982784 39.8636095,33.1177241 C35.5042476,33.1477586 31.1153429,33.1177241 26.755981,33.1177241 C26.455181,33.1177241 26.1548286,33.1477586 25.8540286,33.1177241 C25.6302349,33.1445845 25.4050913,33.0798248 25.2296395,32.9381265 C25.0541876,32.7964282 24.9432892,32.5897938 24.9220857,32.365069 C24.9220857,31.9136552 25.2528762,31.6424483 25.8540286,31.6124138 C28.1686667,31.6424483 30.5137429,31.6424483 32.8583714,31.6424483 Z" id="Path_406" fill="#FFFFFF"></path>
                                <path d="M37.0373429,30.5284828 C36.1054,30.5284828 35.2021048,30.5585172 34.2715048,30.5284828 C33.9833687,30.5250697 33.7060321,30.4181718 33.4899619,30.2272414 C33.3419767,30.0173245 33.2976469,29.7512853 33.3695524,29.5046207 C33.4590762,29.1433103 33.7903143,29.0231724 34.1510952,29.0231724 L40.0435524,29.0231724 C40.3201741,28.9955362 40.5888805,29.1257015 40.7389686,29.3600419 C40.8890567,29.5943824 40.8951322,29.8932488 40.7546922,30.1335127 C40.6142523,30.3737766 40.3510585,30.5147865 40.0735429,30.4984483 L39.7427524,30.4984483 C38.8112571,30.5284828 37.9392952,30.5284828 37.0373429,30.5284828 Z" id="Path_407" fill="#FFFFFF"></path>
                                <path d="M6.07284762,4.99782759 C6.08034476,5.40490649 5.75773649,5.74141647 5.35128571,5.75048276 C4.94341263,5.73357483 4.61661649,5.40629916 4.59973333,4.99782759 C4.59705534,4.80536702 4.67221657,4.62000326 4.80812053,4.48389987 C4.9440245,4.34779649 5.12911666,4.27252498 5.32129524,4.2752069 C5.51667092,4.2711234 5.70565436,4.34498559 5.84661987,4.48052451 C5.98758539,4.61606343 6.06896992,4.80216115 6.07284762,4.99782759 Z" id="Path_408" fill="#FFFFFF"></path>
                                <path d="M9.4398381,5.02786207 C9.44090673,5.2251139 9.36106225,5.41415441 9.21898045,5.55076665 C9.07689865,5.68737888 8.88504183,5.75958027 8.68828571,5.75048276 C8.29150825,5.72014873 7.98083936,5.39609262 7.96672381,4.99782759 C7.97296695,4.58476512 8.30581894,4.25142472 8.71827619,4.24517241 C8.91828204,4.25106094 9.10748744,4.33738699 9.24317455,4.48466032 C9.37886166,4.63193365 9.44958985,4.8277367 9.43939048,5.02786207 L9.4398381,5.02786207 Z" id="Path_409" fill="#FFFFFF"></path>
                                <path d="M12.8668095,5.02786207 C12.8605619,5.22807294 12.7742672,5.41737825 12.6273083,5.5532576 C12.4803494,5.68913694 12.2850463,5.76019916 12.0852667,5.75048276 C11.8882945,5.74297319 11.7029646,5.65509057 11.5723396,5.50725498 C11.4417145,5.35941939 11.3771671,5.16450201 11.3936952,4.9677931 C11.4152987,4.56432299 11.7567354,4.25318923 12.1598591,4.26962735 C12.5629829,4.28606547 12.8780314,4.62396863 12.8668095,5.02786207 Z" id="Path_410" fill="#FFFFFF"></path>
                                <path d="M32.8888095,14.9329655 C29.9252929,14.9248077 27.5162593,17.3240765 27.5080233,20.2919414 C27.4997873,23.2598063 29.8954675,25.6724477 32.8589836,25.6807861 C35.8224997,25.6891244 38.231679,23.2900023 38.2400952,20.3221379 C38.2482647,17.3541201 35.8524779,14.9413714 32.8888095,14.9329655 Z" id="Path_411"></path>
                                <path d="M33.6403619,23.3627931 C33.580381,24.4467241 33.3999905,24.7775517 32.858819,24.7475172 C32.3476381,24.7475172 32.1672476,24.4462759 32.0772762,23.3928276 C31.8982286,23.3627931 31.6865048,23.3627931 31.5061143,23.3327586 C31.1092998,23.3126797 30.8017857,22.9777873 30.8149905,22.5801034 C30.8206227,22.3876424 30.903574,22.2056026 31.0450518,22.075225 C31.1865296,21.9448475 31.3745593,21.8771672 31.5665429,21.8875172 C32.0777238,21.8574828 32.5884571,21.8875172 33.1000857,21.8875172 C33.4004381,21.8875172 33.7012381,21.8574828 33.7012381,21.4661379 C33.7012381,21.0747931 33.3704476,21.0747931 33.1000857,21.0747931 C32.8190947,21.0798124 32.5380366,21.0697866 32.2581143,21.0447586 C31.3868321,20.9747787 30.6776929,20.3145044 30.5446286,19.4493448 C30.4012672,18.5822965 30.8933474,17.7355571 31.7169429,17.4321034 C31.8528636,17.4089479 31.9738644,17.3322459 32.0529239,17.2191259 C32.1319834,17.106006 32.1625166,16.9658904 32.1377048,16.830069 C32.1077143,16.198 32.4062762,15.8667241 32.8892571,15.8667241 C33.3722381,15.8667241 33.610819,16.198 33.6408095,16.830069 C33.6369621,16.9612122 33.6470152,17.0923943 33.6708,17.2214138 C33.8498476,17.2214138 34.031581,17.2514483 34.181981,17.2514483 C34.4519266,17.2468081 34.7028122,17.3903138 34.8359654,17.6255251 C34.9691186,17.8607364 34.9632377,18.1500246 34.8206357,18.3796136 C34.6780338,18.6092027 34.4215238,18.7423634 34.1519905,18.7267241 C33.6408095,18.7567586 33.1300762,18.7267241 32.6188952,18.7267241 C32.3180952,18.7267241 32.0477333,18.7867931 32.0477333,19.118069 C32.0477333,19.5094138 32.3163048,19.5394483 32.6488857,19.5394483 L33.2800286,19.5394483 C34.2071605,19.5200596 35.0162909,20.1654871 35.2047905,21.0747931 C35.3990652,22.0235674 34.838273,22.9640003 33.9120667,23.2426552 C33.8285534,23.2951169 33.738165,23.3357005 33.6434952,23.3632414 L33.6403619,23.3627931 Z" id="Path_412" fill="#FFFFFF"></path>
                                <path d="M1.98429524,8.70103448 L45.1844571,8.70103448 L45.1844571,4.24382759 C45.1844571,2.76855172 44.3729238,1.95762069 42.869819,1.95762069 L4.41934286,1.95762069 C4.21849151,1.95262752 4.0175483,1.96266694 3.81819048,1.98765517 C2.83333292,2.03860363 2.03735435,2.81009753 1.95430476,3.7942069 C1.95430476,5.4192069 1.98429524,7.04510345 1.98429524,8.70103448 Z" id="Path_413"></path>
                            </g>
                        </g>
                    </g>
                </g>
            </g>
        </g>
    </g>
</svg>