<?xml version="1.0" encoding="UTF-8"?>
<svg width="43px" height="43px" viewBox="0 0 43 43" version="1.1" xmlns="http://www.w3.org/2000/svg" xmlns:xlink="http://www.w3.org/1999/xlink">
    <!-- Generator: Sketch 52.6 (67491) - http://www.bohemiancoding.com/sketch -->
    <title>Icon</title>
    <desc>Created with Sketch.</desc>
    <g id="Page-1" stroke="none" stroke-width="1" fill="none" fill-rule="evenodd">
        <g id="DAP---Healthcare-marketing-page" transform="translate(-286.000000, -5009.000000)" fill-rule="nonzero">
            <g id="Services-Covered" transform="translate(0.000000, 4262.000000)">
                <g id="4" transform="translate(270.000000, 730.000000)">
                    <g id="Title">
                        <g id="Icon" transform="translate(16.000000, 17.000000)">
                            <g id="Group_91" transform="translate(0.041010, 0.387778)">
                                <path d="M37.0847379,5.60809061 C37.7743233,5.62292835 38.4045388,5.22105808 38.6798871,4.59090997 C38.9552354,3.96076187 38.8211179,3.22728724 38.34042,2.73439992 C37.8597222,2.2415126 37.1277611,2.08694663 36.4877408,2.34317537 C35.8477204,2.59940411 35.4265499,3.21562028 35.4217087,3.90289054 C35.4086597,4.35065434 35.5780935,4.78460787 35.8913975,5.1058566 C36.2047015,5.42710532 36.6351827,5.60827936 37.0847379,5.60809061 Z" id="Path_338" fill="#FCA50C"></path>
                                <path d="M6.25568932,20.1393238 C7.19309445,20.1361391 7.95226112,19.3798025 7.95561031,18.4457398 C7.95895949,17.5116771 7.20523598,16.7499544 6.26787762,16.7400954 C5.33051927,16.7302364 4.56082724,17.475936 4.54438835,18.409861 C4.53288103,18.8677413 4.70867631,19.3106097 5.03140274,19.6367611 C5.35412917,19.9629126 5.7960541,20.1443203 6.25568932,20.1393238 Z" id="Path_339" fill="#FCA50C"></path>
                                <path d="M26.8404272,16.7042353 C27.7688151,16.6864121 28.5207743,15.9476079 28.5517282,15.0228723 C28.5614341,14.3310961 28.1506991,13.7020399 27.5120596,13.4305803 C26.8734202,13.1591208 26.1334701,13.2990678 25.639069,13.7848198 C25.1446678,14.2705718 24.9938179,15.0058407 25.2572318,15.6459616 C25.5206456,16.2860825 26.1461082,16.7041677 26.8404272,16.7042353 Z" id="Path_340" fill="#FCA50C"></path>
                                <path d="M16.5721942,7.33797906 C15.6416578,7.31481431 14.8667299,8.0442082 14.8369709,8.97124234 C14.8021098,9.67196002 15.1982485,10.3234271 15.8377215,10.6170199 C16.4771945,10.9106126 17.2315675,10.7873646 17.7434664,10.305663 C18.2553653,9.82396132 18.4219783,9.08055292 18.1643747,8.42761755 C17.906771,7.77468219 17.2766889,7.343358 16.5726214,7.33797906 L16.5721942,7.33797906 Z" id="Path_341" fill="#FCA50C"></path>
                                <path d="M29.8294369,40.3399429 L33.3246602,40.3399429 L33.3246602,14.6406282 C33.3246602,13.6799101 33.5655922,13.439837 34.5297476,13.439837 L38.8925825,13.439837 C39.8323883,13.439837 40.0976699,13.7041729 40.0976699,14.6406282 L40.0976699,40.3399429 L41.5680388,40.3399429 C41.7991916,40.3231497 42.0272729,40.4006515 42.1999673,40.5546717 C42.3726618,40.7086918 42.4751494,40.9260128 42.4839223,41.1567874 C42.5197246,41.5418236 42.2607178,41.8926415 41.881165,41.9732062 C41.6749328,42.0140005 41.4645547,42.0301477 41.2544854,42.0213059 L1.31273786,42.0213059 C1.15968821,42.0252011 1.00656826,42.0170885 0.854796117,41.9970432 C0.408060717,41.9588152 0.069370284,41.5790767 0.0837281553,41.1325247 C0.0823424841,40.6993554 0.421206715,40.3407594 0.855223301,40.3161058 C1.2648932,40.2918431 1.65064078,40.2918431 2.06031068,40.2918431 L2.46998058,40.2918431 L2.46998058,29.123336 C2.46998058,28.1387809 2.71091262,27.8982821 3.69941748,27.8982821 L8.11052427,27.8982821 C8.97813592,27.8982821 9.24341748,28.186455 9.24341748,29.0509735 L9.24341748,40.2671548 L12.7386408,40.2671548 L12.7386408,19.7315401 C12.7386408,18.746985 12.9795728,18.5064862 13.9680777,18.5064862 L18.3309126,18.5064862 C19.2467961,18.5064862 19.5120777,18.770822 19.5120777,19.6834403 L19.5120777,40.2428921 L23.007301,40.2428921 L23.007301,25.6401477 C23.007301,24.7513665 23.2725825,24.4631936 24.1641165,24.4631936 L28.5991456,24.4631936 C29.4911068,24.4631936 29.7803107,24.7513665 29.7803107,25.6639848 L29.7803107,39.7384832 C29.8187946,39.9365649 29.8352693,40.1382672 29.8294369,40.3399429 Z M38.3620194,40.3399429 L38.3620194,15.1931369 L35.0838058,15.1931369 L35.0838058,40.3399429 L38.3620194,40.3399429 Z M14.5251262,20.3338511 L14.5251262,40.3399429 L17.8033398,40.3399429 L17.8033398,20.3338511 L14.5251262,20.3338511 Z M28.0715728,40.3399429 L28.0715728,26.3135443 L24.7933592,26.3135443 L24.7933592,40.3399429 L28.0715728,40.3399429 Z M4.23467961,40.3399429 L7.5128932,40.3399429 L7.5128932,29.7239444 L4.22912621,29.7239444 L4.23467961,40.3399429 Z" id="Path_342" fill="#FFFFFF"></path>
                                <path d="M33.8547961,5.53615382 C32.8432254,3.99736044 33.2377397,1.9365564 34.7467573,0.876862745 C36.0626991,-0.0597489415 37.8594997,0.0609298018 39.0373981,1.1650356 C40.298649,2.31160587 40.5190203,4.20900631 39.5539217,5.61231287 C38.5888232,7.01561942 36.7334394,7.49561763 35.2051262,6.73737065 L29.2031845,12.7179151 C30.1638096,14.003456 30.0988396,15.7814912 29.0469344,16.994017 C27.9950291,18.2065428 26.2387977,18.527797 24.8232698,17.7666202 C23.4077419,17.0054433 22.7132191,15.3663363 23.1529709,13.8246351 C23.209254,13.7207924 23.2176791,13.5977593 23.1760735,13.4872611 C23.134468,13.3767629 23.0469041,13.2896151 22.9359612,13.2482894 C21.6116893,12.4318706 20.3087767,11.6150261 18.9588738,10.7743446 C18.4089866,11.516216 17.5848699,12.0089232 16.669165,12.143272 C15.7467702,12.2631098 14.8136638,12.0220444 14.0659029,11.4707268 C12.2341359,13.0077906 10.4262913,14.5210173 8.59452427,16.0823438 C9.13953298,16.7952178 9.3896414,17.6891078 9.29339806,18.5801256 C9.10485633,20.0011225 8.04225429,21.1516984 6.63671915,21.4567536 C5.23118401,21.7618088 3.78460722,21.1558212 3.02004055,19.9416856 C2.25547388,18.7275499 2.33713672,17.1660474 3.22421102,16.0376738 C4.11128532,14.9093002 5.61323856,14.4564162 6.97933981,14.9053897 C7.1277463,14.9428658 7.2851192,14.916782 7.41335922,14.8334529 C9.24512621,13.3436375 11.0529709,11.8312621 12.8608155,10.2941984 C12.9608769,10.1832937 13.0051675,10.0332112 12.9812816,9.88598896 C12.5006205,8.61691189 12.8553941,7.18391462 13.8732427,6.2831898 C14.7806773,5.33519539 16.1833038,5.04796778 17.3923883,5.56254483 C18.7127429,5.99862516 19.605612,7.22680654 19.6099029,8.61283533 C19.6034217,8.98523164 19.8086574,9.32931263 20.1400388,9.5016166 C21.4416699,10.2941984 22.7189515,11.0867801 24.0205825,11.9036246 C24.1817187,12.0363934 24.4147862,12.0363934 24.5759223,11.9036246 C25.4437762,11.3102051 26.5384349,11.1505209 27.5405825,11.4711525 C27.6610485,11.4954152 27.8541359,11.4954152 27.9250485,11.3992157 C29.9016311,9.45394251 31.8551456,7.50824367 33.8065243,5.56297049 C33.8317282,5.58425357 33.8317282,5.55999086 33.8547961,5.53615382 Z M36.6989903,5.34418047 C37.3885757,5.3590182 38.0187913,4.95714793 38.2941395,4.32699983 C38.5694878,3.69685172 38.4353703,2.96337709 37.9546725,2.47048977 C37.4739747,1.97760245 36.7420135,1.82303648 36.1019932,2.07926522 C35.4619729,2.33549396 35.0408023,2.95171013 35.0359612,3.63898039 C35.0229121,4.08674419 35.1923459,4.52069773 35.5056499,4.84194645 C35.8189539,5.16319517 36.2494351,5.34436922 36.6989903,5.34418047 Z M5.86994175,19.874988 C6.80734687,19.8718033 7.56651355,19.1154667 7.56986273,18.181404 C7.57321191,17.2473413 6.8194884,16.4856186 5.88213005,16.4757596 C4.94477169,16.4659006 4.17507967,17.2116002 4.15864078,18.1455252 C4.14713346,18.6034055 4.32292874,19.0462738 4.64565517,19.3724253 C4.96838159,19.6985768 5.41030653,19.8799845 5.86994175,19.874988 Z M26.4546796,16.4403251 C27.3830675,16.4225019 28.1350267,15.6836977 28.1659806,14.7589621 C28.1692777,14.3034772 27.9908166,13.8653498 27.6698708,13.5409979 C27.3489249,13.2166459 26.9117951,13.0326491 26.4546796,13.0294993 C25.5098975,13.0397527 24.7428602,13.7935186 24.7194563,14.7346994 C24.722278,15.1903301 24.9068114,15.6261428 25.2323857,15.9460851 C25.5579601,16.2660273 25.9978508,16.443837 26.4551068,16.4403251 L26.4546796,16.4403251 Z M16.1864466,7.07321759 C15.2558357,7.05004944 14.4807846,7.7793797 14.4507961,8.70648087 C14.4159351,9.40719855 14.8120737,10.0586657 15.4515467,10.3522584 C16.0910197,10.6458511 16.8453927,10.5226031 17.3572916,10.0409015 C17.8691906,9.55919985 18.0358035,8.81579145 17.7781999,8.16285608 C17.5205963,7.50992072 16.8905142,7.07859653 16.1864466,7.07321759 Z" id="Path_343" fill="#FFFFFF"></path>
                            </g>
                        </g>
                    </g>
                </g>
            </g>
        </g>
    </g>
</svg>