<?xml version="1.0" encoding="UTF-8"?>
<svg width="160px" height="160px" viewBox="0 0 160 160" version="1.1" xmlns="http://www.w3.org/2000/svg" xmlns:xlink="http://www.w3.org/1999/xlink">
    <!-- Generator: Sketch 52.6 (67491) - http://www.bohemiancoding.com/sketch -->
    <title>Icon 1</title>
    <desc>Created with Sketch.</desc>
    <g id="Page-1" stroke="none" stroke-width="1" fill="none" fill-rule="evenodd">
        <g id="DAP---Healthcare-marketing-page" transform="translate(-370.000000, -6571.000000)">
            <g id="What-you-get" transform="translate(270.000000, 6234.000000)">
                <g id="Tiles" transform="translate(0.000000, 277.000000)">
                    <g id="1">
                        <g id="Icon-1" transform="translate(100.000000, 60.000000)">
                            <circle id="Oval" fill="#FFF8F4" cx="80" cy="80" r="80"></circle>
                            <path d="M45.7786544,65 L49.5897891,65 C48.734174,65.8957935 48.2826087,66.8106752 48.2826087,67.7064516 C48.2826087,72.5157742 61.2989565,77.8758065 79.9782609,77.8758065 C98.6575652,77.8758065 111.673913,72.5157742 111.673913,67.7064516 C111.673913,66.8106752 111.222348,65.8957935 110.366733,65 L114.177867,65 C114.58708,65.8533548 114.804348,66.7558069 114.804348,67.7064516 C114.804348,70.0983595 113.428891,72.1851738 111.081316,73.9524841 C111.025528,74.0514539 110.958049,74.1458161 110.878783,74.2336129 L86.2391304,101.449935 L86.2391304,118.553226 C86.2391304,118.969387 86.0732174,119.366774 85.782087,119.660903 L76.3907826,129.048 C76.0902609,129.345258 75.6895652,129.504839 75.2826087,129.504839 C75.0822609,129.504839 74.8787826,129.464161 74.6846957,129.385935 C74.0993043,129.145 73.7173913,128.572387 73.7173913,127.940323 L73.7173913,101.449935 L49.0777391,74.2336129 C48.9984723,74.1458161 48.9309933,74.0514539 48.8752057,73.9524841 C46.5276304,72.1851738 45.1521739,70.0983595 45.1521739,67.7064516 C45.1521739,66.7558069 45.3694413,65.8533548 45.7786544,65 Z M56.3964579,77.6501878 L76.444,99.7978065 C76.7038261,100.088806 76.8478261,100.461161 76.8478261,100.849161 L76.8478261,124.163581 L83.1086957,117.905516 L83.1086957,100.849161 C83.1086957,100.461161 83.2526957,100.088806 83.5125217,99.7978065 L103.560064,77.6501878 C96.9837015,79.8590181 88.3504885,81.0048387 79.9782609,81.0048387 C71.6060333,81.0048387 62.9728202,79.8590181 56.3964579,77.6501878 Z" id="Combined-Shape" fill="#FF6E28"></path>
                            <g id="Group-362" transform="translate(50.000000, 31.000000)" fill="#FF6E28" stroke="#FF6E28" stroke-width="0.5">
                                <path d="M8.52058706,32 L1.23881754,32 C0.552512624,32 0,31.4760592 0,30.8304894 C0,27.6587766 2.27446901,24.9057486 5.53255914,24.1362106 L9.69746372,23.1561607 L9.92788379,22.2720106 C8.90957577,21.1820267 8.18858396,19.8020042 7.88879011,18.3798793 C7.06373763,18.0617724 6.50626973,17.3881343 6.39725379,16.5718159 L6.09993758,14.3333725 C6.01322035,13.6854637 6.22629697,13.0305377 6.68713709,12.5370042 C6.85809392,12.3545606 7.05630472,12.2001852 7.27185897,12.0785561 C7.19505229,11.4049179 7.10833506,10.5698874 7.10833506,10.1348294 C7.10833506,8.02503225 7.75747545,5.22990186 13.2900346,5.05681429 C14.251357,4.48141506 15.351427,4.13757894 16.6274091,4.00659375 C17.3112363,3.93876214 17.9207346,4.40188834 17.992586,5.04511918 C18.066915,5.686011 17.5738657,6.26374925 16.8949936,6.33158087 C15.8890738,6.4344978 15.0937529,6.70114622 14.4000151,7.17128949 C14.1943714,7.31163077 13.9441303,7.38881847 13.6914115,7.39115749 C9.58597014,7.42624281 9.58597014,8.80392632 9.58597014,10.1348294 C9.58597014,10.5932776 9.75197169,12.0037074 9.85603237,12.7849405 C9.9006298,13.1194205 9.79161386,13.4515615 9.55623852,13.7065149 C9.32086319,13.9567901 8.98390482,14.1018094 8.62712537,14.1018094 L8.85506779,16.2817772 C9.50173055,16.2817772 10.1781249,16.7051401 10.2276776,17.3156246 C10.3466041,18.7050032 11.0626407,20.110755 12.1453672,21.0720927 C12.4748927,21.3621314 12.6086849,21.7971893 12.499669,22.2065181 L11.9199024,24.402859 C11.8084088,24.8238828 11.4615399,25.1490068 11.0180432,25.2542627 L6.13214684,26.4050612 C4.39284701,26.8143899 3.07722278,28.0821394 2.63620373,29.6586397 L8.52058706,29.6609788 C9.20441434,29.6609788 9.7594046,30.1849195 9.7594046,30.8304894 C9.7594046,31.4760592 9.20441434,32 8.52058706,32" id="Fill-356"></path>
                                <path d="M50.2639383,32 L50.2639383,29.6666667 L56.9877378,29.6666667 C56.4838067,28.0916667 54.9805067,26.827 52.9930931,26.4186667 L47.4102162,25.2706667 C46.903454,25.1656667 46.5071038,24.8413333 46.3797054,24.4213333 L45.7427139,22.3236667 C45.6153156,21.9036667 45.7823489,21.4603333 46.1730371,21.171 C47.4526823,20.226 48.327484,18.7606667 48.4662066,17.349 C48.5256592,16.7423333 49.1400021,16.2756667 49.8760812,16.2756667 L50.2186411,14.0893333 C49.8364462,14.0846667 49.4967174,13.9796667 49.2362586,13.751 C48.9729688,13.52 48.865388,13.24 48.8852055,12.9226667 L49.0494077,10.132 C49.0663942,9.84266667 49.21361,9.572 49.4599134,9.36666667 L50.1337089,8.809 C50.3347151,8.62933333 50.6489643,8.35633333 49.9553513,7.48133333 C49.3410083,6.709 48.2368897,6.33333333 46.5750495,6.33333333 C45.5473698,6.33333333 44.6640749,6.443 43.8770365,6.667 C43.1352952,6.87466667 42.3312704,6.55266667 42.0764737,5.94366667 C41.8245082,5.33233333 42.2151963,4.66966667 42.9541065,4.45966667 C44.0469009,4.14933333 45.2302896,4 46.5750495,4 C49.8817434,4 51.526597,5.19933333 52.3249598,6.20266667 C53.989631,8.30266667 52.9421338,9.75166667 52.1692507,10.4306667 L51.8521705,10.6943333 L51.7615761,12.1666667 C51.988062,12.2856667 52.1975615,12.4303333 52.373088,12.6006667 C52.8883434,13.0906667 53.1289846,13.737 53.0298971,14.381 L52.6901683,16.607 C52.5684321,17.398 51.9682445,18.0513333 51.1472332,18.3803333 C50.7990112,19.8643333 49.9270405,21.2923333 48.6841993,22.4006667 L48.9191784,23.1776667 L53.6782129,24.1553333 C57.4010745,24.923 60,27.6693333 60,30.831 C60,31.475 59.3686706,31.9976667 58.5844633,31.9976667 L50.2639383,32 Z" id="Fill-358"></path>
                                <path d="M13.54475,36.557625 L47.45525,36.5625 C46.9848125,33.9129375 45.0055625,31.7338125 42.321875,31.0635 L35.7674375,29.4255 C35.331125,29.3158125 34.989875,28.9745625 34.8801875,28.53825 L34.1343125,25.549875 C34.024625,25.1135625 34.1684375,24.648 34.5048125,24.3481875 C36.08675,22.932 37.173875,20.733375 37.3445,18.607875 C37.39325,17.974125 37.9221875,17.486625 38.558375,17.486625 C38.821625,17.486625 38.9800625,17.34525 39.002,17.16 L39.3993125,13.9790625 C39.416375,13.8474375 39.36275,13.752375 39.314,13.6963125 C39.275,13.65 39.1848125,13.5695625 39.036125,13.567125 C38.704625,13.56225 38.38775,13.42575 38.1635,13.1844375 C37.9368125,12.943125 37.817375,12.621375 37.8344375,12.289875 L38.027,8.311875 C38.041625,8.009625 38.168375,7.7244375 38.3804375,7.5099375 L39.1775,6.7153125 C39.4578125,6.4179375 40.02575,5.811 39.0190625,4.2705 C38.2098125,3.037125 36.7911875,2.4375 34.68275,2.4375 C33.1203125,2.4375 31.2970625,2.598375 29.6200625,3.8000625 C29.4153125,3.9463125 29.1715625,4.0243125 28.9229375,4.02675 C22.9754375,4.0876875 22.9754375,6.4618125 22.9754375,8.3728125 C22.9754375,9.126 23.241125,11.388 23.3435,12.1948125 C23.3849375,12.5409375 23.2776875,12.8895 23.046125,13.15275 C22.817,13.416 22.4830625,13.5646875 22.1320625,13.5646875 C21.8225,13.5646875 21.729875,13.645125 21.690875,13.6914375 C21.647,13.73775 21.5811875,13.8376875 21.6006875,13.9790625 L21.998,17.16 C22.022375,17.34525 22.178375,17.486625 22.3660625,17.486625 L22.6244375,17.486625 C23.2581875,17.486625 23.787125,17.974125 23.8383125,18.607875 C24.0040625,20.6968125 25.0180625,22.800375 26.5488125,24.233625 C26.873,24.535875 27.004625,24.9916875 26.8998125,25.4206875 L26.1198125,28.53825 C26.010125,28.977 25.6713125,29.3158125 25.2325625,29.4255 L18.678125,31.0635 C15.996875,31.7338125 14.0151875,33.9105 13.54475,36.557625 L13.54475,36.557625 Z M12.21875,39 C11.8945625,39 11.585,38.8708125 11.3583125,38.6416875 C11.1291875,38.415 11,38.1054375 11,37.78125 C11,33.476625 13.9128125,29.742375 18.08825,28.6966875 L23.933375,27.2390625 L24.3648125,25.49625 C22.92425,23.9338125 21.9126875,21.893625 21.5373125,19.797375 C20.50625,19.4780625 19.7189375,18.5810625 19.58,17.4646875 L19.1826875,14.28375 C19.0803125,13.4866875 19.3289375,12.6823125 19.86275,12.0778125 C20.121125,11.782875 20.4404375,11.548875 20.7914375,11.388 C20.6793125,10.40325 20.5379375,9.0358125 20.5379375,8.3728125 C20.5379375,5.3064375 21.456875,1.7866875 28.525625,1.5965625 C30.9704375,0 33.5541875,0 34.68275,0 C37.637,0 39.782,0.9871875 41.0568125,2.93475 C42.848375,5.6745 41.7441875,7.5440625 40.9251875,8.4118125 L40.4376875,8.8993125 L40.313375,11.4391875 C40.63025,11.6025 40.9154375,11.8243125 41.151875,12.0973125 C41.6759375,12.6969375 41.9196875,13.494 41.81975,14.28375 L41.4224375,17.4646875 C41.2908125,18.510375 40.59125,19.3635 39.65525,19.7315625 C39.2823125,21.9253125 38.2098125,24.0459375 36.6693125,25.6425 L37.066625,27.2390625 L42.91175,28.6966875 C47.0871875,29.742375 50,33.4741875 50,37.776375 C50,38.449125 49.454,38.995125 48.78125,38.995125 L12.21875,39 Z" id="Fill-360"></path>
                            </g>
                        </g>
                    </g>
                </g>
            </g>
        </g>
    </g>
</svg>