<?xml version="1.0" encoding="UTF-8"?>
<svg width="46px" height="48px" viewBox="0 0 46 48" version="1.1" xmlns="http://www.w3.org/2000/svg" xmlns:xlink="http://www.w3.org/1999/xlink">
    <!-- Generator: Sketch 52.6 (67491) - http://www.bohemiancoding.com/sketch -->
    <title>Icon</title>
    <desc>Created with Sketch.</desc>
    <g id="Page-1" stroke="none" stroke-width="1" fill="none" fill-rule="evenodd">
        <g id="DAP---Healthcare-marketing-page" transform="translate(-1066.000000, -5007.000000)" fill-rule="nonzero">
            <g id="Services-Covered" transform="translate(0.000000, 4262.000000)">
                <g id="6" transform="translate(1050.000000, 730.000000)">
                    <g id="Title">
                        <g id="Icon" transform="translate(16.000000, 14.000000)">
                            <g id="Group_119" transform="translate(0.341167, 0.800481)">
                                <path d="M44.6621667,21.6269231 C44.0543926,16.9266624 41.9210233,12.5579657 38.5916042,9.19567308 C37.4641651,8.02918145 36.210584,6.99248566 34.8541042,6.10480769 C34.5588318,5.89104304 34.1704693,5.85706909 33.8427812,6.01633716 C33.5150931,6.17560524 33.3009247,6.50243063 33.2850719,6.86741319 C33.2692192,7.23239574 33.4542384,7.57667578 33.766875,7.76394231 C33.8123958,7.80913462 33.8799583,7.83221154 33.9254792,7.87740385 C33.9720665,7.89446316 34.0117914,7.92638308 34.0385625,7.96826923 C35.8011632,9.14758819 37.3615982,10.6057586 38.6591667,12.2860577 C42.2506005,16.858611 43.6884324,22.7694911 42.6003125,28.4879808 C41.7793477,33.4115003 39.1030245,37.8298091 35.1253125,40.8283654 C30.2780625,44.5783654 24.6833125,45.8735577 18.5221875,44.6692308 C17.7972083,44.5326923 17.0727083,44.3057692 16.37025,44.1009615 L15.4866667,43.8283654 C15.7358511,43.7174626 15.9933125,43.6263183 16.2566875,43.5557692 C16.4378125,43.4875 16.6189375,43.4418269 16.7775417,43.3740385 C17.2455152,43.1908737 17.4782199,42.6629058 17.2983958,42.1923077 C17.2370951,41.9541594 17.08142,41.7515101 16.8674992,41.63139 C16.6535783,41.51127 16.4000115,41.4841233 16.1656458,41.55625 L15.8484375,41.6245192 C14.6706458,41.8971154 13.4473333,42.1927885 12.2470208,42.4899038 C11.9013647,42.5581653 11.6077179,42.7853233 11.454,43.1033654 C11.3217771,43.4114668 11.3383925,43.7635063 11.4990417,44.0576923 C12.0198958,45.1033654 12.6087917,46.2620192 13.3337708,47.6485577 C13.4776592,47.9866743 13.805494,48.2089708 14.1718333,48.2168269 C14.3364798,48.2114809 14.4983399,48.1727204 14.6476458,48.1028846 C14.8861331,47.9803937 15.0629907,47.7637669 15.1357286,47.5050488 C15.2084664,47.2463306 15.1705103,46.9689049 15.0309792,46.7394231 C14.9178958,46.4894231 14.7818125,46.2168269 14.6476458,45.9442308 C14.6026042,45.8302885 14.5345625,45.7168269 14.4890417,45.6033654 L14.6246458,45.6485577 C14.7184236,45.6781069 14.8093543,45.7160812 14.8963333,45.7620192 C16.646694,46.4521157 18.4838493,46.8957502 20.3554792,47.0802885 C26.4035208,47.69375 31.748625,46.1711538 36.256625,42.5576923 C42.8954792,37.1966346 45.7493958,30.1490385 44.6621667,21.6269231 Z" id="Path_486" fill="#FFFFFF"></path>
                                <path d="M9.53014583,40.2615385 C9.48510417,40.2389423 9.46210417,40.1932692 9.4170625,40.1706731 C5.37318125,36.6323383 2.88942134,31.6319573 2.5084375,26.2620192 C2.12163382,21.78609 3.28975546,17.3136976 5.8146875,13.6033654 C10.015815,7.22616321 17.4306191,3.75673934 25.0000417,4.62644231 C25.5664167,4.69471154 26.1553125,4.78557692 26.7216875,4.89903846 C26.9483333,4.94423077 27.1749792,4.98990385 27.4011458,5.0125 C27.1438661,5.1757397 26.8709849,5.31279769 26.5865625,5.42163462 L26.4734792,5.46682692 C26.1240037,5.58394516 25.8672609,5.88471605 25.8056372,6.24919541 C25.7440135,6.61367476 25.8875332,6.98257273 26.1789621,7.20877677 C26.470391,7.43498081 26.8623224,7.48169433 27.1984583,7.33028846 C28.37625,6.87548077 29.6446042,6.39855769 30.8904375,5.92115385 C31.2221235,5.79792812 31.4803839,5.53067326 31.5928958,5.19423077 C31.6878268,4.87583716 31.6291661,4.53123086 31.4342917,4.2625 C30.7548333,3.28509615 30.0298542,2.23990385 29.0331875,0.897115385 C28.8709778,0.674361829 28.6259472,0.526817143 28.3537292,0.487980769 C28.0729275,0.449391165 27.7882349,0.522744035 27.5607083,0.692307692 C27.352808,0.857635673 27.2191766,1.09930209 27.1894075,1.36378908 C27.1596383,1.62827606 27.236188,1.89375775 27.4021042,2.10144231 C27.5832292,2.35144231 27.7418333,2.60144231 27.9454792,2.87403846 C28.0135208,2.96490385 28.0815625,3.07884615 28.172125,3.19230769 L28.1270833,3.19230769 C28.0590417,3.19230769 28.0365208,3.16971154 27.991,3.16971154 C25.1872591,2.44675488 22.2656648,2.30751666 19.40625,2.76057692 C13.5192404,3.61200767 8.2339386,6.8382163 4.7739375,11.6923077 C1.19445532,16.4737794 -0.249038021,22.5302682 0.787270833,28.4192308 C1.5828868,33.3875201 4.03427574,37.9382316 7.7409375,41.3278846 C8.02010269,41.597717 8.32341538,41.8412109 8.64704167,42.0552885 C8.80231322,42.1563726 8.98282582,42.211524 9.16789583,42.2144231 C9.46762908,42.2048526 9.74143653,42.041435 9.892875,41.7817308 C10.0432031,41.5949401 10.113332,41.3558384 10.0878054,41.1171237 C10.0622787,40.878409 9.9431919,40.6596764 9.75679167,40.5091346 C9.6932215,40.416321 9.61692133,40.3329679 9.53014583,40.2615385 Z" id="Path_487" fill="#FFFFFF"></path>
                                <path d="M6.58614583,33.2850962 C6.75213224,33.6119449 7.08315598,33.8213718 7.44864583,33.8307692 C7.58982983,33.8333734 7.72960439,33.8022268 7.85641667,33.7399038 C8.35475,33.4899038 8.85308333,33.2399038 9.32889583,32.9899038 L9.55554167,32.8764423 C9.87324422,32.7076667 10.0668192,32.3715126 10.053875,32.0110577 C10.0638052,31.6871743 9.89897926,31.383064 9.622625,31.2153846 C9.34133091,31.0414018 8.99075551,31.0243408 8.694,31.1701923 C8.08258333,31.4427885 7.4936875,31.7836538 6.99535417,32.05625 C6.77833116,32.1639906 6.61318554,32.3542382 6.53661547,32.5847167 C6.4600454,32.8151952 6.4783938,33.0668121 6.58758333,33.2836538 L6.58614583,33.2850962 Z" id="Path_488" fill="#FFFFFF"></path>
                                <path d="M37.0966042,15.0360577 C36.55275,15.33125 36.009375,15.6721154 35.3979583,16.08125 C35.0415584,16.2964465 34.8890115,16.7362075 35.0352292,17.1269231 C35.1753019,17.5473815 35.5675278,17.8309687 36.009375,17.83125 L36.0318958,17.83125 C36.095544,17.8353871 36.1588848,17.8194148 36.2130208,17.7855769 L36.6888333,17.5129808 C37.1871667,17.2173077 37.7080208,16.9221154 38.2063542,16.58125 C38.3469252,16.4755022 38.4436658,16.3214322 38.4780417,16.1485577 C38.5190313,15.8843564 38.4538924,15.61463 38.2969167,15.3985577 C38.0419616,14.9955335 37.5309215,14.841197 37.0966042,15.0360577 Z" id="Path_489" fill="#FFFFFF"></path>
                                <path d="M15.0573333,12.2649038 C15.1878627,12.2621925 15.317181,12.2391618 15.4406667,12.1966346 C15.844029,12.0276618 16.0850983,11.6090536 16.0295625,11.1740385 L16.0295625,11.1514423 C16.0295625,11.1288462 16.0070417,11.10625 16.0070417,11.0831731 C15.97755,10.9638031 15.9317556,10.8490959 15.8709583,10.7423077 C15.6443125,10.3096154 15.372625,9.85576923 15.0328958,9.26490385 C14.7831157,8.81393074 14.2214562,8.64361326 13.7645417,8.88028846 C13.5412196,8.98164516 13.3691925,9.17058664 13.2887292,9.40288462 C13.2136313,9.61962456 13.2300761,9.85774302 13.33425,10.0620192 C13.6454082,10.6954992 13.9932386,11.3101712 14.3759583,11.9028846 C14.5262237,12.1327631 14.783377,12.2693904 15.0573333,12.2649038 Z" id="Path_490" fill="#FFFFFF"></path>
                                <path d="M30.4371458,9.17259615 C30.0660409,9.73275428 29.7330612,10.3174177 29.4404792,10.9225962 C29.2993269,11.1957871 29.3078307,11.522553 29.463,11.7879808 C29.6632142,12.1021928 29.9985731,12.3041522 30.3691042,12.3336538 L30.391625,12.3336538 C30.4596667,12.2879808 30.5272292,12.2653846 30.5952708,12.2201923 C30.7587695,12.1543279 30.9059515,12.0534172 31.0265208,11.9245192 C31.4136969,11.3345317 31.7616876,10.7195765 32.0682292,10.0836538 C32.2646801,9.65010244 32.0846268,9.13828073 31.6604583,8.92451923 C31.4661445,8.79172972 31.2265859,8.74338238 30.9962127,8.79046218 C30.7658395,8.83754198 30.5642134,8.97605119 30.4371458,9.17451923 L30.4371458,9.17259615 Z" id="Path_491" fill="#FFFFFF"></path>
                                <path d="M39.9730417,25.2625 C40.2083491,25.279077 40.4395048,25.1939922 40.6083036,25.0286701 C40.7771024,24.8633479 40.8674603,24.6335412 40.856625,24.3971154 C40.8678791,24.1278959 40.7698475,23.8656042 40.5849375,23.6701923 C40.4174339,23.4994258 40.189766,23.4015276 39.951,23.3975962 C39.3395833,23.3975962 38.6826458,23.4201923 38.0257083,23.4658654 C37.5171076,23.5043654 37.1315336,23.9421897 37.1560716,24.4533491 C37.1806096,24.9645086 37.6063366,25.3631257 38.1162708,25.3524038 L39.1129375,25.3524038 L39.1129375,25.2841346 L39.3621042,25.2841346 C39.5651446,25.2648111 39.7691486,25.2575868 39.9730417,25.2625 Z" id="Path_492" fill="#FFFFFF"></path>
                                <path d="M7.35616667,23.4451923 C6.74475,23.3995192 6.11033333,23.3769231 5.47639583,23.3769231 C4.96353041,23.3706833 4.54272937,23.7827751 4.53651042,24.2973558 C4.53029146,24.8119365 4.94100957,25.2341449 5.453875,25.2403846 L6.33745833,25.2403846 L6.33745833,25.3086538 L7.26608333,25.3086538 C7.77798134,25.3186282 8.20234433,24.913009 8.21722917,24.3995192 C8.24101087,24.1552917 8.16091361,23.9123417 7.99666907,23.7305191 C7.83242452,23.5486966 7.59930154,23.4449044 7.35472917,23.4447115 L7.35616667,23.4451923 Z" id="Path_493" fill="#FFFFFF"></path>
                                <path d="M9.96139583,15.9903846 C9.4630625,15.6721154 8.94220833,15.3538462 8.443875,15.0586538 C8.23211695,14.9120513 7.96999685,14.8582708 7.71787854,14.9096975 C7.46576024,14.9611242 7.24537632,15.1133252 7.10747917,15.33125 C6.97083666,15.5218524 6.92913667,15.7649112 6.99439583,15.9903846 C7.05810339,16.2531079 7.22028044,16.4810873 7.44720833,16.6269231 C7.90002083,16.9225962 8.42135417,17.2403846 8.98725,17.5586538 C9.09282207,17.6165479 9.20788637,17.6549767 9.32697917,17.6721154 C9.3725,17.6721154 9.41754167,17.6951923 9.4630625,17.6951923 C9.50810417,17.6951923 9.53110417,17.6725962 9.57614583,17.6725962 C9.6441875,17.6725962 9.71222917,17.65 9.75727083,17.65 C10.1245837,17.5550363 10.389559,17.234102 10.4142083,16.8543269 C10.4470478,16.5017974 10.2694896,16.1630258 9.96139583,15.9903846 Z" id="Path_494" fill="#FFFFFF"></path>
                                <path d="M38.433,32.1947115 C37.889625,31.8538462 37.3007292,31.5129808 36.6888333,31.1947115 C36.2850223,31.0020201 35.8014278,31.1378959 35.5560833,31.5129808 C35.2730548,31.8298163 35.2730548,32.3096068 35.5560833,32.6264423 C36.0769283,33.0798288 36.6757683,33.4341762 37.32325,33.6721154 C37.4952933,33.734082 37.6619661,33.8101396 37.8215833,33.8995192 C38.2527814,33.9400574 38.6588762,33.6901006 38.81825,33.2860577 C38.9594377,32.8772369 38.8004365,32.4247615 38.4349167,32.1951923 L38.433,32.1947115 Z" id="Path_495" fill="#FFFFFF"></path>
                                <path d="M12.70175,38.7625 C12.5309905,38.9701703 12.457943,39.2417174 12.5013704,39.5073911 C12.5447979,39.7730648 12.7004683,40.0069749 12.9283958,40.1490385 C13.0722139,40.2358788 13.236375,40.2829863 13.4042083,40.2855769 C13.7684647,40.2745767 14.1018098,40.0774195 14.2877917,39.7629808 C14.605,39.2855769 14.8992083,38.7855769 15.1938958,38.3086538 C15.2541428,38.2096135 15.2999676,38.1024394 15.3299792,37.9903846 C15.3299792,37.9677885 15.3525,37.9451923 15.3525,37.9221154 L15.3525,37.8995192 C15.3782734,37.4501472 15.099361,37.0396549 14.6730417,36.8995192 C14.2903955,36.761605 13.8639126,36.9136969 13.6538542,37.2629808 C13.3591667,37.6956731 13.0649583,38.1495192 12.7913542,38.58125 L12.70175,38.7625 Z" id="Path_496" fill="#FFFFFF"></path>
                                <path d="M23.6416042,7.44519231 C23.6388058,7.20302548 23.5385945,6.97226924 23.3637278,6.8053278 C23.1888612,6.63838637 22.9541798,6.54942761 22.7129792,6.55865385 C22.4717786,6.54942761 22.2370971,6.63838637 22.0622305,6.8053278 C21.8873639,6.97226924 21.7871525,7.20302548 21.7843542,7.44519231 C21.7618333,8.08125 21.7618333,8.71778846 21.7843542,9.37692308 C21.798977,9.87804882 22.2134141,10.2737031 22.7129792,10.2634615 C22.9540977,10.2726862 23.1887057,10.1837925 23.3635579,10.0169554 C23.5384101,9.85011826 23.6386776,9.61948676 23.6416042,9.37740385 L23.6416042,7.44519231 Z" id="Path_497" fill="#FFFFFF"></path>
                                <path d="M32.83825,39.0350962 C32.7476875,38.8759615 32.657125,38.7394231 32.5665625,38.5807692 C32.2938105,38.0999794 31.9911779,37.636885 31.6604583,37.1942308 C31.5285129,37.0235944 31.3311518,36.9164711 31.1166042,36.8990385 C30.8706719,36.8560539 30.6178124,36.9133366 30.4141458,37.0581731 C30.0367017,37.3250783 29.9196792,37.8340788 30.1424583,38.2399038 C30.5047083,38.8533654 30.8444375,39.3990385 31.1841667,39.8990385 C31.3335519,40.1291366 31.5899525,40.266474 31.863625,40.2629808 C32.0098846,40.2609793 32.1551063,40.2379899 32.294875,40.1947115 C32.6665557,40.0419747 32.8960396,39.6644558 32.86125,39.2629808 L32.86125,39.2173077 C32.8869881,39.1568663 32.8781932,39.0871912 32.83825,39.0350962 Z" id="Path_498" fill="#FFFFFF"></path>
                                <path d="M23.6420833,40.1942308 C23.6298557,39.6884956 23.217656,39.2849474 22.7134583,39.2850962 L22.6909375,39.2850962 C22.4462495,39.2772417 22.2089335,39.3697521 22.0337128,39.5412953 C21.858492,39.7128384 21.7604926,39.9486056 21.7623125,40.1942308 C21.7397917,40.8307692 21.7397917,41.4668269 21.7623125,42.0807692 C21.7646727,42.5818862 22.1689701,42.9875357 22.6684167,42.9899038 L22.6909375,42.9899038 C22.9345619,42.9940156 23.1697232,42.9002803 23.3441178,42.729546 C23.5185124,42.5588116 23.6176794,42.3252358 23.6195625,42.0807692 L23.6195625,40.8081731 C23.638839,40.604131 23.6463584,40.3991425 23.6420833,40.1942308 Z" id="Path_499" fill="#FFFFFF"></path>
                                <path d="M27.6512708,20.4899038 L26.4509583,20.4899038 C26.6320833,19.9216346 26.8342917,19.3533654 27.0173333,18.7855769 C27.2833817,18.0670817 27.3536782,17.2904043 27.2209792,16.5355769 C27.0534677,15.3634623 26.4253757,14.3073702 25.4768125,13.6028846 C25.0183185,13.2449417 24.4016797,13.1665901 23.8687292,13.3985577 C23.3251277,13.6197459 22.9378553,14.1118951 22.8495417,14.69375 C22.8306956,14.9129239 22.8231786,15.1329303 22.8270208,15.3528846 L22.8270208,15.4211538 C22.8418781,16.3015375 22.5542361,17.1602194 22.0124375,17.8528846 C21.6046667,18.3754808 21.1978542,18.8985577 20.7896042,19.44375 L19.8609792,20.6480769 C19.7160125,20.5452395 19.5395855,20.4969002 19.3626458,20.5115385 L15.5575833,20.5115385 C15.3583514,20.5178938 15.1606169,20.5484038 14.9686875,20.6024038 C14.2832202,20.8463472 13.8342241,21.5076996 13.8589375,22.2370192 L13.8589375,31.16875 C13.8420735,32.0898632 14.5701575,32.8515367 15.4881042,32.8730769 L18.5461458,32.8730769 C18.9048121,32.8783521 19.2524109,32.7484886 19.5202917,32.5091346 C19.6525643,32.3922194 19.7739733,32.2634848 19.8830208,32.1245192 C19.9110143,32.0986292 19.9340715,32.0678378 19.9510625,32.0336538 C20.0084745,32.0551493 20.0620365,32.0858353 20.1096667,32.1245192 C21.0907688,32.6279694 22.1788748,32.8853164 23.2807917,32.8745192 L30.006375,32.8745192 C30.1505066,32.8796137 30.2948062,32.8720529 30.437625,32.8519231 C31.0416638,32.7800297 31.5771598,32.4281303 31.8842248,31.9012949 C32.1912898,31.3744595 32.2343938,30.7336476 32.0006667,30.1701923 C31.9776667,30.125 31.9776667,30.1019231 31.9551458,30.0567308 C32.7337355,29.4768951 32.9658053,28.4091715 32.4985208,27.5567308 C32.9803186,27.1715446 33.2833092,26.604731 33.3365833,25.9889423 C33.3832347,25.3676129 33.1791636,24.753525 32.7702083,24.2846154 C33.3667129,23.5974899 33.4977968,22.6198433 33.1034851,21.798978 C32.7091733,20.9781128 31.8653149,20.4719284 30.958,20.5120192 C29.87125,20.4899038 28.7605417,20.4899038 27.6512708,20.4899038 Z M15.69175,31.3302885 L15.5556667,31.3302885 C15.4195833,31.3302885 15.3970625,31.2850962 15.3970625,31.1485577 L15.3970625,22.2850962 C15.3970625,22.0576923 15.4195833,22.0350962 15.6237083,22.0350962 L18.6137083,22.0350962 L18.6137083,22.6033654 L16.077,22.6033654 C15.8503542,22.6033654 15.8503542,22.6259615 15.8503542,22.8533654 L15.8503542,31.3302885 L15.69175,31.3302885 Z M31.0250833,25.0350962 C31.2129584,25.0417781 31.3944668,25.1051081 31.5459375,25.2168269 C31.6794083,25.3343594 31.7675789,25.4951284 31.7951042,25.6711538 C31.7045417,25.6485577 31.5909792,25.6259615 31.4778958,25.6028846 C31.2223845,25.5866537 30.9923586,25.4419545 30.8664792,25.2182692 C30.8266788,25.146687 30.7962405,25.070256 30.7759167,24.9908654 C30.8561007,25.0189297 30.9401814,25.0341798 31.0250833,25.0360577 L31.0250833,25.0350962 Z M30.1625833,30.4677885 C30.3975941,30.4752797 30.5863671,30.6646841 30.5938333,30.9004808 C30.5974803,30.9471529 30.5897509,30.9940143 30.5713125,31.0370192 C30.2200213,31.0102901 29.9312666,30.7484539 29.8693333,30.4004808 C29.9614005,30.4445978 30.0619963,30.4679025 30.1640208,30.46875 L30.1625833,30.4677885 Z M30.5938333,28.2860577 C30.527279,28.2013841 30.4878529,28.0984665 30.48075,27.9908654 C30.5719854,28.0373248 30.673137,28.0607583 30.7754375,28.0591346 C30.9172381,28.0621465 31.0502057,28.1288526 31.1376875,28.2408654 C31.2052654,28.3406268 31.229803,28.4635518 31.2057292,28.5817308 C31.2057292,28.6043269 31.2057292,28.6043269 31.1832083,28.6269231 C30.9444426,28.6124235 30.7263478,28.4861856 30.5943125,28.2860577 L30.5938333,28.2860577 Z M20.1518333,30.4225962 L20.1518333,22.8548077 C20.1536206,22.781401 20.1773235,22.7102218 20.219875,22.6504808 C21.1485,21.4230769 22.1451667,20.1504808 23.1427917,18.8778846 C23.9436752,17.8820476 24.3687247,16.6346409 24.3431042,15.3552885 L24.3431042,14.9706731 C24.3360852,14.9214459 24.3645099,14.8740468 24.4111458,14.8572115 C24.4634814,14.8304811 24.5268994,14.8395162 24.56975,14.8798077 C24.851351,15.1052612 25.095841,15.3737693 25.29425,15.6754808 C25.2094267,15.5930317 25.1186142,15.5170211 25.0225625,15.4480769 C24.980469,15.4062287 24.9159986,15.3970436 24.8639583,15.4254808 C24.8215353,15.4471518 24.7951292,15.4911847 24.7959167,15.5389423 L24.7959167,15.9235577 C24.8217849,17.2029488 24.3967071,18.4504383 23.5956042,19.4461538 C22.5989375,20.6961538 21.6022708,21.9913462 20.6726875,23.21875 C20.626882,23.2769611 20.6028117,23.3494136 20.6046458,23.4235577 L20.6046458,30.6278846 C20.4685625,30.5596154 20.3099583,30.4913462 20.1733958,30.4230769 L20.1518333,30.4225962 Z M31.7476667,22.5139423 C31.7730659,22.563459 31.7883778,22.6175569 31.7927083,22.6730769 C31.6776344,22.6265488 31.5545162,22.6033461 31.4304583,22.6048077 L25.8582292,22.6048077 C25.498377,22.6270997 25.1741819,22.3878463 25.0882083,22.0365385 L25.0882083,21.9682692 C25.1874041,22.0149034 25.2958851,22.0382506 25.4054167,22.0365385 L30.9776458,22.0365385 C31.3090265,22.016626 31.61717,22.2076713 31.7476667,22.5139423 Z" id="Path_500"></path>
                            </g>
                            <g id="Group_125" transform="translate(13.115000, 12.459135)">
                                <path d="M18.3657708,15.08125 L18.1616458,15.08125 C17.8878146,15.0999531 17.645311,15.2653482 17.5272292,15.5139423 C17.4124937,15.765487 17.43835,16.0590785 17.5952708,16.2865385 C17.7425434,16.4928078 17.9769452,16.6187495 18.2296875,16.6274038 C18.3714881,16.6304157 18.5044557,16.6971218 18.5919375,16.8091346 C18.6595154,16.9088961 18.684053,17.031821 18.6599792,17.15 C18.5888193,17.349651 18.395704,17.4789554 18.1846458,17.4682692 L17.6407917,17.4682692 C17.2217743,17.4621164 16.8770754,17.797853 16.8707708,18.2182692 C16.864904,18.6511417 17.2093763,19.0070897 17.6407917,19.0139423 C17.8760057,19.0209618 18.0650456,19.210634 18.0720417,19.4466346 C18.046742,19.6701699 17.864648,19.8429257 17.6407917,19.8557692 L10.4815625,19.8557692 C9.79836092,19.8600678 9.12356696,19.704509 8.51075,19.4014423 C8.35540849,19.3348108 8.20419841,19.2588726 8.0579375,19.1740385 C7.92185417,19.1057692 7.76325,19.0149038 7.6266875,18.9466346 C7.61424959,18.9466346 7.60416667,18.936518 7.60416667,18.9240385 L7.60416667,11.3519231 C7.60592451,11.2785112 7.62963026,11.2073236 7.67220833,11.1475962 C8.60083333,9.92019231 9.5975,8.64759615 10.595125,7.375 C11.396228,6.37928446 11.8213057,5.13179498 11.7954375,3.85240385 L11.7954375,3.46778846 C11.7884185,3.41856132 11.8168432,3.37116221 11.8634792,3.35432692 C11.9158147,3.32759645 11.9792328,3.33663154 12.0220833,3.37692308 C12.5961639,3.82121751 12.990401,4.45912784 13.1318333,5.17259615 C13.2397999,5.71084381 13.2005584,6.26837627 13.0182708,6.78605769 L12.814625,7.39951923 C12.5879792,8.05865385 12.3618125,8.76298077 12.1351667,9.44471154 C12.0752162,9.62001931 12.0595749,9.80751681 12.0896458,9.99038462 C12.1693859,10.3458246 12.4977397,10.5881471 12.8596667,10.5586538 L18.4357292,10.5586538 C18.7671464,10.5385959 19.0753666,10.7296888 19.20575,11.0360577 C19.2990343,11.2526638 19.2732577,11.5023667 19.1377083,11.6951923 C19.0056202,11.8952638 18.787556,12.021484 18.5488125,12.0360577 C18.2591969,12.038372 17.992314,12.1939193 17.8468333,12.4451923 C17.7181222,12.6726244 17.726813,12.9531432 17.8693542,13.1721154 C17.9952336,13.3958006 18.2252595,13.5404998 18.4807708,13.5567308 C18.6686736,13.5632642 18.8502245,13.626609 19.001625,13.7384615 C19.217164,13.912193 19.3067059,14.1993815 19.2282708,14.4653846 C19.1615454,14.7296229 18.9504099,14.9325056 18.6844167,14.9879808 C18.5978193,15.0659905 18.4805902,15.100304 18.3657708,15.08125 Z" id="Path_501"></path>
                                <path d="M6.067,19.3538462 L6.067,19.6947115 C6.067,19.8764423 6.04447917,19.8990385 5.86335417,19.8990385 L3.0094375,19.8990385 C2.87383333,19.8990385 2.85083333,19.8538462 2.85083333,19.7173077 L2.85083333,10.8538462 C2.85083333,10.6264423 2.87335417,10.6038462 3.07747917,10.6038462 L6.06747917,10.6038462 L6.06747917,19.3538462 L6.067,19.3538462 Z" id="Path_502" fill="#FCA50C"></path>
                                <g id="Group_124" fill="#FFFFFF">
                                    <g id="Group_123">
                                        <g id="Group_122" transform="translate(0.833063, 0.787019)">
                                            <path d="M19.5044792,13.1802885 C19.5510215,12.5589726 19.3469641,11.944926 18.9381042,11.4759615 C19.5340599,10.7887688 19.6648937,9.81150491 19.2708011,8.9908788 C18.8767085,8.17025269 18.0334085,7.66393539 17.126375,7.70336538 L12.5963333,7.70336538 C12.7774583,7.13509615 12.9796667,6.56682692 13.1627083,5.99903846 C13.4287567,5.28054326 13.4990532,4.5038658 13.3663542,3.74903846 C13.1987913,2.57694213 12.5707103,1.5208685 11.6221875,0.816346154 C11.1636522,0.458503071 10.5470699,0.380158639 10.0141042,0.612019231 C9.4705624,0.833287233 9.08332146,1.32539637 8.99491667,1.90721154 C8.97612852,2.12638897 8.96861161,2.34639232 8.97239583,2.56634615 L8.97239583,2.63461538 C8.98725308,3.51499907 8.69961108,4.3736809 8.1578125,5.06634615 C7.75004167,5.58894231 7.34322917,6.11201923 6.9345,6.65721154 L6.005875,7.86153846 C5.86090834,7.758701 5.68448131,7.71036172 5.50754167,7.725 L1.70247917,7.725 C1.50323638,7.73123737 1.30548775,7.76174957 1.11358333,7.81586538 C0.428017723,8.05968084 -0.0210346239,8.72111619 0.00383333333,9.45048077 L0.00383333333,18.3822115 C-0.0130306741,19.3033247 0.715053308,20.0649983 1.633,20.0865385 L4.69104167,20.0865385 C5.04962799,20.0918518 5.39718615,19.9621751 5.6651875,19.7230769 C5.79721173,19.6060547 5.91845243,19.4773286 6.0274375,19.3384615 C6.05539142,19.3125357 6.07844279,19.281752 6.09547917,19.2475962 C6.15289841,19.2690762 6.20646274,19.2997635 6.25408333,19.3384615 C7.23517225,19.8419478 8.32328723,20.099297 9.42520833,20.0884615 L16.1527083,20.0884615 C16.2968405,20.0936178 16.4411455,20.0860566 16.5839583,20.0658654 C17.1879972,19.993972 17.7234931,19.6420727 18.0305581,19.1152373 C18.3376231,18.5884019 18.3807271,17.9475899 18.147,17.3841346 C18.1244792,17.3384615 18.1244792,17.3158654 18.1014792,17.2706731 C18.8802365,16.6909774 19.1125163,15.6232288 18.6453333,14.7706731 C19.1526594,14.3946567 19.4673971,13.8120386 19.5044792,13.1802885 Z M17.103375,13.7254808 L16.8997292,13.7254808 C16.6259321,13.7442832 16.3834739,13.9096475 16.2653125,14.1581731 C16.1506751,14.4097347 16.1765269,14.7032753 16.3333542,14.9307692 C16.4801763,15.1373056 16.7145827,15.2633448 16.9672917,15.2716346 C17.1092614,15.2745033 17.2424335,15.3412238 17.3300208,15.4533654 C17.3974963,15.5531699 17.4220253,15.6760516 17.3980625,15.7942308 C17.3268514,15.9940591 17.133481,16.1234039 16.92225,16.1125 L16.3783958,16.1125 C15.9593784,16.1063472 15.6146796,16.4420838 15.608375,16.8625 C15.6027729,17.2952667 15.9470936,17.651058 16.3783958,17.6581731 C16.6135081,17.6654289 16.8024142,17.8549668 16.8096458,18.0908654 C16.7843462,18.3144007 16.6022522,18.4871565 16.3783958,18.5 L9.22108333,18.5 C8.53784745,18.5041137 7.86305954,18.3483918 7.25027083,18.0451923 C7.09496115,17.9784919 6.94375513,17.9025558 6.79745833,17.8177885 C6.661375,17.7495192 6.50277083,17.6586538 6.36620833,17.5903846 C6.36025825,17.5903251 6.35457346,17.5879053 6.35039583,17.5836538 C6.34608592,17.5793145 6.34367253,17.5734338 6.3436875,17.5673077 L6.3436875,9.99951923 C6.34540871,9.92595274 6.36911337,9.85460091 6.41172917,9.79471154 C7.34035417,8.56778846 8.33702083,7.29471154 9.33464583,6.02211538 C10.1354562,5.02623788 10.5604964,3.77885872 10.5349583,2.49951923 L10.5349583,2.11490385 C10.5279393,2.0656767 10.5563641,2.0182776 10.603,2.00144231 C10.6553356,1.97471183 10.7187536,1.98374693 10.7616042,2.02403846 C11.3355544,2.46824348 11.7297732,3.10595336 11.8713542,3.81923077 C11.9793784,4.35744145 11.9403042,4.91494723 11.7582708,5.43269231 L11.5541458,6.04615385 C11.3275,6.70528846 11.1013333,7.40961538 10.8746875,8.09134615 C10.8148384,8.26668198 10.7993606,8.45419357 10.8296458,8.63701923 C10.9092004,8.99258082 11.2376792,9.2349956 11.5996667,9.20528846 L17.1718958,9.20528846 C17.5032765,9.18537597 17.81142,9.37642128 17.9419167,9.68269231 C18.0352967,9.89928363 18.0095151,10.1490355 17.873875,10.3418269 C17.7417869,10.5418984 17.5237227,10.6681186 17.2849792,10.6826923 C16.9953636,10.6850066 16.7284807,10.840554 16.583,11.0918269 C16.4541785,11.3192316 16.4628712,11.5998121 16.6055208,11.81875 C16.7314003,12.0424352 16.9614262,12.1871344 17.2169375,12.2033654 C17.404807,12.210077 17.586307,12.273404 17.7377917,12.3850962 C17.9531556,12.5589457 18.0425019,12.8461139 17.9639583,13.1120192 C17.8972065,13.3760644 17.6863367,13.5788705 17.4205833,13.6346154 C17.331028,13.7058869 17.2169347,13.7385693 17.103375,13.7254808 Z M4.781125,17.9980769 L4.781125,18.3389423 C4.781125,18.5206731 4.75860417,18.5432692 4.577,18.5432692 L1.72308333,18.5432692 C1.587,18.5432692 1.56447917,18.4980769 1.56447917,18.3615385 L1.56447917,9.49807692 C1.56447917,9.27067308 1.587,9.24807692 1.791125,9.24807692 L4.781125,9.24807692 L4.781125,17.9980769 Z" id="Path_517"></path>
                                            <g id="Group_121" transform="translate(2.401583, 16.134615)">
                                                <path d="M0.747979167,0.000480769231 C0.543341783,0.00549185014 0.349199465,0.0924033171 0.208794204,0.241857078 C0.068388943,0.391310838 -0.00661827539,0.590894408 0.000479166667,0.796153846 C0.0122617774,1.21785303 0.350206482,1.55692798 0.7705,1.56875 C1.08316015,1.57157844 1.36620529,1.38361829 1.48579044,1.0937512 C1.60537559,0.803884119 1.53753713,0.470196446 1.31435417,0.250480769 C1.17210216,0.0866608332 0.964460637,-0.00499289798 0.747979167,0.000480769231 Z" id="Path_518"></path>
                                            </g>
                                        </g>
                                    </g>
                                </g>
                            </g>
                        </g>
                    </g>
                </g>
            </g>
        </g>
    </g>
</svg>