<?xml version="1.0" encoding="UTF-8"?>
<svg width="125px" height="140px" viewBox="0 0 125 140" version="1.1" xmlns="http://www.w3.org/2000/svg" xmlns:xlink="http://www.w3.org/1999/xlink">
    <!-- Generator: Sketch 52.6 (67491) - http://www.bohemiancoding.com/sketch -->
    <title>superhero1</title>
    <desc>Created with Sketch.</desc>
    <g id="Page-1" stroke="none" stroke-width="1" fill="none" fill-rule="evenodd">
        <g id="DAP---Healthcare-marketing-page" transform="translate(-778.000000, -1865.000000)">
            <g id="Does-it-sound-familiar?" transform="translate(170.000000, 1489.000000)">
                <g id="superhero1" transform="translate(608.000000, 376.000000)">
                    <polygon id="Shape" fill="#F44336" fill-rule="nonzero" points="124.8 125.946269 0 63.3313433 124.8 63.3313433"></polygon>
                    <polygon id="Shape" fill="#2196F3" fill-rule="nonzero" points="0 63.3313433 62.4716418 63.3313433 62.4716418 139.558209"></polygon>
                    <polygon id="Shape" fill="#0F52EB" fill-rule="nonzero" points="124.8 63.3313433 62.4716418 63.3313433 62.4716418 139.558209"></polygon>
                    <polygon id="Shape" fill="#3F51B5" fill-rule="nonzero" points="0 63.3313433 62.4716418 63.3313433 62.4716418 94.5671642"></polygon>
                    <polygon id="Shape" fill="#2B3DA0" fill-rule="nonzero" points="0 63.3313433 62.4716418 63.3313433 62.4716418 73.0746269"></polygon>
                    <polygon id="Shape" fill="#1E248C" fill-rule="nonzero" points="124.8 63.3313433 62.4716418 63.3313433 62.4716418 94.5671642"></polygon>
                    <polygon id="Shape" fill="#0F1461" fill-rule="nonzero" points="124.8 63.3313433 62.4716418 63.3313433 62.4716418 73.0746269"></polygon>
                    <polygon id="Shape" fill="#F0B697" fill-rule="nonzero" points="38.2567164 59.7492537 48.5731343 77.2298507 62.4716418 77.2298507 62.4716418 16.1910448 38.2567164 16.1910448"></polygon>
                    <polygon id="Shape" fill="#E88F61" fill-rule="nonzero" points="86.6865672 59.7492537 76.2268657 77.2298507 62.4716418 77.2298507 62.4716418 16.1910448 86.6865672 16.1910448"></polygon>
                    <path d="M72.6447761,40.8358209 C72.6447761,42.735021 71.1051702,44.2746269 69.2059701,44.2746269 C67.3067701,44.2746269 65.7671642,42.735021 65.7671642,40.8358209 C65.7671642,38.9366208 67.3067701,37.3970149 69.2059701,37.3970149 C71.1051702,37.3970149 72.6447761,38.9366208 72.6447761,40.8358209 Z" id="Shape" fill="#000000" fill-rule="nonzero"></path>
                    <path d="M59.0328358,40.8358209 C59.0328358,42.735021 57.4932299,44.2746269 55.5940299,44.2746269 C53.6948298,44.2746269 52.1552239,42.735021 52.1552239,40.8358209 C52.1552239,38.9366208 53.6948298,37.3970149 55.5940299,37.3970149 C57.4932299,37.3970149 59.0328358,38.9366208 59.0328358,40.8358209 Z" id="Shape" fill="#000000" fill-rule="nonzero"></path>
                    <path d="M75.1470282,16.4052736 C71.5538908,20.919292 66.9737323,24.5601278 61.7541859,27.0514421 C61.4068102,27.3149759 61.1969002,27.7197481 61.1824345,28.1539579 C61.1844127,30.2716878 60.2069052,32.2727051 58.5315873,33.580403 C57.817799,34.067263 56.9986816,34.3800542 56.1406271,34.4934239 C54.945147,34.6484652 54.2694409,33.7698979 54.4946762,32.5295676 C55.2223598,33.3047741 56.0020207,33.4770422 56.7816817,32.6846089 C57.4050716,31.7066281 57.3426453,30.4445444 56.6257495,29.5321027 C56.4178399,29.3426078 55.8980659,29.411515 55.5688757,29.5321027 C51.6586018,30.7878171 47.5237447,31.1989404 43.4408167,30.7379794 C43.3189785,31.4840423 43.1453048,32.2208166 42.9210427,32.9430111 C42.509268,34.3299272 41.963866,35.6741041 41.2924177,36.9568578 C40.2875213,38.5417243 38.8321542,38.4555902 37.8272579,36.9568578 C36.5158833,34.8901253 35.7914703,32.5090537 35.7308363,30.0661338 C35.5403556,27.5672424 35.4882996,25.0598231 35.5749041,22.5552447 C35.9008735,19.0129208 37.4353616,15.6879432 39.9236796,13.1321797 C43.7481682,8.77451885 48.5249853,5.3449608 53.8882733,3.10617639 C58.4052329,0.976063534 63.3568858,-0.0852600619 68.3553152,0.00535061843 C70.5732452,0.0568024852 72.7446393,0.648306073 74.6792317,1.7280316 C76.1192835,2.4908914 77.2691677,3.70074807 77.9538076,5.17339357 C78.1573192,5.6114655 78.5146423,5.96062158 78.9587039,6.15532174 C83.791933,8.63277026 86.8664675,13.5490639 86.9632229,18.9548415 C87.0592085,20.2378392 86.4526824,21.4727717 85.3760632,22.1864171 C84.299444,22.9000625 82.9196767,22.98176 81.7654833,22.4002034 C79.6034783,21.5534566 77.7452245,20.0837455 76.4291373,18.179635 C75.9786666,17.6800575 75.597499,17.0771192 75.1470282,16.4052736 Z" id="Shape" fill="#000000" fill-rule="nonzero"></path>
                    <polygon id="Path-3" fill="#25A8F5" points="32.8119403 79.8089552 62.4716418 139.558209 62.4716418 94.5671642"></polygon>
                    <polygon id="Path-3" fill="#41C2FF" points="12.1785448 69.4925373 62.4716418 94.5671642 62.4716418 105.456716"></polygon>
                    <polygon id="Path-3" fill="#1775EF" points="62.4716418 123.653172 29.0860075 98.7218284 62.4716418 139.558209"></polygon>
                    <polygon id="Path-3" fill="#1C65FF" points="62.4716418 94.5671642 62.4716418 139.557649 92.1313433 79.8089552"></polygon>
                    <polygon id="Path-3" fill="#0C3BE8" points="62.4716418 123.653172 95.8567164 98.7223881 62.4716418 139.558209"></polygon>
                    <polygon id="Path-3" fill="#4880FF" points="62.4710821 105.456716 62.4716418 94.5671642 112.764179 69.4925373"></polygon>
                    <path d="M70.0303767,93.0260228 L67.3147671,105.708306 L64.1667357,105.708306 L62.437048,98.4859701 L60.7073604,105.708306 L57.6285165,105.708306 L54.9129069,93.0260228 L57.9571571,93.0260228 L59.4100947,100.974047 L61.1397823,93.0260228 L63.7343137,93.0260228 L65.4640014,100.974047 L66.916939,93.0260228 L69.9611892,93.0260228 L70.0303767,93.0260228 Z M73.0054394,90.5552239 L51.8686567,90.5552239 L52.5086411,93.5270939 L55.2069538,106.226655 L55.6393757,108.179104 L69.2693141,108.179104 L69.6844391,106.226655 L72.4346424,93.5270939 L73.0746269,90.5552239 L73.0054394,90.5552239 Z" id="Shape" fill="#FFC107" fill-rule="nonzero"></path>
                    <polygon id="Rectangle" fill="#FFC107" points="54.7343284 91.9880597 70.0656716 91.9880597 68.9091224 105.688872 57.4567164 105.886567"></polygon>
                    <text id="D" font-family="CerebriSans-Bold, Cerebri Sans" font-size="12.8955224" font-weight="bold" fill="#F44336">
                        <tspan x="58.1731343" y="103.985075">D</tspan>
                    </text>
                    <path d="M62.4716418,65.7671642 L62.4710821,59.8925373 L52.0119403,59.8925373 C52.9997686,61.5735705 54.3370821,62.910884 56.0238806,63.9044776 C57.7106791,64.8980713 59.8599328,65.5189668 62.4716418,65.7671642 Z" id="Oval" fill="#FFFDFC"></path>
                    <path d="M62.4716418,65.7671642 L62.4716418,59.8925373 L72.9313433,59.8925373 C71.8936606,61.6477846 70.5563472,62.985098 68.919403,63.9044776 C67.2824588,64.8238572 65.133205,65.4447528 62.4716418,65.7671642 Z" id="Oval" fill="#EDD2C4"></path>
                </g>
            </g>
        </g>
    </g>
</svg>