<?xml version="1.0" encoding="UTF-8"?>
<svg width="170px" height="33px" viewBox="0 0 170 33" version="1.1" xmlns="http://www.w3.org/2000/svg" xmlns:xlink="http://www.w3.org/1999/xlink">
    <!-- Generator: Sketch 52.6 (67491) - http://www.bohemiancoding.com/sketch -->
    <title>omron-logo-blue</title>
    <desc>Created with Sketch.</desc>
    <g id="Page-1" stroke="none" stroke-width="1" fill="none" fill-rule="evenodd">
        <g id="DAP---Healthcare-marketing-page" transform="translate(-660.000000, -940.000000)" fill="#0168B5">
            <g id="Section-1" transform="translate(0.000000, 841.000000)">
                <g id="Logos" transform="translate(660.000000, 81.000000)">
                    <g id="omron-logo-blue" transform="translate(0.000000, 18.000000)">
                        <g id="Group">
                            <path d="M16.3733974,26.0181819 C21.6041667,26.0181819 25.8541667,21.7636363 25.8541667,16.5272727 C25.8541667,11.2909091 21.6041667,7.03636364 16.3733974,7.03636364 C11.1426282,7.03636364 6.89262821,11.2909091 6.89262821,16.5272727 C6.89262821,21.7636363 11.1426282,26.0181819 16.3733974,26.0181819 M16.3733974,32.8363636 C7.35576923,32.8363636 0.0544871795,25.5272727 0.0544871795,16.5 C0.0544871795,7.47272727 7.35576923,0.163636364 16.3733974,0.163636364 C25.3910257,0.163636364 32.6650641,7.47272727 32.6650641,16.4727273 C32.6650641,25.5272727 25.3910257,32.8363636 16.3733974,32.8363636" id="Shape" fill-rule="nonzero"></path>
                            <path d="M116.384615,25.9909091 C121.615385,25.9909091 125.865385,21.7363637 125.865385,16.5 C125.865385,11.2636363 121.615385,7.0090909 116.384615,7.0090909 C111.153846,7.0090909 106.903846,11.2636363 106.903846,16.5 C106.93109,21.7636363 111.153846,25.9909091 116.384615,25.9909091 M116.384615,32.8363636 C107.366988,32.8363636 100.065705,25.5272727 100.065705,16.5 C100.065705,7.47272727 107.366988,0.190909091 116.384615,0.190909091 C125.402243,0.190909091 132.703526,7.5 132.703526,16.5 C132.703526,25.5272727 125.402243,32.8363636 116.384615,32.8363636" id="Shape" fill-rule="nonzero"></path>
                            <path d="M34.5448718,1.2 L34.5448718,32.0727272 L41.3830128,32.0727272 L41.3830128,6.87272727 L48.8477564,6.87272727 L48.8477564,32.0727272 L55.6858974,32.0727272 L55.6858974,6.87272727 L58.3285257,6.87272727 C60.9711538,6.87272727 63.150641,9.02727273 63.150641,11.7 L63.150641,32.0727272 L69.9887821,32.0727272 L69.9887821,11.8636363 C69.9887821,5.86363636 65.1121795,0.981818182 59.1185898,0.981818182 L41.4375,0.981818182 C39.0945512,0.954545455 36.8060898,1.03636364 34.5448718,1.2" id="Shape"></path>
                            <path d="M134.55609,1.2 L134.55609,32.0727272 L141.394231,32.0727272 L141.394231,6.87272727 L149.022436,6.87272727 C151.692307,6.87272727 153.844552,9.02727273 153.844552,11.7 L153.844552,32.0727272 L160.682693,32.0727272 L160.682693,11.8636363 C160.682693,5.86363636 155.80609,0.981818182 149.8125,0.981818182 L141.394231,0.981818182 C139.105769,0.981818182 136.817307,1.03636364 134.55609,1.2" id="Shape"></path>
                            <path d="M72.7676282,1.17272727 L72.7676282,32.0727272 L79.6057693,32.0727272 L79.6057693,6.87272727 L87.6698718,6.87272727 C90.3397436,6.87272727 92.4919872,9.02727273 92.4919872,11.7 C92.4919872,14.3727273 90.3397436,16.5272727 87.6698718,16.5272727 L81.7580128,16.5272727 L92.3285257,32.0727272 L100.719551,32.0727272 L93.1185898,20.890909 C96.7692307,19.4181819 99.3301282,15.8727272 99.3301282,11.7 C99.3301282,5.78181818 94.5352564,0.981818182 88.6233974,0.981818182 L79.6057693,0.981818182 C77.2900641,0.954545455 75.0016026,1.03636364 72.7676282,1.17272727" id="Shape"></path>
                            <path d="M165.395833,28.8545455 L165.395833,27.5181818 L166.294872,27.5181818 C166.758012,27.5181818 167.221154,27.6272727 167.221154,28.1454546 C167.221154,28.8 166.730769,28.8545455 166.158654,28.8545455 L165.395833,28.8545455 Z M165.395833,29.4 L166.158654,29.4 L167.302885,31.2818182 L168.038462,31.2818182 L166.8125,29.3727272 C167.439102,29.2909091 167.929488,28.9636363 167.929488,28.1727273 C167.929488,27.3272728 167.439102,26.9454545 166.403846,26.9454545 L164.769231,26.9454545 L164.769231,31.2545454 L165.423077,31.2545454 L165.423077,29.4 L165.395833,29.4 Z M166.185898,32.8363636 C168.229167,32.8363636 169.972757,31.2545454 169.972757,29.1 C169.972757,26.9454545 168.229167,25.3636363 166.185898,25.3636363 C164.142628,25.3636363 162.399038,26.9454545 162.399038,29.1 C162.399038,31.2545454 164.142628,32.8363636 166.185898,32.8363636 Z M163.134615,29.1 C163.134615,27.3272728 164.469552,25.9909091 166.185898,25.9909091 C167.875,25.9909091 169.209936,27.3272728 169.209936,29.1 C169.209936,30.9 167.875,32.2363636 166.185898,32.2363636 C164.469552,32.209091 163.134615,30.9 163.134615,29.1 Z" id="Shape" fill-rule="nonzero"></path>
                        </g>
                        <g id="Group">
                            <path d="M16.3733974,26.0181819 C21.6041667,26.0181819 25.8541667,21.7636363 25.8541667,16.5272727 C25.8541667,11.2909091 21.6041667,7.03636364 16.3733974,7.03636364 C11.1426282,7.03636364 6.89262821,11.2909091 6.89262821,16.5272727 C6.89262821,21.7636363 11.1426282,26.0181819 16.3733974,26.0181819 M16.3733974,32.8363636 C7.35576923,32.8363636 0.0544871795,25.5272727 0.0544871795,16.5 C0.0544871795,7.47272727 7.35576923,0.163636364 16.3733974,0.163636364 C25.3910257,0.163636364 32.6650641,7.47272727 32.6650641,16.4727273 C32.6650641,25.5272727 25.3910257,32.8363636 16.3733974,32.8363636" id="Shape" fill-rule="nonzero"></path>
                            <path d="M116.384615,25.9909091 C121.615385,25.9909091 125.865385,21.7363637 125.865385,16.5 C125.865385,11.2636363 121.615385,7.0090909 116.384615,7.0090909 C111.153846,7.0090909 106.903846,11.2636363 106.903846,16.5 C106.93109,21.7636363 111.153846,25.9909091 116.384615,25.9909091 M116.384615,32.8363636 C107.366988,32.8363636 100.065705,25.5272727 100.065705,16.5 C100.065705,7.47272727 107.366988,0.190909091 116.384615,0.190909091 C125.402243,0.190909091 132.703526,7.5 132.703526,16.5 C132.703526,25.5272727 125.402243,32.8363636 116.384615,32.8363636" id="Shape" fill-rule="nonzero"></path>
                            <path d="M34.5448718,1.2 L34.5448718,32.0727272 L41.3830128,32.0727272 L41.3830128,6.87272727 L48.8477564,6.87272727 L48.8477564,32.0727272 L55.6858974,32.0727272 L55.6858974,6.87272727 L58.3285257,6.87272727 C60.9711538,6.87272727 63.150641,9.02727273 63.150641,11.7 L63.150641,32.0727272 L69.9887821,32.0727272 L69.9887821,11.8636363 C69.9887821,5.86363636 65.1121795,0.981818182 59.1185898,0.981818182 L41.4375,0.981818182 C39.0945512,0.954545455 36.8060898,1.03636364 34.5448718,1.2" id="Shape"></path>
                            <path d="M134.55609,1.2 L134.55609,32.0727272 L141.394231,32.0727272 L141.394231,6.87272727 L149.022436,6.87272727 C151.692307,6.87272727 153.844552,9.02727273 153.844552,11.7 L153.844552,32.0727272 L160.682693,32.0727272 L160.682693,11.8636363 C160.682693,5.86363636 155.80609,0.981818182 149.8125,0.981818182 L141.394231,0.981818182 C139.105769,0.981818182 136.817307,1.03636364 134.55609,1.2" id="Shape"></path>
                            <path d="M72.7676282,1.17272727 L72.7676282,32.0727272 L79.6057693,32.0727272 L79.6057693,6.87272727 L87.6698718,6.87272727 C90.3397436,6.87272727 92.4919872,9.02727273 92.4919872,11.7 C92.4919872,14.3727273 90.3397436,16.5272727 87.6698718,16.5272727 L81.7580128,16.5272727 L92.3285257,32.0727272 L100.719551,32.0727272 L93.1185898,20.890909 C96.7692307,19.4181819 99.3301282,15.8727272 99.3301282,11.7 C99.3301282,5.78181818 94.5352564,0.981818182 88.6233974,0.981818182 L79.6057693,0.981818182 C77.2900641,0.954545455 75.0016026,1.03636364 72.7676282,1.17272727" id="Shape"></path>
                            <path d="M165.395833,28.8545455 L165.395833,27.5181818 L166.294872,27.5181818 C166.758012,27.5181818 167.221154,27.6272727 167.221154,28.1454546 C167.221154,28.8 166.730769,28.8545455 166.158654,28.8545455 L165.395833,28.8545455 Z M165.395833,29.4 L166.158654,29.4 L167.302885,31.2818182 L168.038462,31.2818182 L166.8125,29.3727272 C167.439102,29.2909091 167.929488,28.9636363 167.929488,28.1727273 C167.929488,27.3272728 167.439102,26.9454545 166.403846,26.9454545 L164.769231,26.9454545 L164.769231,31.2545454 L165.423077,31.2545454 L165.423077,29.4 L165.395833,29.4 Z M166.185898,32.8363636 C168.229167,32.8363636 169.972757,31.2545454 169.972757,29.1 C169.972757,26.9454545 168.229167,25.3636363 166.185898,25.3636363 C164.142628,25.3636363 162.399038,26.9454545 162.399038,29.1 C162.399038,31.2545454 164.142628,32.8363636 166.185898,32.8363636 Z M163.134615,29.1 C163.134615,27.3272728 164.469552,25.9909091 166.185898,25.9909091 C167.875,25.9909091 169.209936,27.3272728 169.209936,29.1 C169.209936,30.9 167.875,32.2363636 166.185898,32.2363636 C164.469552,32.209091 163.134615,30.9 163.134615,29.1 Z" id="Shape" fill-rule="nonzero"></path>
                        </g>
                    </g>
                </g>
            </g>
        </g>
    </g>
</svg>