<?xml version="1.0" encoding="UTF-8"?>
<svg width="46px" height="58px" viewBox="0 0 46 58" version="1.1" xmlns="http://www.w3.org/2000/svg" xmlns:xlink="http://www.w3.org/1999/xlink">
    <!-- Generator: Sketch 53 (72520) - https://sketchapp.com -->
    <title>Group 17</title>
    <desc>Created with Sketch.</desc>
    <g id="Page-1" stroke="none" stroke-width="1" fill="none" fill-rule="evenodd">
        <g id="DAP---Fintech-Marketing-" transform="translate(-636.000000, -8968.000000)" fill="#FFFFFF">
            <g id="Our-Customers" transform="translate(0.000000, 8621.000000)">
                <g id="Row-1" transform="translate(200.000000, 300.000000)">
                    <g id="2" transform="translate(322.000000, 0.000000)">
                        <g id="Group-17" transform="translate(114.000000, 47.000000)">
                            <path d="M2.42105263,9.64733333 L2.42105263,32.625 C2.42105263,39.8025 13.6692632,52.2483333 23,55.5108333 C32.3307368,52.2483333 43.5789474,39.8025 43.5789474,32.625 L43.5789474,9.64733333 C37.0808421,9.4395 28.4013684,7.56658333 23,2.86133333 C17.5986316,7.56658333 8.91915789,9.4395 2.42105263,9.64733333 L2.42105263,9.64733333 Z M23,58 C22.8741053,58 22.7482105,57.9758333 22.6247368,57.9516667 C12.9550526,54.7858333 0,41.6875 0,32.625 L0,8.45833333 C0,7.79133333 0.542315789,7.25 1.21052632,7.25 C7.67957895,7.25 17.0442105,5.44233333 22.1429474,0.352833333 C22.6174737,-0.118416667 23.3825263,-0.118416667 23.8570526,0.352833333 C28.9557895,5.44233333 38.3204211,7.25 44.7894737,7.25 C45.4576842,7.25 46,7.79133333 46,8.45833333 L46,32.625 C46,41.6875 33.0449474,54.7858333 23.3752632,57.9516667 C23.2517895,57.9758333 23.1258947,58 23,58 L23,58 Z" id="Fill-2009"></path>
                            <path d="M7.26315789,14.36225 L7.26315789,32.625 C7.26315789,36.9266667 15.594,47.125 23,50.6291667 C30.406,47.125 38.7368421,36.9266667 38.7368421,32.625 L38.7368421,14.36225 C33.1902105,13.6058333 27.5515789,11.5758333 23,8.69275 C18.4484211,11.5758333 12.8097895,13.6058333 7.26315789,14.36225 L7.26315789,14.36225 Z M23,53.1666667 C22.8353684,53.1666667 22.6707368,53.1425 22.5157895,53.07 C14.4222105,49.5416667 4.84210526,38.4491667 4.84210526,32.625 L4.84210526,13.2916667 C4.84210526,12.673 5.30936842,12.1558333 5.92431579,12.0905833 C11.6283158,11.4815833 17.7584211,9.29933333 22.3269474,6.24466667 C22.7361053,5.974 23.2638947,5.974 23.6730526,6.24466667 C28.2415789,9.29933333 34.3716842,11.4815833 40.0756842,12.0905833 C40.6906316,12.1558333 41.1578947,12.673 41.1578947,13.2916667 L41.1578947,32.625 C41.1578947,38.4491667 31.5777895,49.5416667 23.4842105,53.07 C23.3292632,53.1425 23.1646316,53.1666667 23,53.1666667 L23,53.1666667 Z" id="Fill-2010"></path>
                            <path d="M22.9903158,38.6666667 C18.4702105,38.6666667 14.8313684,36.25 14.5287368,33.0358333 C14.4657895,32.3833333 14.9524211,31.8033333 15.6182105,31.7308333 C16.2912632,31.6341667 16.8747368,32.1658333 16.9376842,32.8183333 C17.1192632,34.7033333 19.8332632,36.25 22.9903158,36.25 C26.2756842,36.25 29.0502105,34.5825 29.0502105,32.625 C29.0502105,30.015 24.6196842,29.29 23.1646316,29.0483333 L22.4504211,28.9275 C20.4893684,28.6133333 14.5238947,27.6225 14.5238947,22.9583333 C14.5238947,19.575 18.2474737,16.9166667 23.0024211,16.9166667 C27.5225263,16.9166667 31.1613684,19.3333333 31.464,22.5233333 C31.5269474,23.2 31.0403158,23.78 30.3745263,23.8525 C29.6966316,23.925 29.118,23.4175 29.0550526,22.765 C28.8734737,20.88 26.1594737,19.3333333 23.0024211,19.3333333 C19.7194737,19.3333333 16.9449474,21.0008333 16.9449474,22.9583333 C16.9449474,25.5683333 21.3827368,26.2933333 22.8402105,26.535 L23.5544211,26.6558333 C25.5130526,26.97 31.4712632,27.9608333 31.4712632,32.625 C31.4712632,36.0083333 27.7452632,38.6666667 22.9903158,38.6666667" id="Fill-2011"></path>
                            <path d="M22.9975789,41.0833333 C22.3269474,41.0833333 21.7870526,40.5516667 21.7870526,39.875 L21.7870526,15.7083333 C21.7870526,15.0413333 22.3269474,14.5 22.9975789,14.5 C23.6657895,14.5 24.2081053,15.0413333 24.2081053,15.7083333 L24.2081053,39.875 C24.2081053,40.5516667 23.6657895,41.0833333 22.9975789,41.0833333" id="Fill-2012"></path>
                        </g>
                    </g>
                </g>
            </g>
        </g>
    </g>
</svg>