<?xml version="1.0" encoding="UTF-8"?>
<svg width="62px" height="50px" viewBox="0 0 62 50" version="1.1" xmlns="http://www.w3.org/2000/svg" xmlns:xlink="http://www.w3.org/1999/xlink">
    <!-- Generator: Sketch 53 (72520) - https://sketchapp.com -->
    <title>money 3</title>
    <desc>Created with Sketch.</desc>
    <g id="Page-1" stroke="none" stroke-width="1" fill="none" fill-rule="evenodd">
        <g id="DAP---Fintech-Marketing-" transform="translate(-949.000000, -9174.000000)" fill="#FFFFFF">
            <g id="Our-Customers" transform="translate(0.000000, 8621.000000)">
                <g id="Row-2" transform="translate(200.000000, 506.000000)">
                    <g id="3" transform="translate(642.000000, 0.000000)">
                        <g id="money-3" transform="translate(107.000000, 47.000000)">
                            <path d="M5.16666667,46.9894737 L28.4166667,46.9894737 L28.4166667,41.7684211 L5.16666667,41.7684211 L5.16666667,46.9894737 Z M29.7083333,49.6 L3.875,49.6 C3.162,49.6 2.58333333,49.0152421 2.58333333,48.2947368 L2.58333333,40.4631579 C2.58333333,39.7426526 3.162,39.1578947 3.875,39.1578947 L29.7083333,39.1578947 C30.4213333,39.1578947 31,39.7426526 31,40.4631579 L31,48.2947368 C31,49.0152421 30.4213333,49.6 29.7083333,49.6 L29.7083333,49.6 Z" id="Fill-1720"></path>
                            <path d="M24.5416667,49.6 C23.8286667,49.6 23.25,49.0152421 23.25,48.2947368 L23.25,40.4631579 C23.25,39.7426526 23.8286667,39.1578947 24.5416667,39.1578947 C25.2546667,39.1578947 25.8333333,39.7426526 25.8333333,40.4631579 L25.8333333,48.2947368 C25.8333333,49.0152421 25.2546667,49.6 24.5416667,49.6" id="Fill-1721"></path>
                            <path d="M9.04166667,49.6 C8.32866667,49.6 7.75,49.0152421 7.75,48.2947368 L7.75,40.4631579 C7.75,39.7426526 8.32866667,39.1578947 9.04166667,39.1578947 C9.75466667,39.1578947 10.3333333,39.7426526 10.3333333,40.4631579 L10.3333333,48.2947368 C10.3333333,49.0152421 9.75466667,49.6 9.04166667,49.6" id="Fill-1722"></path>
                            <path d="M16.7916667,49.6 C16.0786667,49.6 15.5,49.0152421 15.5,48.2947368 L15.5,40.4631579 C15.5,39.7426526 16.0786667,39.1578947 16.7916667,39.1578947 C17.5046667,39.1578947 18.0833333,39.7426526 18.0833333,40.4631579 L18.0833333,48.2947368 C18.0833333,49.0152421 17.5046667,49.6 16.7916667,49.6" id="Fill-1723"></path>
                            <path d="M7.75,39.1578947 L31,39.1578947 L31,33.9368421 L7.75,33.9368421 L7.75,39.1578947 Z M32.2916667,41.7684211 L6.45833333,41.7684211 C5.74533333,41.7684211 5.16666667,41.1836632 5.16666667,40.4631579 L5.16666667,32.6315789 C5.16666667,31.9110737 5.74533333,31.3263158 6.45833333,31.3263158 L32.2916667,31.3263158 C33.0046667,31.3263158 33.5833333,31.9110737 33.5833333,32.6315789 L33.5833333,40.4631579 C33.5833333,41.1836632 33.0046667,41.7684211 32.2916667,41.7684211 L32.2916667,41.7684211 Z" id="Fill-1724"></path>
                            <path d="M27.125,41.7684211 C26.412,41.7684211 25.8333333,41.1836632 25.8333333,40.4631579 L25.8333333,32.6315789 C25.8333333,31.9110737 26.412,31.3263158 27.125,31.3263158 C27.838,31.3263158 28.4166667,31.9110737 28.4166667,32.6315789 L28.4166667,40.4631579 C28.4166667,41.1836632 27.838,41.7684211 27.125,41.7684211" id="Fill-1725"></path>
                            <path d="M11.625,41.7684211 C10.912,41.7684211 10.3333333,41.1836632 10.3333333,40.4631579 L10.3333333,32.6315789 C10.3333333,31.9110737 10.912,31.3263158 11.625,31.3263158 C12.338,31.3263158 12.9166667,31.9110737 12.9166667,32.6315789 L12.9166667,40.4631579 C12.9166667,41.1836632 12.338,41.7684211 11.625,41.7684211" id="Fill-1726"></path>
                            <path d="M19.375,41.7684211 C18.662,41.7684211 18.0833333,41.1836632 18.0833333,40.4631579 L18.0833333,32.6315789 C18.0833333,31.9110737 18.662,31.3263158 19.375,31.3263158 C20.088,31.3263158 20.6666667,31.9110737 20.6666667,32.6315789 L20.6666667,40.4631579 C20.6666667,41.1836632 20.088,41.7684211 19.375,41.7684211" id="Fill-1727"></path>
                            <path d="M5.16666667,31.3263158 L28.4166667,31.3263158 L28.4166667,26.1052632 L5.16666667,26.1052632 L5.16666667,31.3263158 Z M29.7083333,33.9368421 L3.875,33.9368421 C3.162,33.9368421 2.58333333,33.3520842 2.58333333,32.6315789 L2.58333333,24.8 C2.58333333,24.0794947 3.162,23.4947368 3.875,23.4947368 L29.7083333,23.4947368 C30.4213333,23.4947368 31,24.0794947 31,24.8 L31,32.6315789 C31,33.3520842 30.4213333,33.9368421 29.7083333,33.9368421 L29.7083333,33.9368421 Z" id="Fill-1728"></path>
                            <path d="M24.5416667,33.9368421 C23.8286667,33.9368421 23.25,33.3520842 23.25,32.6315789 L23.25,24.8 C23.25,24.0794947 23.8286667,23.4947368 24.5416667,23.4947368 C25.2546667,23.4947368 25.8333333,24.0794947 25.8333333,24.8 L25.8333333,32.6315789 C25.8333333,33.3520842 25.2546667,33.9368421 24.5416667,33.9368421" id="Fill-1729"></path>
                            <path d="M9.04166667,33.9368421 C8.32866667,33.9368421 7.75,33.3520842 7.75,32.6315789 L7.75,24.8 C7.75,24.0794947 8.32866667,23.4947368 9.04166667,23.4947368 C9.75466667,23.4947368 10.3333333,24.0794947 10.3333333,24.8 L10.3333333,32.6315789 C10.3333333,33.3520842 9.75466667,33.9368421 9.04166667,33.9368421" id="Fill-1730"></path>
                            <path d="M16.7916667,33.9368421 C16.0786667,33.9368421 15.5,33.3520842 15.5,32.6315789 L15.5,24.8 C15.5,24.0794947 16.0786667,23.4947368 16.7916667,23.4947368 C17.5046667,23.4947368 18.0833333,24.0794947 18.0833333,24.8 L18.0833333,32.6315789 C18.0833333,33.3520842 17.5046667,33.9368421 16.7916667,33.9368421" id="Fill-1731"></path>
                            <path d="M5.16666667,23.4947368 L28.4166667,23.4947368 L28.4166667,18.2736842 L5.16666667,18.2736842 L5.16666667,23.4947368 Z M29.7083333,26.1052632 L3.875,26.1052632 C3.162,26.1052632 2.58333333,25.5205053 2.58333333,24.8 L2.58333333,16.9684211 C2.58333333,16.2479158 3.162,15.6631579 3.875,15.6631579 L29.7083333,15.6631579 C30.4213333,15.6631579 31,16.2479158 31,16.9684211 L31,24.8 C31,25.5205053 30.4213333,26.1052632 29.7083333,26.1052632 L29.7083333,26.1052632 Z" id="Fill-1732"></path>
                            <path d="M24.5416667,26.1052632 C23.8286667,26.1052632 23.25,25.5205053 23.25,24.8 L23.25,16.9684211 C23.25,16.2479158 23.8286667,15.6631579 24.5416667,15.6631579 C25.2546667,15.6631579 25.8333333,16.2479158 25.8333333,16.9684211 L25.8333333,24.8 C25.8333333,25.5205053 25.2546667,26.1052632 24.5416667,26.1052632" id="Fill-1733"></path>
                            <path d="M9.04166667,26.1052632 C8.32866667,26.1052632 7.75,25.5205053 7.75,24.8 L7.75,16.9684211 C7.75,16.2479158 8.32866667,15.6631579 9.04166667,15.6631579 C9.75466667,15.6631579 10.3333333,16.2479158 10.3333333,16.9684211 L10.3333333,24.8 C10.3333333,25.5205053 9.75466667,26.1052632 9.04166667,26.1052632" id="Fill-1734"></path>
                            <path d="M16.7916667,26.1052632 C16.0786667,26.1052632 15.5,25.5205053 15.5,24.8 L15.5,16.9684211 C15.5,16.2479158 16.0786667,15.6631579 16.7916667,15.6631579 C17.5046667,15.6631579 18.0833333,16.2479158 18.0833333,16.9684211 L18.0833333,24.8 C18.0833333,25.5205053 17.5046667,26.1052632 16.7916667,26.1052632" id="Fill-1735"></path>
                            <path d="M2.58333333,15.6631579 L25.8333333,15.6631579 L25.8333333,10.4421053 L2.58333333,10.4421053 L2.58333333,15.6631579 Z M27.125,18.2736842 L1.29166667,18.2736842 C0.578666667,18.2736842 0,17.6889263 0,16.9684211 L0,9.13684211 C0,8.41633684 0.578666667,7.83157895 1.29166667,7.83157895 L27.125,7.83157895 C27.838,7.83157895 28.4166667,8.41633684 28.4166667,9.13684211 L28.4166667,16.9684211 C28.4166667,17.6889263 27.838,18.2736842 27.125,18.2736842 L27.125,18.2736842 Z" id="Fill-1736"></path>
                            <path d="M21.9583333,18.2736842 C21.2453333,18.2736842 20.6666667,17.6889263 20.6666667,16.9684211 L20.6666667,9.13684211 C20.6666667,8.41633684 21.2453333,7.83157895 21.9583333,7.83157895 C22.6713333,7.83157895 23.25,8.41633684 23.25,9.13684211 L23.25,16.9684211 C23.25,17.6889263 22.6713333,18.2736842 21.9583333,18.2736842" id="Fill-1737"></path>
                            <path d="M6.45833333,18.2736842 C5.74533333,18.2736842 5.16666667,17.6889263 5.16666667,16.9684211 L5.16666667,9.13684211 C5.16666667,8.41633684 5.74533333,7.83157895 6.45833333,7.83157895 C7.17133333,7.83157895 7.75,8.41633684 7.75,9.13684211 L7.75,16.9684211 C7.75,17.6889263 7.17133333,18.2736842 6.45833333,18.2736842" id="Fill-1738"></path>
                            <path d="M14.2083333,18.2736842 C13.4953333,18.2736842 12.9166667,17.6889263 12.9166667,16.9684211 L12.9166667,9.13684211 C12.9166667,8.41633684 13.4953333,7.83157895 14.2083333,7.83157895 C14.9213333,7.83157895 15.5,8.41633684 15.5,9.13684211 L15.5,16.9684211 C15.5,17.6889263 14.9213333,18.2736842 14.2083333,18.2736842" id="Fill-1739"></path>
                            <path d="M7.75,7.83157895 L31,7.83157895 L31,2.61052632 L7.75,2.61052632 L7.75,7.83157895 Z M32.2916667,10.4421053 L6.45833333,10.4421053 C5.74533333,10.4421053 5.16666667,9.85734737 5.16666667,9.13684211 L5.16666667,1.30526316 C5.16666667,0.584757895 5.74533333,0 6.45833333,0 L32.2916667,0 C33.0046667,0 33.5833333,0.584757895 33.5833333,1.30526316 L33.5833333,9.13684211 C33.5833333,9.85734737 33.0046667,10.4421053 32.2916667,10.4421053 L32.2916667,10.4421053 Z" id="Fill-1740"></path>
                            <path d="M27.125,10.4421053 C26.412,10.4421053 25.8333333,9.85734737 25.8333333,9.13684211 L25.8333333,1.30526316 C25.8333333,0.584757895 26.412,0 27.125,0 C27.838,0 28.4166667,0.584757895 28.4166667,1.30526316 L28.4166667,9.13684211 C28.4166667,9.85734737 27.838,10.4421053 27.125,10.4421053" id="Fill-1741"></path>
                            <path d="M11.625,10.4421053 C10.912,10.4421053 10.3333333,9.85734737 10.3333333,9.13684211 L10.3333333,1.30526316 C10.3333333,0.584757895 10.912,0 11.625,0 C12.338,0 12.9166667,0.584757895 12.9166667,1.30526316 L12.9166667,9.13684211 C12.9166667,9.85734737 12.338,10.4421053 11.625,10.4421053" id="Fill-1742"></path>
                            <path d="M19.375,10.4421053 C18.662,10.4421053 18.0833333,9.85734737 18.0833333,9.13684211 L18.0833333,1.30526316 C18.0833333,0.584757895 18.662,0 19.375,0 C20.088,0 20.6666667,0.584757895 20.6666667,1.30526316 L20.6666667,9.13684211 C20.6666667,9.85734737 20.088,10.4421053 19.375,10.4421053" id="Fill-1743"></path>
                            <path d="M47.7916667,23.4947368 C41.3824167,23.4947368 36.1666667,28.7653895 36.1666667,35.2421053 C36.1666667,41.7188211 41.3824167,46.9894737 47.7916667,46.9894737 C54.2009167,46.9894737 59.4166667,41.7188211 59.4166667,35.2421053 C59.4166667,28.7653895 54.2009167,23.4947368 47.7916667,23.4947368 L47.7916667,23.4947368 Z M47.7916667,49.6 C39.959,49.6 33.5833333,43.1598316 33.5833333,35.2421053 C33.5833333,27.3243789 39.959,20.8842105 47.7916667,20.8842105 C55.6243333,20.8842105 62,27.3243789 62,35.2421053 C62,43.1598316 55.6243333,49.6 47.7916667,49.6 L47.7916667,49.6 Z" id="Fill-1744"></path>
                            <path d="M47.7865,44.3789474 C44.3429167,44.3789474 41.571,42.2905263 41.3385,39.5181474 C41.2790833,38.8002526 41.8060833,38.1685053 42.5165,38.1084632 C43.15975,38.0379789 43.8546667,38.5757474 43.9115,39.2988632 C44.0251667,40.6589474 45.76375,41.7684211 47.7865,41.7684211 C49.8919167,41.7684211 51.6666667,40.5728 51.6666667,39.1578947 C51.6666667,37.8865684 50.4421667,37.0642526 47.8175,36.5760842 L47.5333333,36.5212632 C43.3431667,35.7407158 41.3333333,34.0073263 41.3333333,31.3263158 C41.3333333,28.4469053 44.2318333,26.1052632 47.7968333,26.1052632 C51.2404167,26.1052632 54.0123333,28.1936842 54.2448333,30.9634526 C54.30425,31.6839579 53.77725,32.3157053 53.0668333,32.3757474 C52.3925833,32.4410105 51.7286667,31.9058526 51.6718333,31.1853474 C51.5581667,29.8226526 49.8195833,28.7157895 47.7968333,28.7157895 C45.694,28.7157895 43.9166667,29.9114105 43.9166667,31.3263158 C43.9166667,32.6002526 45.14375,33.4199579 47.7761667,33.9107368 L48.0603333,33.9655579 C52.2453333,34.7461053 54.25,36.4794947 54.25,39.1578947 C54.25,42.0373053 51.3515,44.3789474 47.7865,44.3789474" id="Fill-1745"></path>
                            <path d="M47.7916667,44.3789474 C47.0786667,44.3789474 46.5,43.7941895 46.5,43.0736842 L46.5,27.4105263 C46.5,26.6900211 47.0786667,26.1052632 47.7916667,26.1052632 C48.5046667,26.1052632 49.0833333,26.6900211 49.0833333,27.4105263 L49.0833333,43.0736842 C49.0833333,43.7941895 48.5046667,44.3789474 47.7916667,44.3789474" id="Fill-1746"></path>
                        </g>
                    </g>
                </g>
            </g>
        </g>
    </g>
</svg>