<?xml version="1.0" encoding="UTF-8"?>
<svg width="60px" height="53px" viewBox="0 0 60 53" version="1.1" xmlns="http://www.w3.org/2000/svg" xmlns:xlink="http://www.w3.org/1999/xlink">
    <!-- Generator: Sketch 53 (72520) - https://sketchapp.com -->
    <title>Group 43</title>
    <desc>Created with Sketch.</desc>
    <g id="Page-1" stroke="none" stroke-width="1" fill="none" fill-rule="evenodd">
        <g id="DAP---Fintech-Marketing-" transform="translate(-629.000000, -9386.000000)" fill="#FFFFFF">
            <g id="Our-Customers" transform="translate(0.000000, 8621.000000)">
                <g id="Row-3" transform="translate(200.000000, 715.000000)">
                    <g id="2" transform="translate(321.000000, 0.000000)">
                        <g id="Group-43" transform="translate(108.000000, 50.000000)">
                            <g id="Group-26">
                                <path d="M13.32,41.246619 C13.155,41.246619 12.985,41.2138095 12.825,41.1431429 C5.035,37.7435714 0,30.0131429 0,21.452381 C0,9.62328571 9.5325,-1.77635684e-15 21.25,-1.77635684e-15 C32.9675,-1.77635684e-15 42.5,9.62328571 42.5,21.452381 C42.5,28.5972857 38.9925,35.2500476 33.1125,39.2502857 C32.545,39.6389524 31.765,39.4900476 31.3775,38.9095714 C30.99,38.331619 31.1425,37.5467143 31.7175,37.1580476 C36.905,33.6272381 40,27.7568571 40,21.452381 C40,11.0139048 31.59,2.52380952 21.25,2.52380952 C10.91,2.52380952 2.5,11.0139048 2.5,21.452381 C2.5,29.0061429 6.94,35.8254762 13.815,38.8262857 C14.45,39.1039048 14.74,39.8459048 14.4675,40.4869524 C14.2625,40.9614286 13.8025,41.246619 13.32,41.246619" id="Fill-1662"></path>
                                <path d="M8.75,53 C8.43,53 8.11,52.8763333 7.865,52.6315238 C7.3775,52.1368571 7.3775,51.3393333 7.865,50.8446667 L22.865,35.7018095 C23.355,35.2096667 24.145,35.2096667 24.635,35.7018095 L33.75,44.9061429 L51.615,26.8684762 C52.105,26.3763333 52.895,26.3763333 53.385,26.8684762 C53.8725,27.3631429 53.8725,28.1606667 53.385,28.6553333 L34.635,47.5839048 C34.145,48.0760476 33.355,48.0760476 32.865,47.5839048 L23.75,38.3795714 L9.635,52.6315238 C9.39,52.8763333 9.07,53 8.75,53" id="Fill-1663"></path>
                                <path d="M49.2675,22.7142857 L57.5,31.0251905 L57.5,22.7142857 L49.2675,22.7142857 L49.2675,22.7142857 Z M58.75,35.3333333 C58.425,35.3333333 58.105,35.204619 57.865,34.9648571 L45.365,22.3458095 C45.01,21.982381 44.9025,21.4422857 45.095,20.9703333 C45.2875,20.498381 45.745,20.1904762 46.25,20.1904762 L58.75,20.1904762 C59.44,20.1904762 60,20.7558095 60,21.452381 L60,34.0714286 C60,34.5812381 59.695,35.0430952 59.2275,35.2374286 C59.075,35.3030476 58.91,35.3333333 58.75,35.3333333 L58.75,35.3333333 Z" id="Fill-1664"></path>
                                <path d="M21.245,30.2857143 C17.9125,30.2857143 15.23,28.2666667 15.005,25.586381 C14.9475,24.8923333 15.4575,24.2815714 16.145,24.2235238 C16.775,24.1377143 17.4375,24.6752857 17.495,25.374381 C17.605,26.6892857 19.2875,27.7619048 21.245,27.7619048 C23.2825,27.7619048 25,26.606 25,25.2380952 C25,24.009 23.815,23.214 21.275,22.7420476 L21,22.6890476 C16.945,21.9344286 15,20.258619 15,17.6666667 C15,14.8829048 17.805,12.6190476 21.255,12.6190476 C24.5875,12.6190476 27.27,14.6380952 27.495,17.3158571 C27.5525,18.0124286 27.0425,18.6231905 26.355,18.6812381 C25.7125,18.749381 25.06,18.2269524 25.005,17.530381 C24.895,16.2129524 23.2125,15.1428571 21.255,15.1428571 C19.22,15.1428571 17.5,16.2987619 17.5,17.6666667 C17.5,18.8982857 18.6875,19.6907619 21.235,20.1652381 L21.51,20.2182381 C25.56,20.9728571 27.5,22.6486667 27.5,25.2380952 C27.5,28.0218571 24.695,30.2857143 21.245,30.2857143" id="Fill-1665"></path>
                                <path d="M21.25,32.8095238 C20.56,32.8095238 20,32.2441905 20,31.547619 L20,11.3571429 C20,10.6605714 20.56,10.0952381 21.25,10.0952381 C21.94,10.0952381 22.5,10.6605714 22.5,11.3571429 L22.5,31.547619 C22.5,32.2441905 21.94,32.8095238 21.25,32.8095238" id="Fill-1666"></path>
                            </g>
                        </g>
                    </g>
                </g>
            </g>
        </g>
    </g>
</svg>