<?xml version="1.0" encoding="UTF-8"?>
<svg width="72px" height="48px" viewBox="0 0 72 48" version="1.1" xmlns="http://www.w3.org/2000/svg" xmlns:xlink="http://www.w3.org/1999/xlink">
    <!-- Generator: Sketch 53 (72520) - https://sketchapp.com -->
    <title>Icon</title>
    <desc>Created with Sketch.</desc>
    <g id="Page-1" stroke="none" stroke-width="1" fill="none" fill-rule="evenodd">
        <g id="DAP---Fintech-Marketing-" transform="translate(-944.000000, -9388.000000)" fill="#FFFFFF" stroke="#EE8F29" stroke-width="0.55">
            <g id="Our-Customers" transform="translate(0.000000, 8621.000000)">
                <g id="Row-3" transform="translate(200.000000, 715.000000)">
                    <g id="3" transform="translate(642.000000, 0.000000)">
                        <g id="Icon" transform="translate(103.000000, 53.000000)">
                            <path d="M12.0458333,40.6483887 L29.4,43.2909668 C31.4708333,43.8650639 37.45,43.1322967 38.3541667,42.252399 C38.4125,42.1745064 38.5,42.1052685 38.6166667,42.0475703 L45.9375,37.5528798 L42.2916667,37.5528798 L35.9333333,38.0490844 C33.95,38.3375754 31.8208333,37.7202046 30.2166667,36.3498721 C28.6125,34.9795396 27.7083333,32.9918363 27.7083333,30.9002762 C27.7083333,29.2818414 28.2041667,27.7355294 29.1666667,26.4315499 L33.7458333,20.2463018 C34.2125,19.5366138 34.0958333,18.5153555 33.4541667,17.8720205 C32.6958333,17.1248286 31.4708333,17.1219437 30.7125,17.8720205 L22.8958333,25.5920409 C22.6333333,25.8603376 22.2541667,26.0132379 21.875,26.0132379 C18.8708333,26.0132379 16.1875,27.6345575 14.8166667,30.2482864 L12.0458333,40.6483887 L12.0458333,40.6483887 Z M31.6458333,46.3720512 C30.4208333,46.3720512 29.3708333,46.2768491 28.7583333,46.1037545 L9.975,43.2563478 C9.56666667,43.1957647 9.21666667,42.9649719 8.98333333,42.6216675 C8.75,42.2812481 8.69166667,41.8600512 8.80833333,41.4648184 L12.0166667,29.3655038 C12.0458333,29.2703018 12.075,29.1750997 12.1333333,29.0885524 C13.8833333,25.5978107 17.3541667,23.3620051 21.2625,23.1456368 L28.6416667,15.8323887 C30.5375,13.9571969 33.6291667,13.9571969 35.525,15.8323887 C37.1583333,17.4479386 37.3916667,19.9981995 36.1375,21.8964706 L31.5291667,28.1307621 C30.9458333,28.9385371 30.625,29.8963274 30.625,30.8973913 C30.625,32.1552123 31.1791667,33.3466803 32.1416667,34.1688798 C33.1041667,34.9910793 34.3583333,35.3632327 35.6125,35.1843683 L42.175,34.6737391 L51.0416667,34.6679693 C51.6833333,34.6679693 52.2666667,35.0949361 52.4416667,35.7151918 C52.6166667,36.3354476 52.3541667,36.9960921 51.8,37.3365115 L40.25,44.4276215 C38.6458333,45.8123785 34.6208333,46.3720512 31.6458333,46.3720512 L31.6458333,46.3720512 Z" id="Fill-1786"></path>
                            <path d="M2.91666667,26.1574834 L2.91666667,43.1698005 C5.10416667,42.7572583 7.64166667,41.5975243 8.98333333,40.899376 C9.47916667,39.2117033 10.9958333,33.8428849 11.6083333,28.136532 C9.94583333,27.2277852 6.06666667,26.5094425 2.91666667,26.1574834 L2.91666667,26.1574834 Z M1.45833333,46.2076113 C0.641666667,46.2076113 0,45.5613913 0,44.765156 L0,24.5707826 C0,24.1697801 0.175,23.786087 0.466666667,23.5120205 C0.758333333,23.2408389 1.1375,23.1052481 1.575,23.1340972 C3.20833333,23.2610332 11.5791667,24.0139949 14.1166667,26.4084706 C14.4375,26.7113862 14.6125,27.1441228 14.5833333,27.5826292 C13.9125,35.0776266 11.6958333,42.027376 11.6083333,42.3187519 C11.4916667,42.6649412 11.2583333,42.9534322 10.9375,43.1322967 C10.7041667,43.2592327 5.45416667,46.2076113 1.45833333,46.2076113 L1.45833333,46.2076113 Z" id="Fill-1787"></path>
                            <path d="M68.5416667,11.5396419 L21.875,11.5396419 C21.0583333,11.5396419 20.4166667,10.893422 20.4166667,10.0971867 C20.4166667,9.30095141 21.0583333,8.65473146 21.875,8.65473146 L68.5416667,8.65473146 C69.3583333,8.65473146 70,9.30095141 70,10.0971867 C70,10.893422 69.3583333,11.5396419 68.5416667,11.5396419" id="Fill-1788"></path>
                            <path d="M53.9583333,25.9641944 C53.5791667,25.9641944 53.2,25.8228338 52.9375,25.5429974 C52.3541667,24.977555 52.3541667,24.0659233 52.9375,23.5004808 L61.6875,14.8457494 C62.2416667,14.2831918 63.175,14.2831918 63.7291667,14.8457494 C64.3125,15.4111918 64.3125,16.3228235 63.7291667,16.888266 L54.9791667,25.5429974 C54.7166667,25.8228338 54.3375,25.9641944 53.9583333,25.9641944" id="Fill-1789"></path>
                            <path d="M54.0166667,17.3094629 C53.2,17.3094629 52.5291667,16.663243 52.5291667,15.8670077 C52.5291667,15.0707724 53.1708333,14.4245524 53.9875,14.4245524 L54.0166667,14.4245524 C54.8333333,14.4245524 55.475,15.0707724 55.475,15.8670077 C55.475,16.663243 54.8333333,17.3094629 54.0166667,17.3094629" id="Fill-1790"></path>
                            <path d="M62.7666667,25.9641944 C61.95,25.9641944 61.2791667,25.3179744 61.2791667,24.5217391 C61.2791667,23.7255038 61.9208333,23.0792839 62.7375,23.0792839 L62.7666667,23.0792839 C63.5833333,23.0792839 64.225,23.7255038 64.225,24.5217391 C64.225,25.3179744 63.5833333,25.9641944 62.7666667,25.9641944" id="Fill-1791"></path>
                            <path d="M48.125,20.1943734 L40.8333333,20.1943734 C40.0166667,20.1943734 39.375,19.5481535 39.375,18.7519182 C39.375,17.9556829 40.0166667,17.3094629 40.8333333,17.3094629 L48.125,17.3094629 C48.9416667,17.3094629 49.5833333,17.9556829 49.5833333,18.7519182 C49.5833333,19.5481535 48.9416667,20.1943734 48.125,20.1943734" id="Fill-1792"></path>
                            <path d="M48.125,25.9641944 L39.375,25.9641944 C38.5583333,25.9641944 37.9166667,25.3179744 37.9166667,24.5217391 C37.9166667,23.7255038 38.5583333,23.0792839 39.375,23.0792839 L48.125,23.0792839 C48.9416667,23.0792839 49.5833333,23.7255038 49.5833333,24.5217391 C49.5833333,25.3179744 48.9416667,25.9641944 48.125,25.9641944" id="Fill-1793"></path>
                            <path d="M62.7083333,31.7340153 L36.4583333,31.7340153 C35.6416667,31.7340153 35,31.0877954 35,30.2915601 C35,29.4953248 35.6416667,28.8491049 36.4583333,28.8491049 L62.7083333,28.8491049 C65.1291667,28.8491049 67.0833333,26.9075601 67.0833333,24.5217391 L67.0833333,7.21227621 C67.0833333,4.82645524 65.1291667,2.88491049 62.7083333,2.88491049 L27.7083333,2.88491049 C25.2875,2.88491049 23.3333333,4.82645524 23.3333333,7.21227621 L23.3333333,15.8670077 C23.3333333,16.663243 22.6916667,17.3094629 21.875,17.3094629 C21.0583333,17.3094629 20.4166667,16.663243 20.4166667,15.8670077 L20.4166667,7.21227621 C20.4166667,3.23686957 23.6833333,0 27.7083333,0 L62.7083333,0 C66.7333333,0 70,3.23686957 70,7.21227621 L70,24.5217391 C70,28.4971458 66.7333333,31.7340153 62.7083333,31.7340153" id="Fill-1785"></path>
                        </g>
                    </g>
                </g>
            </g>
        </g>
    </g>
</svg>