<?xml version="1.0" encoding="UTF-8"?>
<svg width="57px" height="57px" viewBox="0 0 57 57" version="1.1" xmlns="http://www.w3.org/2000/svg" xmlns:xlink="http://www.w3.org/1999/xlink">
    <!-- Generator: Sketch 53 (72520) - https://sketchapp.com -->
    <title>money</title>
    <desc>Created with Sketch.</desc>
    <g id="Page-1" stroke="none" stroke-width="1" fill="none" fill-rule="evenodd">
        <g id="DAP---Financial-services-marketing-" transform="translate(-308.000000, -9140.000000)" fill="#FFFFFF">
            <g id="Our-Customers" transform="translate(0.000000, 8590.000000)">
                <g id="Row-2" transform="translate(200.000000, 506.000000)">
                    <g id="1">
                        <g id="money" transform="translate(108.000000, 44.000000)">
                            <path d="M2.375,49.875 L7.445625,49.875 C8.329125,47.08675 11.17675,37.845625 11.8085,32.644375 C10.309875,31.917625 6.18925,31.262125 2.375,30.9605 L2.375,49.875 L2.375,49.875 Z M8.3125,52.25 L1.1875,52.25 C0.532,52.25 0,51.718 0,51.0625 L0,29.6875 C0,29.35975 0.135375,29.04625 0.372875,28.823 C0.610375,28.59975 0.94525,28.49525 1.256375,28.502375 C3.705,28.64725 11.84175,29.271875 13.8795,31.200375 C14.14075,31.44975 14.2785,31.806 14.24525,32.164625 C13.706125,38.339625 9.616375,50.901 9.443,51.430625 C9.2815,51.919875 8.8255,52.25 8.3125,52.25 L8.3125,52.25 Z" id="Fill-1852"></path>
                            <path d="M31.8155,56.926375 C30.267,56.926375 28.887125,56.489375 26.892125,55.7365 L9.12475,49.81325 C8.5025,49.606625 8.16525,48.9345 8.371875,48.31225 C8.58325,47.69 9.25775,47.355125 9.87525,47.56175 L27.68775,53.49925 C31.965125,55.11425 32.31425,55.244875 42.301125,51.15275 L54.074,45.7995 C52.765375,44.210625 50.646875,43.491 48.5735,44.001625 L39.474875,46.276875 C38.828875,46.43125 38.192375,46.048875 38.035625,45.412375 C37.8765,44.77825 38.263625,44.13225 38.900125,43.973125 L47.99875,41.70025 C51.573125,40.800125 55.225875,42.484 56.874125,45.7805 C57.019,46.07025 57.040375,46.405125 56.9335,46.709125 C56.82425,47.013125 56.59625,47.260125 56.304125,47.393125 L43.241625,53.330625 C37.04525,55.871875 34.22375,56.924 31.8155,56.926375" id="Fill-1853"></path>
                            <path d="M34.264125,47.321875 C33.7155,47.321875 33.171625,47.269625 32.634875,47.16275 L22.32975,45.10125 C21.686125,44.973 21.268125,44.348375 21.39875,43.70475 C21.527,43.05875 22.1825,42.6455 22.79525,42.77375 L33.100375,44.832875 C33.960125,45.003875 34.86025,44.9825 35.703375,44.7735 L37.983375,44.201125 C37.840875,42.035125 36.77925,40.99725 34.150125,40.339375 L12.806,35.5965 C12.16475,35.454 11.761,34.819875 11.9035,34.181 C12.043625,33.542125 12.67775,33.143125 13.319,33.2785 L34.694,38.0285 C38.634125,39.01175 40.375,41.08275 40.375,44.74975 L40.375,45.125 C40.375,45.668875 40.0045,46.143875 39.474875,46.276875 L36.278125,47.074875 C35.622625,47.241125 34.943375,47.321875 34.264125,47.321875" id="Fill-1854"></path>
                            <path d="M53.04325,44.015875 C52.960125,44.015875 52.874625,44.006375 52.78675,43.987375 C52.1455,43.844875 51.74175,43.21075 51.88425,42.5695 C52.1265,41.474625 52.25,40.334625 52.25,39.1875 C52.25,34.330625 42.738125,21.66 38.627,16.625 L30.240875,16.625 C28.40025,18.840875 19.876375,29.26 17.734125,34.827 C17.499,35.43975 16.81975,35.746125 16.1975,35.508625 C15.587125,35.2735 15.283125,34.58475 15.515875,33.974375 C18.057125,27.379 28.345625,15.18575 28.78025,14.670375 C29.00825,14.404375 29.338375,14.25 29.6875,14.25 L39.1875,14.25 C39.541375,14.25 39.87625,14.40675 40.10425,14.679875 C41.588625,16.47775 54.625,32.430625 54.625,39.1875 C54.625,40.508 54.4825,41.819 54.20225,43.084875 C54.081125,43.63825 53.587125,44.015875 53.04325,44.015875" id="Fill-1855"></path>
                            <path d="M43.9375,16.625 L24.9375,16.625 C24.282,16.625 23.75,16.093 23.75,15.4375 C23.75,14.782 24.282,14.25 24.9375,14.25 L43.9375,14.25 C44.593,14.25 45.125,14.782 45.125,15.4375 C45.125,16.093 44.593,16.625 43.9375,16.625" id="Fill-1856"></path>
                            <path d="M30.107875,14.25 L38.767125,14.25 C42.324875,11.354875 47.701875,6.156 47.918,3.678875 C47.9465,3.332125 47.844375,3.213375 47.796875,3.161125 C47.046375,2.700375 43.187,4.5315 39.878625,6.90175 C39.617375,7.09175 39.27775,7.16775 38.966625,7.103625 C38.646,7.04425 38.36575,6.85425 38.19,6.581125 C36.841,4.495875 35.036,2.489 34.406625,2.372625 C33.836625,2.489 32.031625,4.495875 30.685,6.581125 C30.50925,6.85425 30.229,7.04425 29.908375,7.103625 C29.599625,7.165375 29.257625,7.09175 28.996375,6.90175 C25.367375,4.301125 21.752625,2.755 21.063875,3.173 C21.030625,3.213375 20.9285,3.332125 20.957,3.678875 C21.173125,6.156 26.550125,11.354875 30.107875,14.25 L30.107875,14.25 Z M39.1875,16.625 L29.6875,16.625 C29.419125,16.625 29.1555,16.532375 28.9465,16.366125 C27.927625,15.5515 18.973875,8.281625 18.5915,3.883125 C18.513125,2.9925 18.75775,2.19925 19.296875,1.588875 C21.268125,-0.65075 26.429,2.28475 29.376375,4.275 C30.72775,2.35125 32.73225,0 34.4375,0 C36.14275,0 38.14725,2.35125 39.498625,4.275 C42.446,2.287125 47.602125,-0.65075 49.578125,1.588875 C50.11725,2.19925 50.361875,2.9925 50.2835,3.883125 C49.901125,8.281625 40.947375,15.5515 39.930875,16.366125 C39.7195,16.532375 39.455875,16.625 39.1875,16.625 L39.1875,16.625 Z" id="Fill-1857"></path>
                            <path d="M37.97625,41.5625 C37.639,41.5625 37.30175,41.417625 37.066625,41.137375 C36.64625,40.63625 36.710375,39.88575 37.213875,39.465375 C37.5725,39.16375 38,38.665 38,38 C38,36.843375 36.87425,36.09525 34.46125,35.651125 L34.2,35.60125 C30.34775,34.891125 28.5,33.314125 28.5,30.875 C28.5,28.255375 31.16475,26.125 34.44225,26.125 C37.608125,26.125 40.1565,28.025 40.37025,30.544875 C40.424875,31.200375 39.940375,31.775125 39.28725,31.82975 C38.6745,31.87725 38.057,31.40225 38.00475,30.74675 C37.90025,29.507 36.301875,28.5 34.44225,28.5 C32.509,28.5 30.875,29.58775 30.875,30.875 C30.875,32.034 32.003125,32.77975 34.42325,33.22625 L34.6845,33.276125 C38.532,33.98625 40.375,35.56325 40.375,38 C40.375,39.235 39.7955,40.39875 38.741,41.284625 C38.51775,41.469875 38.247,41.5625 37.97625,41.5625" id="Fill-1858"></path>
                            <path d="M34.4375,39.1875 C33.782,39.1875 33.25,38.6555 33.25,38 L33.25,24.9375 C33.25,24.282 33.782,23.75 34.4375,23.75 C35.093,23.75 35.625,24.282 35.625,24.9375 L35.625,38 C35.625,38.6555 35.093,39.1875 34.4375,39.1875" id="Fill-1859"></path>
                        </g>
                    </g>
                </g>
            </g>
        </g>
    </g>
</svg>