<?xml version="1.0" encoding="UTF-8"?>
<svg width="44px" height="47px" viewBox="0 0 44 47" version="1.1" xmlns="http://www.w3.org/2000/svg" xmlns:xlink="http://www.w3.org/1999/xlink">
    <!-- Generator: Sketch 52.5 (67469) - http://www.bohemiancoding.com/sketch -->
    <title>Icons/User Focused Design</title>
    <desc>Created with Sketch.</desc>
    <g id="Page-1" stroke="none" stroke-width="1" fill="none" fill-rule="evenodd">
        <g id="DAP---Healthcare-marketing-page" transform="translate(-1066.000000, -4857.000000)">
            <g id="Services" transform="translate(0.000000, 4498.000000)">
                <g id="3" transform="translate(1050.000000, 344.000000)">
                    <g id="Title">
                        <g id="Icons/User-Focused-Design" transform="translate(16.000000, 16.000000)">
                            <g>
                                <g id="Group_60" transform="translate(0.035852, 16.839286)" fill="#FFFFFF" fill-rule="nonzero" stroke="#4863FD" stroke-width="0.3">
                                    <path d="M35.7035556,28.7927143 L25.8756667,28.7927143 C25.8756667,28.7343929 25.8561111,28.695375 25.8561111,28.6563571 C25.9335185,25.0749286 26.0105185,21.4737857 26.1070741,17.8919464 C26.1308315,17.4411767 26.2562321,17.0018025 26.4737407,16.6072321 C27.9025185,14.1544464 29.37,11.7197321 30.7987778,9.28830357 C31.2515353,8.49479483 32.0785327,7.99311007 32.9860348,7.96143899 C33.8935368,7.9297679 34.7529683,8.37259767 35.2590741,9.13264286 C35.7250517,9.78688626 35.8542456,10.625685 35.607,11.3915714 C35.2403333,12.5596429 34.8736667,13.708 34.507,14.8563571 C34.4772293,14.9447847 34.4772293,15.0406438 34.507,15.1290714 C34.5648519,15.07075 34.6614074,15.0510357 34.7001111,14.9734107 C35.6461111,13.6106607 36.6116667,12.267625 37.5385185,10.9052857 C37.6119075,10.7755301 37.6390772,10.6243766 37.6155185,10.4769107 C37.4611111,8.7055 37.2871481,6.93408929 37.1327407,5.143375 C37.0748889,4.55933929 36.9974815,3.97530357 36.9783333,3.37196429 C36.9024275,2.40535344 37.3438164,1.47134422 38.136233,0.921768906 C38.9286497,0.372193593 39.9517072,0.290545771 40.8200295,0.707581389 C41.6883519,1.12461701 42.2700203,1.97697842 42.3459259,2.94358929 C42.7125926,6.09705357 43.040963,9.23080357 43.408037,12.3842679 C43.5423818,13.3255176 43.2760447,14.2801806 42.6747037,15.0128393 C40.493037,17.8159643 38.3301111,20.6186786 36.1484444,23.4025 C35.9982973,23.5912183 35.910537,23.8225971 35.8974815,24.0641607 C35.8396296,25.601875 35.7622222,27.1395893 35.7043704,28.6773036 C35.7418519,28.695375 35.7227037,28.7343929 35.7035556,28.7927143 Z M33.9851111,26.9826964 C34.042963,25.7563036 34.0816667,24.5689286 34.1590741,23.3815536 C34.1743218,23.1436651 34.2545523,22.914666 34.3908889,22.7198929 C36.6498272,19.7611071 38.9218025,16.8153274 41.2068148,13.8825536 C41.4813667,13.5674698 41.6079944,13.1484366 41.5543333,12.7325536 C41.206679,9.52076786 40.8591605,6.30898214 40.5117778,3.09719643 C40.5064341,2.77737496 40.3239793,2.48747164 40.0392306,2.34636397 C39.7544819,2.2052563 39.4153449,2.23668395 39.1608858,2.42775973 C38.9064267,2.61883551 38.7794551,2.93741322 38.832037,3.25285714 C38.8898889,3.89521429 38.9478765,4.53757143 39.006,5.17992857 C39.1991111,7.12630357 39.3922222,9.09239286 39.5657778,11.0387679 C39.5916847,11.1805622 39.5642307,11.3270003 39.4887778,11.4494821 C38.2144074,13.2792143 36.940037,15.0892321 35.6465185,16.8996607 C35.5776631,16.989845 35.4696452,17.0406932 35.3568519,17.0360179 C34.2568519,16.9579821 33.1568519,16.8606429 32.0356667,16.7830179 C32.0742907,16.6681395 32.106526,16.551178 32.1322222,16.4326786 L33.811963,11.1188571 C33.8994616,10.9101669 33.8996169,10.6746916 33.8123938,10.4658843 C33.7251707,10.2570769 33.5579679,10.09265 33.3487407,10.0099286 C32.9481967,9.86109467 32.500504,10.037463 32.3061852,10.4206429 C30.9161111,12.7760893 29.5064815,15.1118214 28.1164074,17.4668571 C27.9993159,17.6905657 27.9271838,17.9353768 27.9041481,18.18725 C27.8271481,21.0289821 27.7884444,23.871125 27.7301852,26.7128571 C27.7301852,26.7908929 27.7493333,26.8882321 27.7493333,26.9658571 C29.8527778,26.9826964 31.8995926,26.9826964 33.9847037,26.9826964 L33.9851111,26.9826964 Z" id="Path_107"></path>
                                    <path d="M17.9972222,28.7927143 L8.14814815,28.7927143 C8.129,28.3060179 8.0902963,27.8390357 8.07114815,27.3716429 C8.0132963,26.2035714 7.97459259,25.0359107 7.91674074,23.8678393 C7.90349065,23.7192771 7.8500852,23.5772218 7.76233333,23.457125 C5.58025926,20.6346964 3.39193827,17.8187024 1.19737037,15.0091429 C0.571152721,14.228403 0.298081282,13.218865 0.444481481,12.2257321 C0.695444444,10.1623036 0.907703704,8.07957143 1.13951852,6.01655357 C1.27477778,4.8875 1.37133333,3.757625 1.54692593,2.62980357 C1.76085539,1.25769002 2.99351271,0.287842013 4.36577778,0.411946429 C5.81606371,0.550969239 6.89392948,1.82717744 6.79881481,3.29269643 C6.66355556,5.16144643 6.47044444,7.03019643 6.29688889,8.87841071 C6.23903704,9.42342857 6.18118519,9.96844643 6.14248148,10.5134643 C6.14468116,10.6427178 6.17780487,10.769525 6.23903704,10.8831071 C7.16588889,12.2458571 8.11311111,13.5888929 9.05788889,14.9319286 C9.11004148,15.0213601 9.14293966,15.1208557 9.15444444,15.2239464 C9.2122963,15.1849286 9.27014815,15.1266071 9.32840741,15.0875893 C9.31184293,14.9880395 9.28606362,14.890273 9.25140741,14.7955714 C8.90388889,13.6866429 8.53681481,12.5777143 8.1892963,11.4474286 C7.86976741,10.4496602 8.15916904,9.35571255 8.92912223,8.65086232 C9.69907543,7.94601209 10.8070099,7.76077459 11.7614444,8.17732143 C12.2231619,8.37154859 12.6142472,8.70456821 12.8814074,9.131 L16.5305556,15.1459107 C17.9206296,17.4430357 17.7275185,16.8783036 17.8049259,19.5840893 C17.8819259,22.4648393 17.9401852,25.3653036 17.998037,28.2460536 C17.9972222,28.3840536 17.9972222,28.5590179 17.9972222,28.7927143 Z M11.838037,16.7049821 C11.7685228,16.7240917 11.6975086,16.7371456 11.6257778,16.744 C10.6219259,16.8220357 9.61766667,16.8803571 8.61381481,16.9776964 C8.42694341,17.0001917 8.24474954,16.9082745 8.15059259,16.744 C6.91492593,14.9725893 5.6597037,13.2208929 4.42403704,11.4494821 C4.33322628,11.3183805 4.28588129,11.1616789 4.28877778,11.0018036 C4.42403704,9.52323214 4.5592963,8.04466071 4.7137037,6.58333929 C4.81025926,5.47441071 4.92596296,4.36548214 5.02251852,3.25655357 C5.06516575,3.02339506 5.01072696,2.78281981 4.87199758,2.59137326 C4.73326819,2.39992672 4.52248289,2.27449271 4.28918519,2.24455357 C3.7677037,2.18623214 3.42018519,2.49755357 3.34318519,3.08158929 C2.99566667,6.25435714 2.64814815,9.40658929 2.28148148,12.5805893 C2.21838712,13.0266132 2.34453667,13.4788022 2.629,13.8262857 C4.94592593,16.7834286 7.2437037,19.7241429 9.52192593,22.6829286 C9.62173523,22.8211666 9.68788734,22.981136 9.71503704,23.1499107 C9.77288889,24.2789643 9.83074074,25.4273214 9.86944444,26.556375 C9.86944444,26.8290893 9.966,26.9067143 10.2361111,26.9067143 C12.0898148,26.8874107 13.9435185,26.9067143 15.8175926,26.9067143 C15.9141481,26.9067143 16.0298519,26.8874107 16.145963,26.8874107 L16.145963,26.556375 C16.0881111,23.8119821 16.0302593,21.0671786 15.9915556,18.3227857 C15.9901441,17.8983256 15.8768165,17.481875 15.6631852,17.1161071 C14.330963,14.8777143 13.0178889,12.6393214 11.6856667,10.4005179 C11.6131306,10.2760394 11.5291038,10.1587396 11.4347037,10.0501786 C11.2032048,9.79704693 10.8349305,9.72589365 10.527,9.87480357 C10.1989424,10.0330383 10.0112094,10.3880821 10.0637778,10.7508571 C10.0839654,10.9169781 10.1227815,11.0802542 10.1794815,11.2375536 C10.4882963,12.2495536 10.8166667,13.2812679 11.1254815,14.2936786 C11.3361111,15.1089464 11.5866667,15.88725 11.838037,16.7049821 Z" id="Path_108"></path>
                                </g>
                                <g id="Group_45" transform="translate(12.222222, 0.000000)" fill-rule="nonzero">
                                    <path d="M11.0741188,12.6633705 C11.062601,12.7746678 11.0506131,12.8748353 11.0395654,12.9861325 C11.0362266,13.0239873 11.0283382,13.0613378 11.0160596,13.0974297 C11.0160596,13.1085594 11.0045418,13.1308189 11.0045418,13.1428571 L10.163977,13.1428571 C10.1524592,13.0093005 10.1294236,12.8757438 10.1169655,12.7421871 C10.0699541,12.4196523 10.0363409,12.0857607 10.0133053,11.7629987 C10.0136993,11.4542905 9.83602851,11.1710991 9.552593,11.0286642 C9.07147809,10.7536934 8.72966339,10.2984963 8.6083679,9.7712327 C8.48129256,9.2572107 8.58595102,8.71522543 8.89631307,8.28007705 C9.20610206,7.82740456 9.69471121,7.51756167 10.2477584,7.42308177 C10.8008056,7.32860188 11.3697365,7.45777977 11.8213659,7.78037523 C12.3564237,8.16073937 12.658979,8.77462041 12.6273773,9.415763 C12.6162531,10.0532587 12.2745051,10.6427289 11.7177056,10.9848267 C11.6941999,10.9959564 11.6706942,11.0182159 11.6485988,11.0302541 L11.4758317,11.1304216 C11.3060067,11.2183215 11.1998366,11.3892223 11.1994043,11.5753834 C11.1547434,11.9292631 11.1093774,12.3074466 11.0741188,12.6633705 Z" id="Path_590" fill="#FCA50C"></path>
                                    <g id="Group_146" fill="#FFFFFF">
                                        <path d="M19.0163907,7.60513482 C18.749754,5.32783835 17.5505313,3.259161 15.6996578,1.88372054 C13.4103144,0.135309821 10.8528968,-0.395990179 8.09442372,0.290046429 C4.01928978,1.28539595 1.22537671,5.00021533 1.42744885,9.15453393 C1.46541705,9.75000236 1.3460717,10.3449925 1.08118651,10.8808071 C0.69024515,11.6996687 0.366550265,12.4634125 0.0761366843,13.2047929 C-0.0558781019,13.5565717 -0.0145647256,13.9492596 0.187834215,14.2664893 C0.411683604,14.5952758 0.781645341,14.797083 1.18171429,14.8086321 L1.67318342,14.8086321 L1.67318342,17.4536116 C1.65830457,17.9882244 1.86685535,18.5051988 2.24953413,18.8823216 C2.63221291,19.2594444 3.15505243,19.4632414 3.69445282,19.4455348 L5.9837963,19.4455348 L5.9837963,21.7695205 C5.9837963,22.2563196 6.16251235,22.4334196 6.64258377,22.4334196 L15.7217694,22.4334196 C16.2132385,22.4334196 16.3917266,22.2563196 16.3917266,21.7803634 L16.3917266,15.3729125 C16.3843298,15.2186661 16.4455729,15.0689657 16.5592729,14.9633687 C18.5586587,12.8505929 19.3849925,10.3827134 19.0163907,7.60513482 Z M15.3422257,19.6678134 L15.3422257,21.3500375 L7.04469489,21.3500375 L7.04469489,19.0039143 C7.07016682,18.8360168 7.01372646,18.6661026 6.8925978,18.5460247 C6.77146913,18.4259468 6.60002544,18.3699537 6.43058642,18.395133 L3.7949806,18.395133 C3.08034436,18.395133 2.73408201,18.0520018 2.73408201,17.3560259 L2.73408201,14.4121902 C2.73408201,13.9475286 2.54419621,13.7593598 2.07529453,13.7593598 L1.3829978,13.7593598 C1.22662125,13.7593598 1.13726323,13.7367705 1.09258422,13.6818786 C1.05907496,13.6265348 1.0697888,13.5379848 1.12609347,13.3940911 C1.26013051,13.0841661 1.39416755,12.7853098 1.52820459,12.4866795 C1.82978792,11.8006429 2.14231305,11.0811741 2.44389638,10.373 C2.51152727,10.2199463 2.5384464,10.0522704 2.52208466,9.885975 C2.36978185,8.7189221 2.47651974,7.53298795 2.83483774,6.41106518 C3.75348774,3.60462019 6.20494911,1.56172163 9.15260016,1.14622687 C12.1002512,0.730732112 15.0293301,2.01520091 16.7012504,4.4564845 C18.3731706,6.89776808 18.4959572,10.0695339 17.0176887,12.6305732 C16.6449821,13.2931037 16.1659425,13.8911043 15.599358,14.4011214 C15.4139776,14.5620639 15.3148656,14.7994186 15.331284,15.0431089 C15.3424537,16.5800839 15.3424537,18.1516205 15.3424537,19.6675875 L15.3422257,19.6678134 Z" id="Path_591" stroke="#FFFFFF" stroke-width="0.3"></path>
                                        <path d="M13.153638,8.95507054 C13.0883305,8.03268567 12.596764,7.19190237 11.8217464,6.67698142 C11.0467288,6.16206046 10.0751568,6.03073599 9.18928748,6.32115982 C8.08505811,6.65181489 7.28296412,7.59870858 7.14567857,8.73369554 C6.95387241,9.79803442 7.38651274,10.8782544 8.26265388,11.5225687 C8.44623588,11.6541799 8.55767583,11.8628576 8.56423721,12.0873009 C8.59774647,12.4968446 8.64242549,12.9061625 8.69827425,13.3046375 L8.72106966,13.4817375 C8.72112074,13.6316782 8.78603495,13.7744033 8.89936482,13.8737501 C9.01269469,13.9730969 9.1635654,14.0195324 9.31375044,14.0012911 L10.9219669,14.0012911 C11.3464175,14.0012911 11.5146477,13.8573973 11.5695847,13.4478536 C11.6030939,13.2043411 11.6366032,12.9508893 11.6589427,12.7064732 C11.6924519,12.4297545 11.7259612,12.1311241 11.7594705,11.8544054 C11.7744489,11.7634585 11.8220428,11.6809224 11.8935075,11.6219616 C12.7711827,11.0257923 13.2535834,10.0048582 13.153638,8.95507054 Z M10.6073902,12.4742554 C10.5962205,12.5849429 10.5845948,12.6845616 10.573881,12.7952491 C10.5706472,12.8328972 10.5629971,12.8700435 10.5510855,12.9059366 C10.5510855,12.9170054 10.5399158,12.9391429 10.5399158,12.9511152 L9.72475176,12.9511152 C9.71358201,12.8182902 9.6912425,12.6854652 9.67916093,12.5526402 C9.63357011,12.2316464 9.60097266,11.8995839 9.57863316,11.5788161 C9.57901526,11.2717991 9.40671348,10.990159 9.13184303,10.8485045 C8.66526682,10.5750401 8.33378133,10.1223367 8.21615123,9.59796161 C8.09294537,9.08675486 8.19443893,8.54775068 8.49539506,8.114975 C8.79586601,7.6648357 9.26970517,7.35673399 9.80601936,7.2627753 C10.3423335,7.1688166 10.8940524,7.29724735 11.3320564,7.61801071 C11.8509455,7.99629109 12.1443579,8.60680908 12.1137112,9.24443929 C12.1029232,9.87844259 11.7715024,10.4646835 11.2315287,10.8049071 C11.2087332,10.8159759 11.1859378,10.8381134 11.1645101,10.8500857 L10.9969638,10.9497045 C10.8322705,11.0372357 10.7293253,11.2072597 10.7288898,11.3924545 C10.6960644,11.7439438 10.6520692,12.1200554 10.6073902,12.4742554 Z" id="Path_592"></path>
                                        <path d="M6.67632099,6.47634821 C6.77684877,6.57596696 6.8885463,6.67558571 6.98907407,6.78627321 C7.08036513,6.88621415 7.21047897,6.94262421 7.34650617,6.94123571 C7.43110692,6.93756111 7.51434775,6.91881381 7.59224074,6.88589196 C7.83797531,6.78627321 7.88265432,6.56489821 7.89382407,6.33245446 C7.88265432,6.32138571 7.88265432,6.29924821 7.87102866,6.27711071 C7.84697954,6.20423808 7.80906352,6.13660639 7.75933113,6.07787321 C7.54710582,5.84542946 7.31254101,5.61321161 7.04469489,5.36969911 C6.94727524,5.2652793 6.81092162,5.20499446 6.66743112,5.20290276 C6.52394061,5.20081106 6.38585658,5.25709534 6.28537963,5.35863036 C6.18321652,5.45997536 6.12867443,5.59916321 6.1350457,5.74227275 C6.14141697,5.8853823 6.20811642,6.01926962 6.31888889,6.11130536 C6.43058642,6.23283571 6.5534537,6.35459196 6.67632099,6.47634821 Z" id="Path_593"></path>
                                        <path d="M12.7403571,6.84139107 C12.8104826,6.87405726 12.8863642,6.89285613 12.9637522,6.89673482 C13.0936215,6.89501287 13.2177517,6.843429 13.3100146,6.75284107 C13.4999004,6.57574107 13.6897862,6.38757232 13.8682743,6.21069821 L13.9576323,6.12214821 C14.0746417,6.03244891 14.1468014,5.89699826 14.1555396,5.75065724 C14.1642779,5.60431623 14.1087412,5.4613779 14.0032231,5.35863036 C13.899464,5.2532391 13.755915,5.19571277 13.6073951,5.20000489 C13.4588753,5.20429701 13.3189532,5.27001546 13.2215683,5.38121964 C13.009343,5.58045714 12.7971177,5.79076339 12.5962901,6.00106964 C12.5409986,6.07204878 12.4958913,6.15027283 12.4622531,6.23351339 C12.4394577,6.26671964 12.4287438,6.31099464 12.4064043,6.34420089 L12.4064043,6.36679018 C12.4186797,6.575337 12.5482226,6.75933608 12.7414969,6.84274643 L12.7403571,6.84139107 Z" id="Path_594"></path>
                                        <path d="M9.61351014,4.73900625 L9.61351014,5.22603125 C9.6096354,5.36496697 9.6636282,5.49936015 9.76280491,5.59764005 C9.86198163,5.69591996 9.99760115,5.74942452 10.1378047,5.74558482 C10.4273645,5.74558482 10.6620992,5.51297276 10.6620992,5.22603125 C10.673269,4.91610625 10.673269,4.59533839 10.6620992,4.28541339 C10.6638697,4.14184554 10.6027526,4.00456618 10.4945529,3.90907589 C10.3927322,3.81231019 10.2557764,3.76041822 10.1147813,3.76518214 C9.83220969,3.77735461 9.60754577,4.00453052 9.60097266,4.28473571 L9.60097266,4.60572946 C9.61122002,4.64938794 9.6154377,4.69422309 9.61351014,4.73900625 Z" id="Path_595"></path>
                                        <path d="M6.66515123,9.13239643 C6.65889205,8.86603144 6.44247769,8.65157401 6.1736821,8.64537143 C6.06205533,8.63979943 5.95021627,8.63979943 5.83858951,8.64537143 L5.19165564,8.64537143 C4.98862387,8.6518593 4.80792138,8.77472148 4.72875339,8.96010521 C4.6495854,9.14548895 4.68639732,9.35956818 4.82305379,9.50850804 C4.9029473,9.60463983 5.02132319,9.66127005 5.14697663,9.66347054 C5.32569268,9.67453929 5.50440873,9.68605982 5.68312478,9.68605982 C5.86184083,9.68605982 6.04055688,9.68605982 6.21927293,9.67499107 C6.49253516,9.6452238 6.69108691,9.4036038 6.66515123,9.13239643 Z" id="Path_596"></path>
                                        <path d="M15.0520401,8.64537143 C14.7504568,8.63430268 14.4379317,8.63430268 14.1475181,8.64537143 C14.0067043,8.6366287 13.8686264,8.68669571 13.7667612,8.78343383 C13.6648959,8.88017196 13.6085448,9.01474786 13.6113699,9.15453393 C13.6081927,9.29256806 13.6605905,9.42617856 13.7569937,9.5258635 C13.8533968,9.62554843 13.9858758,9.68310843 14.1251786,9.68583393 C14.2330796,9.69140586 14.3412003,9.69140586 14.4491014,9.68583393 L15.0743796,9.68583393 C15.3647639,9.67698761 15.5962404,9.44241818 15.5986742,9.15453393 C15.5951168,9.01483452 15.5352595,8.88236326 15.4324664,8.78669635 C15.3296732,8.69102944 15.1925042,8.64013336 15.0515842,8.64537143 L15.0520401,8.64537143 Z" id="Path_597"></path>
                                        <path d="M7.02258333,11.555775 C6.75450926,11.7881435 6.49768092,12.0315807 6.25209832,12.2860866 C6.10991958,12.4307634 6.0783186,12.6498786 6.17391005,12.8282295 C6.25335326,13.017039 6.43671987,13.1425044 6.64303968,13.1492232 C6.67349348,13.1400065 6.70333743,13.1289162 6.73239771,13.116017 C6.80400189,13.0980216 6.87199179,13.0680771 6.93345326,13.027467 C7.17918783,12.806092 7.4577478,12.540442 7.72627778,12.2528804 C7.880546,12.0550325 7.86246333,11.7744139 7.68405356,11.5976174 C7.50564379,11.4208209 7.22246451,11.4029018 7.02281129,11.555775 L7.02258333,11.555775 Z" id="Path_598"></path>
                                        <path d="M13.3544656,11.644325 C13.2855821,11.5855735 13.205951,11.5404814 13.1199008,11.5115 L13.0528823,11.4782938 C12.8272502,11.4641789 12.6153979,11.5866419 12.5167341,11.7882187 C12.424671,11.9764959 12.4602946,12.201633 12.6060922,12.3529509 C12.8294872,12.5853946 13.0417125,12.7957009 13.2537099,12.9836437 C13.3569796,13.0876933 13.497397,13.147328 13.6446512,13.149675 C13.7886087,13.1471316 13.9254784,13.0872939 14.0244228,12.9836438 C14.1214207,12.8819907 14.1726243,12.7456742 14.1663072,12.6059124 C14.1599902,12.4661506 14.0966938,12.3349162 13.9909136,12.2422634 C13.7789162,12.0430259 13.5778607,11.8324937 13.3544656,11.644325 Z" id="Path_599"></path>
                                    </g>
                                </g>
                            </g>
                        </g>
                    </g>
                </g>
            </g>
        </g>
    </g>
</svg>